<svg xmlns="http://www.w3.org/2000/svg" xmlns:xlink="http://www.w3.org/1999/xlink" width="500" zoomAndPan="magnify" viewBox="0 0 375 374.999991" height="500" preserveAspectRatio="xMidYMid meet" version="1.0"><defs><clipPath id="d8f02c7eb0"><path d="M 113.222656 3.160156 L 262.152344 3.160156 L 262.152344 26.945312 L 113.222656 26.945312 Z M 113.222656 3.160156 " clip-rule="nonzero"/></clipPath><clipPath id="f45df8f7b6"><path d="M 262.152344 26.945312 L 113.222656 26.945312 L 113.222656 9.105469 C 113.222656 5.820312 115.886719 3.160156 119.179688 3.160156 L 256.195312 3.160156 C 259.488281 3.160156 262.152344 5.820312 262.152344 9.105469 Z M 262.152344 26.945312 " clip-rule="nonzero"/></clipPath><clipPath id="0e06865169"><path d="M 262.152344 26.945312 L 113.222656 26.945312 L 113.222656 9.105469 C 113.222656 5.820312 115.886719 3.160156 119.179688 3.160156 L 256.195312 3.160156 C 259.488281 3.160156 262.152344 5.820312 262.152344 9.105469 L 262.152344 26.945312 " clip-rule="nonzero"/></clipPath><clipPath id="27094be14d"><path d="M 163.859375 3.160156 L 262.152344 3.160156 L 262.152344 26.945312 L 163.859375 26.945312 Z M 163.859375 3.160156 " clip-rule="nonzero"/></clipPath><clipPath id="bf65066aec"><path d="M 262.152344 26.945312 L 172.792969 26.945312 L 166.835938 21 C 162.859375 17.433594 162.871094 12.511719 166.835938 9.105469 L 172.792969 3.160156 L 256.195312 3.160156 C 259.488281 3.160156 262.152344 5.820312 262.152344 9.105469 Z M 262.152344 26.945312 " clip-rule="nonzero"/></clipPath><clipPath id="7df7dbc1f8"><path d="M 262.152344 26.945312 L 172.792969 26.945312 L 166.835938 21 C 162.859375 17.433594 162.871094 12.511719 166.835938 9.105469 L 172.792969 3.160156 L 256.195312 3.160156 C 259.488281 3.160156 262.152344 5.820312 262.152344 9.105469 L 262.152344 26.945312 " clip-rule="nonzero"/></clipPath><clipPath id="8ef15e2706"><path d="M 262.246094 3.160156 L 162.859375 2.777344 L 162.765625 26.945312 L 262.152344 27.328125 Z M 262.246094 3.160156 " clip-rule="nonzero"/></clipPath><linearGradient x1="0.336233" gradientTransform="matrix(-0.374559, 97.372045, -97.547506, -0.373886, 213.201319, -29.767119)" y1="0" x2="0.584375" gradientUnits="userSpaceOnUse" y2="0" id="3803d228d1"><stop stop-opacity="1" stop-color="rgb(81.199646%, 56.898499%, 36.096191%)" offset="0"/><stop stop-opacity="1" stop-color="rgb(81.199646%, 56.898499%, 35.995483%)" offset="0.0625"/><stop stop-opacity="1" stop-color="rgb(81.19812%, 56.896973%, 35.797119%)" offset="0.125"/><stop stop-opacity="1" stop-color="rgb(81.095886%, 56.794739%, 35.699463%)" offset="0.1875"/><stop stop-opacity="1" stop-color="rgb(80.89447%, 56.594849%, 35.697937%)" offset="0.25"/><stop stop-opacity="1" stop-color="rgb(80.69458%, 56.394958%, 35.595703%)" offset="0.3125"/><stop stop-opacity="1" stop-color="rgb(80.496216%, 56.195068%, 35.397339%)" offset="0.375"/><stop stop-opacity="1" stop-color="rgb(80.39856%, 55.995178%, 35.299683%)" offset="0.4375"/><stop stop-opacity="1" stop-color="rgb(80.397034%, 55.795288%, 35.296631%)" offset="0.5"/><stop stop-opacity="1" stop-color="rgb(80.2948%, 55.593872%, 35.194397%)" offset="0.5625"/><stop stop-opacity="1" stop-color="rgb(80.09491%, 55.393982%, 34.997559%)" offset="0.625"/><stop stop-opacity="1" stop-color="rgb(79.89502%, 55.194092%, 34.899902%)" offset="0.6875"/><stop stop-opacity="1" stop-color="rgb(79.696655%, 54.994202%, 34.896851%)" offset="0.75"/><stop stop-opacity="1" stop-color="rgb(79.598999%, 54.794312%, 34.794617%)" offset="0.8125"/><stop stop-opacity="1" stop-color="rgb(79.595947%, 54.594421%, 34.596252%)" offset="0.875"/><stop stop-opacity="1" stop-color="rgb(79.493713%, 54.394531%, 34.498596%)" offset="0.9375"/><stop stop-opacity="1" stop-color="rgb(79.296875%, 54.196167%, 34.498596%)" offset="1"/></linearGradient><clipPath id="2a1a0b297b"><path d="M 92.375 26.945312 L 284 26.945312 L 284 371.839844 L 92.375 371.839844 Z M 92.375 26.945312 " clip-rule="nonzero"/></clipPath><clipPath id="946021ad3e"><path d="M 280.023438 95.332031 C 280.023438 72.832031 268.085938 48.652344 262.152344 26.945312 L 113.222656 26.945312 C 107.289062 48.652344 95.351562 72.832031 95.351562 95.332031 L 92.375 193.445312 C 92.375 235.070312 92.375 336.160156 95.351562 365.894531 C 95.746094 369.839844 100.484375 371.839844 104.449219 371.839844 L 151.945312 371.839844 C 156.65625 371.839844 160.578125 367.613281 160.878906 362.917969 C 169.511719 231.9375 175.890625 165.957031 181.730469 131.007812 C 183.089844 125.65625 185.3125 123.019531 187.6875 122.089844 C 190.0625 123.019531 192.285156 125.65625 193.644531 131.007812 C 199.484375 165.957031 205.863281 231.9375 214.496094 362.917969 C 214.796875 367.613281 218.71875 371.839844 223.429688 371.839844 L 270.925781 371.839844 C 274.890625 371.839844 279.558594 369.828125 280.023438 365.894531 C 283.375 337.542969 283.433594 233.6875 283 193.445312 Z M 280.023438 95.332031 " clip-rule="nonzero"/></clipPath><clipPath id="0fcaf90b6a"><path d="M 280.023438 95.332031 C 280.023438 72.832031 268.085938 48.652344 262.152344 26.945312 L 113.222656 26.945312 C 107.289062 48.652344 95.351562 72.832031 95.351562 95.332031 L 92.375 193.445312 C 92.375 235.070312 92.375 336.160156 95.351562 365.894531 C 95.746094 369.839844 100.484375 371.839844 104.449219 371.839844 L 151.945312 371.839844 C 156.65625 371.839844 160.578125 367.613281 160.878906 362.917969 C 169.511719 231.9375 175.890625 165.957031 181.730469 131.007812 C 183.089844 125.65625 185.3125 123.019531 187.6875 122.089844 C 190.0625 123.019531 192.285156 125.65625 193.644531 131.007812 C 199.484375 165.957031 205.863281 231.9375 214.496094 362.917969 C 214.796875 367.613281 218.71875 371.839844 223.429688 371.839844 L 270.925781 371.839844 C 274.890625 371.839844 279.558594 369.828125 280.023438 365.894531 C 283.375 337.542969 283.433594 233.6875 283 193.445312 L 280.023438 95.332031 " clip-rule="nonzero"/></clipPath><clipPath id="4c58850c6f"><path d="M 250.238281 26.945312 L 280 26.945312 L 280 92.355469 L 250.238281 92.355469 Z M 250.238281 26.945312 " clip-rule="nonzero"/></clipPath><clipPath id="c00727f148"><path d="M 279.929688 92.289062 C 278.941406 70.660156 267.816406 47.675781 262.152344 26.945312 L 250.238281 26.945312 C 250.238281 59.59375 262.105469 80.382812 279.929688 92.289062 Z M 279.929688 92.289062 " clip-rule="nonzero"/></clipPath><clipPath id="1e2e4dc9c5"><path d="M 279.929688 92.289062 C 278.941406 70.660156 267.816406 47.675781 262.152344 26.945312 L 250.238281 26.945312 C 250.238281 59.59375 262.105469 80.382812 279.929688 92.289062 " clip-rule="nonzero"/></clipPath><clipPath id="1d5312b99f"><path d="M 95.351562 26.945312 L 125.136719 26.945312 L 125.136719 92.355469 L 95.351562 92.355469 Z M 95.351562 26.945312 " clip-rule="nonzero"/></clipPath><clipPath id="5a059c914d"><path d="M 95.445312 92.289062 C 96.433594 70.660156 107.558594 47.675781 113.222656 26.945312 L 125.136719 26.945312 C 125.136719 59.59375 113.269531 80.382812 95.445312 92.289062 Z M 95.445312 92.289062 " clip-rule="nonzero"/></clipPath><clipPath id="635c2b2f44"><path d="M 95.445312 92.289062 C 96.433594 70.660156 107.558594 47.675781 113.222656 26.945312 L 125.136719 26.945312 C 125.136719 59.59375 113.269531 80.382812 95.445312 92.289062 " clip-rule="nonzero"/></clipPath><clipPath id="240ed220b0"><path d="M 187.6875 26.945312 L 202.582031 26.945312 L 202.582031 87 L 187.6875 87 Z M 187.6875 26.945312 " clip-rule="nonzero"/></clipPath><clipPath id="28cfa8c70b"><path d="M 187.6875 86.457031 C 196.625 80.511719 202.582031 80.511719 202.582031 65.644531 L 202.582031 26.992188 L 187.6875 26.992188 Z M 187.6875 86.457031 " clip-rule="nonzero"/></clipPath><clipPath id="d339ce9bd0"><path d="M 187.6875 86.457031 C 196.625 80.511719 202.582031 80.511719 202.582031 65.644531 L 202.582031 26.992188 L 187.6875 26.992188 L 187.6875 86.457031 " clip-rule="nonzero"/></clipPath><clipPath id="627a36d627"><path d="M 187.746094 26.050781 L 183.941406 86.226562 L 202.523438 87.398438 L 206.328125 27.226562 Z M 187.746094 26.050781 " clip-rule="nonzero"/></clipPath><linearGradient x1="0.00220373" gradientTransform="matrix(259.098714, 18.08536, -18.117949, 258.632684, 184.68515, 61.660549)" y1="0" x2="0.0754027" gradientUnits="userSpaceOnUse" y2="0" id="744b0d2390"><stop stop-opacity="1" stop-color="rgb(83.099365%, 59.999084%, 37.599182%)" offset="0"/><stop stop-opacity="1" stop-color="rgb(83.099365%, 59.999084%, 37.599182%)" offset="0.5"/><stop stop-opacity="1" stop-color="rgb(82.91626%, 59.815979%, 37.461853%)" offset="1"/></linearGradient><clipPath id="c6b84e92e4"><path d="M 226.410156 163.714844 L 288.957031 163.714844 L 288.957031 252.910156 L 226.410156 252.910156 Z M 226.410156 163.714844 " clip-rule="nonzero"/></clipPath><clipPath id="645b9e3cce"><path d="M 250.238281 252.910156 L 280.023438 252.910156 C 284.957031 252.910156 288.957031 248.914062 288.957031 243.992188 L 288.957031 172.632812 C 288.957031 167.710938 284.957031 163.714844 280.023438 163.714844 L 244.28125 163.714844 C 234.414062 163.714844 226.410156 171.703125 226.410156 181.554688 L 226.410156 229.125 C 226.410156 242.261719 237.078125 252.910156 250.238281 252.910156 Z M 250.238281 252.910156 " clip-rule="nonzero"/></clipPath><clipPath id="ec278ddbfd"><path d="M 250.238281 252.910156 L 280.023438 252.910156 C 284.957031 252.910156 288.957031 248.914062 288.957031 243.992188 L 288.957031 172.632812 C 288.957031 167.710938 284.957031 163.714844 280.023438 163.714844 L 244.28125 163.714844 C 234.414062 163.714844 226.410156 171.703125 226.410156 181.554688 L 226.410156 229.125 C 226.410156 242.261719 237.078125 252.910156 250.238281 252.910156 " clip-rule="nonzero"/></clipPath><clipPath id="ea814724aa"><path d="M 223.140625 163.832031 L 288.878906 161.425781 L 292.226562 252.792969 L 226.492188 255.199219 Z M 223.140625 163.832031 " clip-rule="nonzero"/></clipPath><linearGradient x1="0.146827" gradientTransform="matrix(5.957143, 162.040172, 162.332149, -5.946428, 255.396388, 138.828477)" y1="0" x2="0.710667" gradientUnits="userSpaceOnUse" y2="0" id="ac7f02576e"><stop stop-opacity="1" stop-color="rgb(82.699585%, 59.199524%, 37.298584%)" offset="0"/><stop stop-opacity="1" stop-color="rgb(82.699585%, 59.100342%, 37.298584%)" offset="0.015625"/><stop stop-opacity="1" stop-color="rgb(82.699585%, 58.900452%, 37.298584%)" offset="0.03125"/><stop stop-opacity="1" stop-color="rgb(82.553101%, 58.799744%, 37.103271%)" offset="0.0625"/><stop stop-opacity="1" stop-color="rgb(82.402039%, 58.703613%, 36.903381%)" offset="0.078125"/><stop stop-opacity="1" stop-color="rgb(82.398987%, 58.506775%, 36.898804%)" offset="0.09375"/><stop stop-opacity="1" stop-color="rgb(82.398987%, 58.403015%, 36.898804%)" offset="0.125"/><stop stop-opacity="1" stop-color="rgb(82.299805%, 58.300781%, 36.799622%)" offset="0.140625"/><stop stop-opacity="1" stop-color="rgb(82.10144%, 58.100891%, 36.601257%)" offset="0.15625"/><stop stop-opacity="1" stop-color="rgb(81.999207%, 57.998657%, 36.499023%)" offset="0.1875"/><stop stop-opacity="1" stop-color="rgb(81.999207%, 57.904053%, 36.499023%)" offset="0.203125"/><stop stop-opacity="1" stop-color="rgb(81.999207%, 57.707214%, 36.499023%)" offset="0.21875"/><stop stop-opacity="1" stop-color="rgb(81.90155%, 57.601929%, 36.499023%)" offset="0.234375"/><stop stop-opacity="1" stop-color="rgb(81.704712%, 57.598877%, 36.499023%)" offset="0.25"/><stop stop-opacity="1" stop-color="rgb(81.600952%, 57.525635%, 36.399841%)" offset="0.265625"/><stop stop-opacity="1" stop-color="rgb(81.599426%, 57.376099%, 36.201477%)" offset="0.28125"/><stop stop-opacity="1" stop-color="rgb(81.404114%, 57.299805%, 36.099243%)" offset="0.3125"/><stop stop-opacity="1" stop-color="rgb(81.204224%, 57.203674%, 36.099243%)" offset="0.328125"/><stop stop-opacity="1" stop-color="rgb(81.199646%, 57.008362%, 36.099243%)" offset="0.34375"/><stop stop-opacity="1" stop-color="rgb(81.199646%, 56.903076%, 36.001587%)" offset="0.359375"/><stop stop-opacity="1" stop-color="rgb(81.199646%, 56.898499%, 35.804749%)" offset="0.375"/><stop stop-opacity="1" stop-color="rgb(81.100464%, 56.800842%, 35.700989%)" offset="0.390625"/><stop stop-opacity="1" stop-color="rgb(80.9021%, 56.602478%, 35.699463%)" offset="0.40625"/><stop stop-opacity="1" stop-color="rgb(80.799866%, 56.500244%, 35.699463%)" offset="0.4375"/><stop stop-opacity="1" stop-color="rgb(80.799866%, 56.303406%, 35.699463%)" offset="0.46875"/><stop stop-opacity="1" stop-color="rgb(80.702209%, 56.103516%, 35.603333%)" offset="0.484375"/><stop stop-opacity="1" stop-color="rgb(80.505371%, 56.098938%, 35.406494%)" offset="0.5"/><stop stop-opacity="1" stop-color="rgb(80.401611%, 56.001282%, 35.302734%)" offset="0.515625"/><stop stop-opacity="1" stop-color="rgb(80.39856%, 55.802917%, 35.299683%)" offset="0.53125"/><stop stop-opacity="1" stop-color="rgb(80.204773%, 55.700684%, 35.299683%)" offset="0.5625"/><stop stop-opacity="1" stop-color="rgb(80.004883%, 55.503845%, 35.10437%)" offset="0.59375"/><stop stop-opacity="1" stop-color="rgb(79.998779%, 55.303955%, 34.90448%)" offset="0.625"/><stop stop-opacity="1" stop-color="rgb(79.901123%, 55.201721%, 34.899902%)" offset="0.640625"/><stop stop-opacity="1" stop-color="rgb(79.702759%, 55.003357%, 34.899902%)" offset="0.65625"/><stop stop-opacity="1" stop-color="rgb(79.600525%, 54.901123%, 34.899902%)" offset="0.6875"/><stop stop-opacity="1" stop-color="rgb(79.598999%, 54.704285%, 34.70459%)" offset="0.71875"/><stop stop-opacity="1" stop-color="rgb(79.502869%, 54.504395%, 34.503174%)" offset="0.734375"/><stop stop-opacity="1" stop-color="rgb(79.30603%, 54.499817%, 34.498596%)" offset="0.75"/><stop stop-opacity="1" stop-color="rgb(79.202271%, 54.402161%, 34.498596%)" offset="0.765625"/><stop stop-opacity="1" stop-color="rgb(79.199219%, 54.203796%, 34.498596%)" offset="0.78125"/><stop stop-opacity="1" stop-color="rgb(79.005432%, 54.100037%, 34.30481%)" offset="0.8125"/><stop stop-opacity="1" stop-color="rgb(78.805542%, 53.903198%, 34.104919%)" offset="0.84375"/><stop stop-opacity="1" stop-color="rgb(78.799438%, 53.703308%, 34.098816%)" offset="0.875"/><stop stop-opacity="1" stop-color="rgb(78.701782%, 53.601074%, 34.098816%)" offset="0.890625"/><stop stop-opacity="1" stop-color="rgb(78.503418%, 53.404236%, 34.098816%)" offset="0.90625"/><stop stop-opacity="1" stop-color="rgb(78.401184%, 53.300476%, 33.905029%)" offset="0.9375"/><stop stop-opacity="1" stop-color="rgb(78.399658%, 53.103638%, 33.705139%)" offset="0.96875"/><stop stop-opacity="1" stop-color="rgb(78.303528%, 52.903748%, 33.699036%)" offset="0.984375"/><stop stop-opacity="1" stop-color="rgb(78.108215%, 52.89917%, 33.699036%)" offset="1"/></linearGradient><clipPath id="d5ef5fa59d"><path d="M 250.238281 193.445312 L 277.042969 193.445312 L 277.042969 252.910156 L 250.238281 252.910156 Z M 250.238281 193.445312 " clip-rule="nonzero"/></clipPath><clipPath id="78c2a221fc"><path d="M 277.042969 193.445312 L 271.085938 252.910156 L 256.195312 252.910156 L 250.238281 193.445312 Z M 277.042969 193.445312 " clip-rule="nonzero"/></clipPath><clipPath id="e4130e75ed"><path d="M 277.042969 193.445312 L 271.085938 252.910156 L 256.195312 252.910156 L 250.238281 193.445312 L 277.042969 193.445312 " clip-rule="nonzero"/></clipPath><clipPath id="af085f5910"><path d="M 245.523438 193.816406 L 276.882812 191.332031 L 281.757812 252.539062 L 250.402344 255.023438 Z M 245.523438 193.816406 " clip-rule="nonzero"/></clipPath><linearGradient x1="-0.565761" gradientTransform="matrix(5.2125, 65.410711, 65.528578, -5.203125, 266.506468, 229.395565)" y1="0" x2="0.369951" gradientUnits="userSpaceOnUse" y2="0" id="8d2ff7b7d3"><stop stop-opacity="1" stop-color="rgb(100%, 19.198608%, 19.198608%)" offset="0"/><stop stop-opacity="1" stop-color="rgb(100%, 19.198608%, 19.198608%)" offset="0.5"/><stop stop-opacity="1" stop-color="rgb(99.981689%, 19.239807%, 19.216919%)" offset="0.625"/><stop stop-opacity="1" stop-color="rgb(97.886658%, 24.472046%, 21.554565%)" offset="0.628906"/><stop stop-opacity="1" stop-color="rgb(95.808411%, 29.663086%, 23.872375%)" offset="0.632812"/><stop stop-opacity="1" stop-color="rgb(93.730164%, 34.8526%, 26.190186%)" offset="0.636719"/><stop stop-opacity="1" stop-color="rgb(91.651917%, 40.042114%, 28.507996%)" offset="0.640625"/><stop stop-opacity="1" stop-color="rgb(89.573669%, 45.231628%, 30.825806%)" offset="0.644531"/><stop stop-opacity="1" stop-color="rgb(87.495422%, 50.422668%, 33.143616%)" offset="0.648438"/><stop stop-opacity="1" stop-color="rgb(85.496521%, 55.409241%, 35.371399%)" offset="0.652344"/><stop stop-opacity="1" stop-color="rgb(83.499146%, 60.395813%, 37.599182%)" offset="0.65625"/><stop stop-opacity="1" stop-color="rgb(83.499146%, 60.2005%, 37.599182%)" offset="0.6875"/><stop stop-opacity="1" stop-color="rgb(83.401489%, 59.90448%, 37.599182%)" offset="0.703125"/><stop stop-opacity="1" stop-color="rgb(83.203125%, 59.703064%, 37.599182%)" offset="0.71875"/><stop stop-opacity="1" stop-color="rgb(83.001709%, 59.501648%, 37.524414%)" offset="0.734375"/><stop stop-opacity="1" stop-color="rgb(82.800293%, 59.300232%, 37.373352%)" offset="0.75"/><stop stop-opacity="1" stop-color="rgb(82.698059%, 59.197998%, 37.297058%)" offset="0.78125"/><stop stop-opacity="1" stop-color="rgb(82.550049%, 59.00116%, 37.10022%)" offset="0.8125"/><stop stop-opacity="1" stop-color="rgb(82.400513%, 58.705139%, 36.901855%)" offset="0.828125"/><stop stop-opacity="1" stop-color="rgb(82.398987%, 58.503723%, 36.898804%)" offset="0.84375"/><stop stop-opacity="1" stop-color="rgb(82.299805%, 58.302307%, 36.799622%)" offset="0.859375"/><stop stop-opacity="1" stop-color="rgb(82.099915%, 58.099365%, 36.599731%)" offset="0.875"/><stop stop-opacity="1" stop-color="rgb(81.898499%, 57.897949%, 36.499023%)" offset="0.890625"/><stop stop-opacity="1" stop-color="rgb(81.698608%, 57.696533%, 36.497498%)" offset="0.90625"/><stop stop-opacity="1" stop-color="rgb(81.599426%, 57.450867%, 36.300659%)" offset="0.9375"/><stop stop-opacity="1" stop-color="rgb(81.50177%, 57.301331%, 36.102295%)" offset="0.953125"/><stop stop-opacity="1" stop-color="rgb(81.303406%, 57.299805%, 36.099243%)" offset="0.96875"/><stop stop-opacity="1" stop-color="rgb(81.201172%, 57.200623%, 36.000061%)" offset="0.984375"/><stop stop-opacity="1" stop-color="rgb(81.199646%, 57.000732%, 35.800171%)" offset="1"/></linearGradient><clipPath id="a3a2f84aca"><path d="M 226.410156 163.714844 L 288.957031 163.714844 L 288.957031 205.339844 L 226.410156 205.339844 Z M 226.410156 163.714844 " clip-rule="nonzero"/></clipPath><clipPath id="53244e71a6"><path d="M 265.128906 205.339844 L 226.410156 196.417969 L 226.410156 181.554688 C 226.410156 171.703125 234.414062 163.714844 244.28125 163.714844 L 280.023438 163.714844 C 284.957031 163.714844 288.957031 167.710938 288.957031 172.632812 L 288.957031 196.417969 Z M 265.128906 205.339844 " clip-rule="nonzero"/></clipPath><clipPath id="08c92bfa4e"><path d="M 265.128906 205.339844 L 226.410156 196.417969 L 226.410156 181.554688 C 226.410156 171.703125 234.414062 163.714844 244.28125 163.714844 L 280.023438 163.714844 C 284.957031 163.714844 288.957031 167.710938 288.957031 172.632812 L 288.957031 196.417969 L 265.128906 205.339844 " clip-rule="nonzero"/></clipPath><clipPath id="cb2119dbc8"><path d="M 226.492188 161.507812 L 290.4375 163.761719 L 288.878906 207.546875 L 224.929688 205.292969 Z M 226.492188 161.507812 " clip-rule="nonzero"/></clipPath><linearGradient x1="0.374856" gradientTransform="matrix(-5.957143, 167.986596, 168.289286, 5.946428, 260.844208, 99.671238)" y1="0" x2="0.635473" gradientUnits="userSpaceOnUse" y2="0" id="8ba0b634ad"><stop stop-opacity="1" stop-color="rgb(80.799866%, 56.498718%, 35.699463%)" offset="0"/><stop stop-opacity="1" stop-color="rgb(80.799866%, 56.498718%, 35.699463%)" offset="0.125"/><stop stop-opacity="1" stop-color="rgb(80.699158%, 56.39801%, 35.598755%)" offset="0.1875"/><stop stop-opacity="1" stop-color="rgb(80.499268%, 56.19812%, 35.398865%)" offset="0.25"/><stop stop-opacity="1" stop-color="rgb(80.297852%, 55.99823%, 35.299683%)" offset="0.3125"/><stop stop-opacity="1" stop-color="rgb(80.097961%, 55.79834%, 35.298157%)" offset="0.375"/><stop stop-opacity="1" stop-color="rgb(79.998779%, 55.596924%, 35.197449%)" offset="0.4375"/><stop stop-opacity="1" stop-color="rgb(79.997253%, 55.397034%, 34.999084%)" offset="0.5"/><stop stop-opacity="1" stop-color="rgb(79.896545%, 55.197144%, 34.899902%)" offset="0.5625"/><stop stop-opacity="1" stop-color="rgb(79.696655%, 54.995728%, 34.898376%)" offset="0.625"/><stop stop-opacity="1" stop-color="rgb(79.495239%, 54.795837%, 34.796143%)" offset="0.6875"/><stop stop-opacity="1" stop-color="rgb(79.296875%, 54.594421%, 34.596252%)" offset="0.75"/><stop stop-opacity="1" stop-color="rgb(79.199219%, 54.394531%, 34.498596%)" offset="0.8125"/><stop stop-opacity="1" stop-color="rgb(79.196167%, 54.194641%, 34.495544%)" offset="0.875"/><stop stop-opacity="1" stop-color="rgb(79.093933%, 53.993225%, 34.393311%)" offset="0.9375"/><stop stop-opacity="1" stop-color="rgb(78.895569%, 53.796387%, 34.196472%)" offset="1"/></linearGradient><clipPath id="76c7a7f327"><path d="M 86.417969 163.714844 L 148.964844 163.714844 L 148.964844 252.910156 L 86.417969 252.910156 Z M 86.417969 163.714844 " clip-rule="nonzero"/></clipPath><clipPath id="d3a9231ec5"><path d="M 125.136719 252.910156 L 95.351562 252.910156 C 90.417969 252.910156 86.417969 248.914062 86.417969 243.992188 L 86.417969 172.632812 C 86.417969 167.710938 90.417969 163.714844 95.351562 163.714844 L 131.09375 163.714844 C 140.960938 163.714844 148.964844 171.703125 148.964844 181.554688 L 148.964844 229.125 C 148.964844 242.261719 138.296875 252.910156 125.136719 252.910156 Z M 125.136719 252.910156 " clip-rule="nonzero"/></clipPath><clipPath id="2abefbaab6"><path d="M 125.136719 252.910156 L 95.351562 252.910156 C 90.417969 252.910156 86.417969 248.914062 86.417969 243.992188 L 86.417969 172.632812 C 86.417969 167.710938 90.417969 163.714844 95.351562 163.714844 L 131.09375 163.714844 C 140.960938 163.714844 148.964844 171.703125 148.964844 181.554688 L 148.964844 229.125 C 148.964844 242.261719 138.296875 252.910156 125.136719 252.910156 " clip-rule="nonzero"/></clipPath><clipPath id="bec83d139c"><path d="M 152.234375 163.832031 L 86.496094 161.425781 L 83.148438 252.792969 L 148.882812 255.199219 Z M 152.234375 163.832031 " clip-rule="nonzero"/></clipPath><linearGradient x1="0.11591" gradientTransform="matrix(-5.957143, 162.040172, -162.332149, -5.946428, 119.793947, 143.838337)" y1="0" x2="0.679749" gradientUnits="userSpaceOnUse" y2="0" id="cec6f39672"><stop stop-opacity="1" stop-color="rgb(83.099365%, 59.599304%, 37.298584%)" offset="0"/><stop stop-opacity="1" stop-color="rgb(82.998657%, 59.498596%, 37.298584%)" offset="0.015625"/><stop stop-opacity="1" stop-color="rgb(82.798767%, 59.298706%, 37.298584%)" offset="0.03125"/><stop stop-opacity="1" stop-color="rgb(82.699585%, 59.199524%, 37.298584%)" offset="0.0625"/><stop stop-opacity="1" stop-color="rgb(82.699585%, 59.101868%, 37.202454%)" offset="0.078125"/><stop stop-opacity="1" stop-color="rgb(82.699585%, 58.905029%, 37.005615%)" offset="0.09375"/><stop stop-opacity="1" stop-color="rgb(82.550049%, 58.80127%, 36.901855%)" offset="0.125"/><stop stop-opacity="1" stop-color="rgb(82.398987%, 58.699036%, 36.898804%)" offset="0.140625"/><stop stop-opacity="1" stop-color="rgb(82.398987%, 58.499146%, 36.898804%)" offset="0.15625"/><stop stop-opacity="1" stop-color="rgb(82.398987%, 58.399963%, 36.898804%)" offset="0.1875"/><stop stop-opacity="1" stop-color="rgb(82.302856%, 58.302307%, 36.802673%)" offset="0.203125"/><stop stop-opacity="1" stop-color="rgb(82.106018%, 58.105469%, 36.605835%)" offset="0.21875"/><stop stop-opacity="1" stop-color="rgb(82.002258%, 58.001709%, 36.502075%)" offset="0.25"/><stop stop-opacity="1" stop-color="rgb(81.900024%, 57.899475%, 36.499023%)" offset="0.265625"/><stop stop-opacity="1" stop-color="rgb(81.700134%, 57.699585%, 36.499023%)" offset="0.28125"/><stop stop-opacity="1" stop-color="rgb(81.599426%, 57.598877%, 36.303711%)" offset="0.3125"/><stop stop-opacity="1" stop-color="rgb(81.599426%, 57.450867%, 36.103821%)" offset="0.34375"/><stop stop-opacity="1" stop-color="rgb(81.50177%, 57.301331%, 36.099243%)" offset="0.359375"/><stop stop-opacity="1" stop-color="rgb(81.303406%, 57.299805%, 36.099243%)" offset="0.375"/><stop stop-opacity="1" stop-color="rgb(81.201172%, 57.200623%, 36.099243%)" offset="0.390625"/><stop stop-opacity="1" stop-color="rgb(81.199646%, 57.000732%, 36.099243%)" offset="0.40625"/><stop stop-opacity="1" stop-color="rgb(81.199646%, 56.898499%, 35.903931%)" offset="0.4375"/><stop stop-opacity="1" stop-color="rgb(81.103516%, 56.802368%, 35.704041%)" offset="0.453125"/><stop stop-opacity="1" stop-color="rgb(80.906677%, 56.607056%, 35.699463%)" offset="0.46875"/><stop stop-opacity="1" stop-color="rgb(80.802917%, 56.50177%, 35.699463%)" offset="0.5"/><stop stop-opacity="1" stop-color="rgb(80.700684%, 56.399536%, 35.600281%)" offset="0.515625"/><stop stop-opacity="1" stop-color="rgb(80.500793%, 56.201172%, 35.400391%)" offset="0.53125"/><stop stop-opacity="1" stop-color="rgb(80.39856%, 56.098938%, 35.299683%)" offset="0.5625"/><stop stop-opacity="1" stop-color="rgb(80.39856%, 56.002808%, 35.299683%)" offset="0.578125"/><stop stop-opacity="1" stop-color="rgb(80.39856%, 55.807495%, 35.299683%)" offset="0.59375"/><stop stop-opacity="1" stop-color="rgb(80.300903%, 55.702209%, 35.299683%)" offset="0.609375"/><stop stop-opacity="1" stop-color="rgb(80.104065%, 55.699158%, 35.299683%)" offset="0.625"/><stop stop-opacity="1" stop-color="rgb(80.000305%, 55.599976%, 35.2005%)" offset="0.640625"/><stop stop-opacity="1" stop-color="rgb(79.998779%, 55.401611%, 35.00061%)" offset="0.65625"/><stop stop-opacity="1" stop-color="rgb(79.998779%, 55.299377%, 34.899902%)" offset="0.6875"/><stop stop-opacity="1" stop-color="rgb(79.902649%, 55.203247%, 34.899902%)" offset="0.703125"/><stop stop-opacity="1" stop-color="rgb(79.707336%, 55.007935%, 34.899902%)" offset="0.71875"/><stop stop-opacity="1" stop-color="rgb(79.602051%, 54.902649%, 34.899902%)" offset="0.75"/><stop stop-opacity="1" stop-color="rgb(79.499817%, 54.800415%, 34.80072%)" offset="0.765625"/><stop stop-opacity="1" stop-color="rgb(79.301453%, 54.602051%, 34.602356%)" offset="0.78125"/><stop stop-opacity="1" stop-color="rgb(79.199219%, 54.499817%, 34.500122%)" offset="0.8125"/><stop stop-opacity="1" stop-color="rgb(79.199219%, 54.403687%, 34.498596%)" offset="0.828125"/><stop stop-opacity="1" stop-color="rgb(79.199219%, 54.208374%, 34.498596%)" offset="0.84375"/><stop stop-opacity="1" stop-color="rgb(79.101562%, 54.103088%, 34.402466%)" offset="0.859375"/><stop stop-opacity="1" stop-color="rgb(78.904724%, 54.098511%, 34.205627%)" offset="0.875"/><stop stop-opacity="1" stop-color="rgb(78.800964%, 54.000854%, 34.101868%)" offset="0.890625"/><stop stop-opacity="1" stop-color="rgb(78.799438%, 53.80249%, 34.098816%)" offset="0.90625"/><stop stop-opacity="1" stop-color="rgb(78.799438%, 53.700256%, 34.098816%)" offset="0.9375"/><stop stop-opacity="1" stop-color="rgb(78.604126%, 53.503418%, 34.098816%)" offset="0.96875"/><stop stop-opacity="1" stop-color="rgb(78.404236%, 53.303528%, 34.002686%)" offset="0.984375"/><stop stop-opacity="1" stop-color="rgb(78.399658%, 53.29895%, 33.805847%)" offset="1"/></linearGradient><clipPath id="e6508cdaca"><path d="M 98.332031 193.445312 L 125.136719 193.445312 L 125.136719 252.910156 L 98.332031 252.910156 Z M 98.332031 193.445312 " clip-rule="nonzero"/></clipPath><clipPath id="ce0da2acb2"><path d="M 98.332031 193.445312 L 104.289062 252.910156 L 119.179688 252.910156 L 125.136719 193.445312 Z M 98.332031 193.445312 " clip-rule="nonzero"/></clipPath><clipPath id="c563573805"><path d="M 98.332031 193.445312 L 104.289062 252.910156 L 119.179688 252.910156 L 125.136719 193.445312 L 98.332031 193.445312 " clip-rule="nonzero"/></clipPath><clipPath id="f811079d93"><path d="M 129.851562 193.816406 L 98.492188 191.332031 L 93.617188 252.539062 L 124.972656 255.023438 Z M 129.851562 193.816406 " clip-rule="nonzero"/></clipPath><linearGradient x1="-0.731032" gradientTransform="matrix(-5.2125, 65.410711, -65.528578, -5.203125, 108.007738, 240.206142)" y1="0" x2="0.204679" gradientUnits="userSpaceOnUse" y2="0" id="8843ff9e0c"><stop stop-opacity="1" stop-color="rgb(100%, 19.198608%, 19.198608%)" offset="0"/><stop stop-opacity="1" stop-color="rgb(100%, 19.198608%, 19.198608%)" offset="0.5"/><stop stop-opacity="1" stop-color="rgb(100%, 19.198608%, 19.198608%)" offset="0.75"/><stop stop-opacity="1" stop-color="rgb(100%, 19.198608%, 19.198608%)" offset="0.8125"/><stop stop-opacity="1" stop-color="rgb(98.129272%, 23.866272%, 21.282959%)" offset="0.816406"/><stop stop-opacity="1" stop-color="rgb(96.260071%, 28.535461%, 23.368835%)" offset="0.820312"/><stop stop-opacity="1" stop-color="rgb(94.181824%, 33.724976%, 25.686646%)" offset="0.824219"/><stop stop-opacity="1" stop-color="rgb(92.103577%, 38.916016%, 28.004456%)" offset="0.828125"/><stop stop-opacity="1" stop-color="rgb(90.023804%, 44.10553%, 30.322266%)" offset="0.832031"/><stop stop-opacity="1" stop-color="rgb(87.945557%, 49.29657%, 32.640076%)" offset="0.835938"/><stop stop-opacity="1" stop-color="rgb(85.86731%, 54.486084%, 34.957886%)" offset="0.839844"/><stop stop-opacity="1" stop-color="rgb(83.789062%, 59.675598%, 37.275696%)" offset="0.84375"/><stop stop-opacity="1" stop-color="rgb(83.596802%, 59.989929%, 37.437439%)" offset="0.847656"/><stop stop-opacity="1" stop-color="rgb(83.406067%, 60.305786%, 37.599182%)" offset="0.851562"/><stop stop-opacity="1" stop-color="rgb(83.355713%, 60.255432%, 37.599182%)" offset="0.859375"/><stop stop-opacity="1" stop-color="rgb(83.203125%, 60.10437%, 37.599182%)" offset="0.875"/><stop stop-opacity="1" stop-color="rgb(83.100891%, 59.902954%, 37.524414%)" offset="0.890625"/><stop stop-opacity="1" stop-color="rgb(83.099365%, 59.700012%, 37.374878%)" offset="0.90625"/><stop stop-opacity="1" stop-color="rgb(82.904053%, 59.403992%, 37.298584%)" offset="0.9375"/><stop stop-opacity="1" stop-color="rgb(82.704163%, 59.109497%, 37.202454%)" offset="0.953125"/><stop stop-opacity="1" stop-color="rgb(82.699585%, 58.908081%, 37.007141%)" offset="0.96875"/><stop stop-opacity="1" stop-color="rgb(82.626343%, 58.706665%, 36.901855%)" offset="0.984375"/><stop stop-opacity="1" stop-color="rgb(82.476807%, 58.503723%, 36.898804%)" offset="1"/></linearGradient><clipPath id="96d01eb5d9"><path d="M 86.417969 163.714844 L 148.964844 163.714844 L 148.964844 205.339844 L 86.417969 205.339844 Z M 86.417969 163.714844 " clip-rule="nonzero"/></clipPath><clipPath id="13bd4c6eb7"><path d="M 110.246094 205.339844 L 148.964844 196.417969 L 148.964844 181.554688 C 148.964844 171.703125 140.960938 163.714844 131.09375 163.714844 L 95.351562 163.714844 C 90.417969 163.714844 86.417969 167.710938 86.417969 172.632812 L 86.417969 196.417969 Z M 110.246094 205.339844 " clip-rule="nonzero"/></clipPath><clipPath id="42d5dd32db"><path d="M 110.246094 205.339844 L 148.964844 196.417969 L 148.964844 181.554688 C 148.964844 171.703125 140.960938 163.714844 131.09375 163.714844 L 95.351562 163.714844 C 90.417969 163.714844 86.417969 167.710938 86.417969 172.632812 L 86.417969 196.417969 L 110.246094 205.339844 " clip-rule="nonzero"/></clipPath><clipPath id="be2896d833"><path d="M 148.882812 161.507812 L 84.9375 163.761719 L 86.496094 207.546875 L 150.445312 205.292969 Z M 148.882812 161.507812 " clip-rule="nonzero"/></clipPath><linearGradient x1="0.374856" gradientTransform="matrix(5.957143, 167.986596, -168.289286, 5.946428, 114.530809, 99.671238)" y1="0" x2="0.635473" gradientUnits="userSpaceOnUse" y2="0" id="36e10c0ec5"><stop stop-opacity="1" stop-color="rgb(80.799866%, 56.498718%, 35.699463%)" offset="0"/><stop stop-opacity="1" stop-color="rgb(80.799866%, 56.498718%, 35.699463%)" offset="0.125"/><stop stop-opacity="1" stop-color="rgb(80.699158%, 56.39801%, 35.598755%)" offset="0.1875"/><stop stop-opacity="1" stop-color="rgb(80.499268%, 56.19812%, 35.398865%)" offset="0.25"/><stop stop-opacity="1" stop-color="rgb(80.297852%, 55.99823%, 35.299683%)" offset="0.3125"/><stop stop-opacity="1" stop-color="rgb(80.097961%, 55.79834%, 35.298157%)" offset="0.375"/><stop stop-opacity="1" stop-color="rgb(79.998779%, 55.596924%, 35.197449%)" offset="0.4375"/><stop stop-opacity="1" stop-color="rgb(79.997253%, 55.397034%, 34.999084%)" offset="0.5"/><stop stop-opacity="1" stop-color="rgb(79.896545%, 55.197144%, 34.899902%)" offset="0.5625"/><stop stop-opacity="1" stop-color="rgb(79.696655%, 54.995728%, 34.898376%)" offset="0.625"/><stop stop-opacity="1" stop-color="rgb(79.495239%, 54.795837%, 34.796143%)" offset="0.6875"/><stop stop-opacity="1" stop-color="rgb(79.296875%, 54.594421%, 34.596252%)" offset="0.75"/><stop stop-opacity="1" stop-color="rgb(79.199219%, 54.394531%, 34.498596%)" offset="0.8125"/><stop stop-opacity="1" stop-color="rgb(79.196167%, 54.194641%, 34.495544%)" offset="0.875"/><stop stop-opacity="1" stop-color="rgb(79.093933%, 53.993225%, 34.393311%)" offset="0.9375"/><stop stop-opacity="1" stop-color="rgb(78.895569%, 53.796387%, 34.196472%)" offset="1"/></linearGradient><clipPath id="a3b83ce800"><path d="M 259.171875 178.582031 L 271.085938 178.582031 L 271.085938 190.472656 L 259.171875 190.472656 Z M 259.171875 178.582031 " clip-rule="nonzero"/></clipPath><clipPath id="d80cadc7df"><path d="M 259.171875 184.527344 C 259.171875 187.8125 261.835938 190.472656 265.128906 190.472656 C 268.421875 190.472656 271.085938 187.8125 271.085938 184.527344 C 271.085938 181.238281 268.421875 178.582031 265.128906 178.582031 C 261.835938 178.582031 259.171875 181.238281 259.171875 184.527344 Z M 259.171875 184.527344 " clip-rule="nonzero"/></clipPath><clipPath id="f8348199b1"><path d="M 259.171875 184.527344 C 259.171875 187.8125 261.835938 190.472656 265.128906 190.472656 C 268.421875 190.472656 271.085938 187.8125 271.085938 184.527344 C 271.085938 181.238281 268.421875 178.582031 265.128906 178.582031 C 261.835938 178.582031 259.171875 181.238281 259.171875 184.527344 " clip-rule="nonzero"/></clipPath><clipPath id="770e17d1f1"><path d="M 104.289062 178.582031 L 116.203125 178.582031 L 116.203125 190.472656 L 104.289062 190.472656 Z M 104.289062 178.582031 " clip-rule="nonzero"/></clipPath><clipPath id="8289b5da96"><path d="M 116.203125 184.527344 C 116.203125 187.8125 113.539062 190.472656 110.246094 190.472656 C 106.953125 190.472656 104.289062 187.8125 104.289062 184.527344 C 104.289062 181.238281 106.953125 178.582031 110.246094 178.582031 C 113.539062 178.582031 116.203125 181.238281 116.203125 184.527344 Z M 116.203125 184.527344 " clip-rule="nonzero"/></clipPath><clipPath id="d477b5fa3d"><path d="M 116.203125 184.527344 C 116.203125 187.8125 113.539062 190.472656 110.246094 190.472656 C 106.953125 190.472656 104.289062 187.8125 104.289062 184.527344 C 104.289062 181.238281 106.953125 178.582031 110.246094 178.582031 C 113.539062 178.582031 116.203125 181.238281 116.203125 184.527344 " clip-rule="nonzero"/></clipPath><clipPath id="6ae567b609"><path d="M 83.4375 0 L 291.9375 0 L 291.9375 375 L 83.4375 375 Z M 83.4375 0 " clip-rule="nonzero"/></clipPath></defs><g clip-path="url(#d8f02c7eb0)"><g clip-path="url(#f45df8f7b6)"><g clip-path="url(#0e06865169)"><path fill="#ff3131" d="M 262.011719 -1.402344 L 112.488281 3.183594 L 113.363281 31.511719 L 262.886719 26.921875 Z M 262.011719 -1.402344 " fill-opacity="1" fill-rule="nonzero"/></g></g></g><g clip-path="url(#27094be14d)"><g clip-path="url(#bf65066aec)"><g clip-path="url(#7df7dbc1f8)"><g clip-path="url(#8ef15e2706)"><path fill="url(#3803d228d1)" d="M 262.242188 3.160156 L 163.859375 2.785156 L 163.765625 26.945312 L 262.148438 27.324219 Z M 262.242188 3.160156 " fill-rule="nonzero"/></g></g></g></g><g clip-path="url(#2a1a0b297b)"><g clip-path="url(#946021ad3e)"><g clip-path="url(#0fcaf90b6a)"><path fill="#0097b2" d="M 70.859375 28.292969 L 93.117188 383.707031 L 304.933594 370.492188 L 282.6875 15.078125 Z M 70.859375 28.292969 " fill-opacity="1" fill-rule="nonzero"/></g></g></g><g clip-path="url(#4c58850c6f)"><g clip-path="url(#c00727f148)"><g clip-path="url(#1e2e4dc9c5)"><path fill="#ffde59" d="M 248.097656 27.015625 L 250.273438 93.25 L 282.070312 92.21875 L 279.894531 25.984375 Z M 248.097656 27.015625 " fill-opacity="1" fill-rule="nonzero"/></g></g></g><g clip-path="url(#1d5312b99f)"><g clip-path="url(#5a059c914d)"><g clip-path="url(#635c2b2f44)"><path fill="#ffde59" d="M 93.304688 27.015625 L 95.480469 93.25 L 127.277344 92.21875 L 125.101562 25.984375 Z M 93.304688 27.015625 " fill-opacity="1" fill-rule="nonzero"/></g></g></g><g clip-path="url(#240ed220b0)"><g clip-path="url(#28cfa8c70b)"><g clip-path="url(#d339ce9bd0)"><g clip-path="url(#627a36d627)"><path fill="url(#744b0d2390)" d="M 187.761719 25.957031 L 183.542969 86.167969 L 202.507812 87.492188 L 206.726562 27.28125 Z M 187.761719 25.957031 " fill-rule="nonzero"/></g></g></g></g><g clip-path="url(#c6b84e92e4)"><g clip-path="url(#645b9e3cce)"><g clip-path="url(#ec278ddbfd)"><g clip-path="url(#ea814724aa)"><path fill="url(#ac7f02576e)" d="M 223.132812 163.835938 L 288.875 161.425781 L 292.234375 252.789062 L 226.492188 255.199219 Z M 223.132812 163.835938 " fill-rule="nonzero"/></g></g></g></g><g clip-path="url(#d5ef5fa59d)"><g clip-path="url(#78c2a221fc)"><g clip-path="url(#e4130e75ed)"><g clip-path="url(#af085f5910)"><path fill="url(#8d2ff7b7d3)" d="M 245.527344 193.820312 L 276.875 191.332031 L 281.753906 252.535156 L 250.40625 255.027344 Z M 245.527344 193.820312 " fill-rule="nonzero"/></g></g></g></g><g clip-path="url(#a3a2f84aca)"><g clip-path="url(#53244e71a6)"><g clip-path="url(#08c92bfa4e)"><g clip-path="url(#cb2119dbc8)"><path fill="url(#8ba0b634ad)" d="M 226.488281 161.507812 L 290.433594 163.765625 L 288.878906 207.546875 L 224.933594 205.289062 Z M 226.488281 161.507812 " fill-rule="nonzero"/></g></g></g></g><g clip-path="url(#76c7a7f327)"><g clip-path="url(#d3a9231ec5)"><g clip-path="url(#2abefbaab6)"><g clip-path="url(#bec83d139c)"><path fill="url(#cec6f39672)" d="M 152.242188 163.835938 L 86.5 161.425781 L 83.140625 252.789062 L 148.882812 255.199219 Z M 152.242188 163.835938 " fill-rule="nonzero"/></g></g></g></g><g clip-path="url(#e6508cdaca)"><g clip-path="url(#ce0da2acb2)"><g clip-path="url(#c563573805)"><g clip-path="url(#f811079d93)"><path fill="url(#8843ff9e0c)" d="M 129.847656 193.820312 L 98.5 191.332031 L 93.621094 252.535156 L 124.96875 255.027344 Z M 129.847656 193.820312 " fill-rule="nonzero"/></g></g></g></g><g clip-path="url(#96d01eb5d9)"><g clip-path="url(#13bd4c6eb7)"><g clip-path="url(#42d5dd32db)"><g clip-path="url(#be2896d833)"><path fill="url(#36e10c0ec5)" d="M 148.886719 161.507812 L 84.941406 163.765625 L 86.496094 207.546875 L 150.441406 205.289062 Z M 148.886719 161.507812 " fill-rule="nonzero"/></g></g></g></g><g clip-path="url(#a3b83ce800)"><g clip-path="url(#d80cadc7df)"><g clip-path="url(#f8348199b1)"><path fill="#93634d" d="M 257.277344 178.894531 L 270.773438 176.6875 L 272.984375 190.160156 L 259.488281 192.367188 Z M 257.277344 178.894531 " fill-opacity="1" fill-rule="nonzero"/></g></g></g><g clip-path="url(#770e17d1f1)"><g clip-path="url(#8289b5da96)"><g clip-path="url(#d477b5fa3d)"><path fill="#93634d" d="M 118.097656 178.894531 L 104.601562 176.6875 L 102.390625 190.160156 L 115.886719 192.367188 Z M 118.097656 178.894531 " fill-opacity="1" fill-rule="nonzero"/></g></g></g><path fill="#3a322b" d="M 178.75 12.082031 C 177.109375 12.082031 175.773438 13.40625 175.773438 15.054688 C 175.773438 16.691406 177.109375 18.027344 178.75 18.027344 C 180.390625 18.027344 181.730469 16.691406 181.730469 15.054688 C 181.730469 13.40625 180.390625 12.082031 178.75 12.082031 " fill-opacity="1" fill-rule="nonzero"/><g clip-path="url(#6ae567b609)"><path fill="#3a322b" d="M 277.066406 365.542969 C 276.835938 367.53125 273.707031 368.867188 270.925781 368.867188 L 223.429688 368.867188 C 220.476562 368.867188 217.683594 365.996094 217.460938 362.722656 C 209.398438 240.308594 202.953125 168.695312 196.53125 130.277344 C 195.332031 125.503906 193.355469 122.195312 190.667969 120.359375 L 190.667969 113.167969 L 214.496094 113.167969 C 216.136719 113.167969 217.472656 111.835938 217.472656 110.195312 C 217.472656 108.558594 216.136719 107.222656 214.496094 107.222656 L 190.667969 107.222656 L 190.667969 101.277344 L 223.429688 101.277344 C 225.070312 101.277344 226.410156 99.941406 226.410156 98.304688 C 226.410156 96.664062 225.070312 95.332031 223.429688 95.332031 L 190.667969 95.332031 L 190.667969 88.09375 C 191.78125 87.398438 192.863281 86.757812 193.878906 86.179688 C 201.113281 81.996094 205.558594 78.769531 205.558594 65.644531 L 205.558594 29.917969 L 247.316406 29.917969 C 247.957031 58.964844 257.929688 80.453125 276.976562 93.832031 C 276.988281 94.355469 277.042969 94.890625 277.042969 95.421875 L 279.023438 160.742188 L 244.28125 160.742188 C 232.785156 160.742188 223.429688 170.078125 223.429688 181.554688 L 223.429688 229.125 C 223.429688 243.886719 235.460938 255.882812 250.238281 255.882812 L 280.023438 255.882812 C 280.070312 255.882812 280.117188 255.871094 280.164062 255.871094 C 280.011719 289.832031 279.40625 345.730469 277.066406 365.542969 Z M 178.796875 130.519531 C 172.421875 168.695312 165.976562 240.308594 157.914062 362.722656 C 157.691406 365.996094 154.898438 368.867188 151.945312 368.867188 L 104.449219 368.867188 C 101.644531 368.867188 98.515625 367.554688 98.320312 365.589844 C 96.78125 350.226562 95.828125 313.292969 95.492188 255.882812 L 125.136719 255.882812 C 139.914062 255.882812 151.945312 243.886719 151.945312 229.125 L 151.945312 181.554688 C 151.945312 170.078125 142.589844 160.742188 131.09375 160.742188 L 96.339844 160.742188 L 98.332031 95.332031 C 98.332031 94.832031 98.386719 94.332031 98.398438 93.832031 C 117.445312 80.453125 127.417969 58.964844 128.058594 29.917969 L 184.707031 29.917969 L 184.707031 95.332031 L 151.945312 95.332031 C 150.304688 95.332031 148.964844 96.664062 148.964844 98.304688 C 148.964844 99.941406 150.304688 101.277344 151.945312 101.277344 L 184.707031 101.277344 L 184.707031 107.222656 L 160.878906 107.222656 C 159.238281 107.222656 157.902344 108.558594 157.902344 110.195312 C 157.902344 111.835938 159.238281 113.167969 160.878906 113.167969 L 184.707031 113.167969 L 184.707031 120.359375 C 182.019531 122.207031 180.042969 125.550781 178.796875 130.519531 Z M 89.394531 200.71875 L 96.328125 203.308594 L 100.996094 249.9375 L 95.351562 249.9375 C 92.070312 249.9375 89.394531 247.265625 89.394531 243.992188 Z M 127.023438 204.527344 L 145.988281 200.160156 L 145.988281 229.125 C 145.988281 240.601562 136.632812 249.9375 125.136719 249.9375 L 122.472656 249.9375 Z M 106.988281 249.9375 L 102.542969 205.628906 L 109.199219 208.125 C 109.535156 208.242188 109.894531 208.3125 110.246094 208.3125 C 110.464844 208.3125 110.699219 208.289062 110.917969 208.230469 L 120.890625 205.941406 L 116.480469 249.9375 Z M 95.351562 166.6875 L 131.09375 166.6875 C 139.308594 166.6875 145.988281 173.355469 145.988281 181.554688 L 145.988281 194.050781 L 110.453125 202.238281 L 89.394531 194.351562 L 89.394531 172.632812 C 89.394531 169.359375 92.070312 166.6875 95.351562 166.6875 Z M 109.277344 48.839844 C 111.546875 42.289062 113.6875 36.074219 115.457031 29.917969 L 122.101562 29.917969 C 121.519531 54.703125 113.78125 73.472656 99.050781 85.828125 C 100.691406 73.691406 105.019531 61.105469 109.277344 48.839844 Z M 116.203125 9.105469 C 116.203125 7.46875 117.539062 6.132812 119.179688 6.132812 L 131.09375 6.132812 L 131.09375 23.972656 L 116.203125 23.972656 Z M 164.730469 23.101562 L 165.605469 23.972656 L 137.050781 23.972656 L 137.050781 6.132812 L 165.617188 6.132812 L 164.894531 6.855469 C 162.347656 9.039062 160.914062 11.894531 160.878906 14.878906 C 160.84375 17.933594 162.253906 20.882812 164.730469 23.101562 Z M 190.667969 29.917969 L 199.601562 29.917969 L 199.601562 65.644531 C 199.601562 76.003906 196.878906 77.582031 190.898438 81.035156 C 190.816406 81.066406 190.734375 81.113281 190.667969 81.160156 Z M 174.027344 23.972656 L 168.828125 18.792969 C 167.511719 17.609375 166.824219 16.273438 166.835938 14.949219 C 166.847656 13.683594 167.523438 12.441406 168.945312 11.210938 L 174.027344 6.132812 L 238.324219 6.132812 L 238.324219 23.972656 Z M 259.171875 9.105469 L 259.171875 23.972656 L 244.28125 23.972656 L 244.28125 6.132812 L 256.195312 6.132812 C 257.835938 6.132812 259.171875 7.46875 259.171875 9.105469 Z M 276.324219 85.828125 C 261.582031 73.460938 253.855469 54.703125 253.273438 29.917969 L 259.917969 29.917969 C 261.6875 36.074219 263.828125 42.289062 266.097656 48.839844 C 270.355469 61.082031 274.671875 73.660156 276.324219 85.828125 Z M 285.980469 194.351562 L 264.921875 202.238281 L 229.386719 194.050781 L 229.386719 181.554688 C 229.386719 173.355469 236.066406 166.6875 244.28125 166.6875 L 280.023438 166.6875 C 283.304688 166.6875 285.980469 169.359375 285.980469 172.632812 Z M 229.386719 200.160156 L 248.351562 204.527344 L 252.902344 249.9375 L 250.238281 249.9375 C 238.742188 249.9375 229.386719 240.601562 229.386719 229.125 Z M 258.894531 249.9375 L 254.484375 205.941406 L 264.457031 208.230469 C 264.675781 208.289062 264.910156 208.3125 265.128906 208.3125 C 265.480469 208.3125 265.839844 208.242188 266.175781 208.125 L 272.832031 205.628906 L 268.386719 249.9375 Z M 280.023438 249.9375 L 274.378906 249.9375 L 279.046875 203.308594 L 285.980469 200.71875 L 285.980469 243.992188 C 285.980469 247.265625 283.304688 249.9375 280.023438 249.9375 Z M 285.027344 161.878906 L 283 95.332031 C 283 94.132812 282.910156 92.925781 282.851562 91.71875 C 282.851562 91.71875 282.851562 91.707031 282.851562 91.707031 C 282.082031 76.863281 276.847656 61.648438 271.726562 46.886719 C 269.261719 39.792969 266.945312 33.089844 265.128906 26.527344 L 265.128906 9.105469 C 265.128906 4.195312 261.128906 0.1875 256.195312 0.1875 L 119.179688 0.1875 C 114.246094 0.1875 110.246094 4.195312 110.246094 9.105469 L 110.246094 26.527344 C 108.429688 33.089844 106.113281 39.792969 103.648438 46.886719 C 98.109375 62.84375 92.375 79.347656 92.375 95.238281 L 90.347656 161.878906 C 86.277344 163.773438 83.4375 167.859375 83.4375 172.632812 L 83.4375 243.992188 C 83.4375 248.425781 85.914062 252.261719 89.523438 254.304688 C 89.859375 312.828125 90.8125 350.492188 92.386719 366.195312 C 92.953125 371.851562 98.890625 374.8125 104.449219 374.8125 L 151.945312 374.8125 C 158.089844 374.8125 163.429688 369.5625 163.847656 363.117188 C 171.910156 240.914062 178.320312 169.476562 184.617188 131.742188 C 185.359375 128.789062 186.429688 126.652344 187.6875 125.539062 C 188.945312 126.640625 190.003906 128.734375 190.710938 131.496094 C 197.054688 169.476562 203.464844 240.914062 211.527344 363.117188 C 211.945312 369.5625 217.285156 374.8125 223.429688 374.8125 L 270.925781 374.8125 C 276.40625 374.8125 282.316406 371.875 282.980469 366.242188 C 285.398438 345.789062 285.992188 288.042969 286.121094 254.152344 C 289.585938 252.074219 291.9375 248.3125 291.9375 243.992188 L 291.9375 172.632812 C 291.9375 167.859375 289.085938 163.773438 285.027344 161.878906 " fill-opacity="1" fill-rule="nonzero"/></g><path fill="#3a322b" d="M 265.128906 187.5 C 263.488281 187.5 262.152344 186.164062 262.152344 184.527344 C 262.152344 182.890625 263.488281 181.554688 265.128906 181.554688 C 266.769531 181.554688 268.109375 182.890625 268.109375 184.527344 C 268.109375 186.164062 266.769531 187.5 265.128906 187.5 Z M 265.128906 175.605469 C 260.195312 175.605469 256.195312 179.601562 256.195312 184.527344 C 256.195312 189.449219 260.195312 193.445312 265.128906 193.445312 C 270.0625 193.445312 274.066406 189.449219 274.066406 184.527344 C 274.066406 179.601562 270.0625 175.605469 265.128906 175.605469 " fill-opacity="1" fill-rule="nonzero"/><path fill="#3a322b" d="M 110.246094 181.554688 C 111.886719 181.554688 113.222656 182.890625 113.222656 184.527344 C 113.222656 186.164062 111.886719 187.5 110.246094 187.5 C 108.605469 187.5 107.265625 186.164062 107.265625 184.527344 C 107.265625 182.890625 108.605469 181.554688 110.246094 181.554688 Z M 110.246094 193.445312 C 115.179688 193.445312 119.179688 189.449219 119.179688 184.527344 C 119.179688 179.601562 115.179688 175.605469 110.246094 175.605469 C 105.3125 175.605469 101.308594 179.601562 101.308594 184.527344 C 101.308594 189.449219 105.3125 193.445312 110.246094 193.445312 " fill-opacity="1" fill-rule="nonzero"/></svg>