<svg xmlns="http://www.w3.org/2000/svg" xmlns:xlink="http://www.w3.org/1999/xlink" width="500" zoomAndPan="magnify" viewBox="0 0 375 374.999991" height="500" preserveAspectRatio="xMidYMid meet" version="1.0"><defs><clipPath id="2f4c4ed7bf"><path d="M 7 69 L 369 69 L 369 305.90625 L 7 305.90625 Z M 7 69 " clip-rule="nonzero"/></clipPath></defs><path fill="#c56528" d="M 279.738281 82.628906 C 277.828125 78.402344 274.179688 74.734375 269.625 73.84375 C 265.257812 72.988281 260.769531 74.753906 257.039062 77.179688 C 253.582031 79.421875 250.503906 82.257812 247.992188 85.519531 L 279.808594 99.195312 C 282.101562 93.996094 282.082031 87.8125 279.738281 82.628906 Z M 279.738281 82.628906 " fill-opacity="1" fill-rule="nonzero"/><path fill="#73a1b2" d="M 103.601562 209.851562 C 103.601562 209.851562 113.246094 127.175781 179.695312 86.410156 C 212.019531 84.890625 236.019531 80.386719 270.121094 95.851562 C 304.21875 111.316406 337.820312 134.820312 337.820312 134.820312 C 337.820312 134.820312 363.351562 184.085938 364.921875 221.402344 C 366.492188 258.71875 350.933594 278.191406 350.933594 278.191406 C 350.933594 278.191406 289.648438 251.554688 246.164062 245.132812 C 224.414062 235.75 161.445312 208.058594 147.300781 206.722656 C 133.152344 205.386719 103.601562 209.851562 103.601562 209.851562 Z M 103.601562 209.851562 " fill-opacity="1" fill-rule="nonzero"/><path fill="#c56528" d="M 59.949219 220.148438 C 59.949219 220.148438 115.269531 202.085938 142.652344 205.921875 C 170.035156 209.753906 215.457031 234.691406 235.277344 241.222656 C 255.097656 247.75 290.304688 256.347656 290.304688 256.347656 C 290.304688 256.347656 256.691406 300.613281 205.296875 302.101562 C 153.902344 303.589844 110.851562 246.550781 104.695312 241.816406 C 98.539062 237.085938 76.042969 219.347656 59.949219 220.148438 Z M 59.949219 220.148438 " fill-opacity="1" fill-rule="nonzero"/><path fill="#513620" d="M 56.992188 221.484375 C 24.746094 226.550781 21.453125 234.691406 14.203125 245.765625 C 6.949219 256.839844 10.789062 271.4375 25.84375 276.320312 C 40.898438 281.203125 64.730469 275.632812 77.636719 270.847656 C 90.546875 266.0625 107.964844 257.53125 111.335938 251.757812 C 114.691406 245.96875 76.363281 217.078125 56.992188 221.484375 Z M 56.992188 221.484375 " fill-opacity="1" fill-rule="nonzero"/><g clip-path="url(#2f4c4ed7bf)"><path fill="#010101" d="M 361.386719 183.542969 C 358.070312 172.386719 354.316406 161.175781 350.253906 150.203125 C 347.828125 143.660156 345.261719 137.363281 340.597656 132.277344 C 334.886719 126.058594 327.238281 122.925781 319.839844 119.882812 C 317.257812 118.828125 314.683594 117.777344 312.203125 116.585938 C 305.699219 113.453125 299.816406 109.339844 293.601562 104.976562 C 290.472656 102.789062 287.261719 100.585938 283.96875 98.472656 C 285.8125 92.816406 285.628906 86.492188 283.183594 81.082031 C 280.570312 75.277344 275.78125 71.1875 270.355469 70.144531 C 265.667969 69.222656 260.324219 70.550781 254.984375 74.015625 C 251.140625 76.515625 247.777344 79.609375 245 83.222656 C 244.78125 83.511719 244.667969 83.835938 244.546875 84.152344 C 236.5 82.878906 228.367188 82.160156 220.402344 81.609375 C 205.523438 80.574219 191.035156 80.0625 177.476562 85.050781 C 164.847656 89.683594 153.328125 98.960938 141.195312 114.222656 C 119.910156 141.03125 105.671875 173.011719 99.988281 206.757812 C 91.183594 208.628906 81.890625 210.917969 72.863281 213.136719 C 65.265625 215 57.574219 216.835938 50.074219 218.503906 C 48.042969 218.835938 46.054688 219.304688 44.070312 219.832031 C 43.539062 219.945312 42.964844 220.089844 42.4375 220.195312 C 42.242188 220.230469 42.089844 220.351562 41.910156 220.421875 C 32.875 223.183594 24.453125 227.945312 17.746094 234.730469 C 10.085938 242.476562 3.285156 255.652344 9.328125 267.316406 C 11.164062 270.839844 14.105469 273.941406 18.0625 276.53125 C 29.980469 284.296875 46.019531 284.832031 67.132812 278.121094 L 71.359375 276.792969 C 86.089844 272.191406 101.273438 267.449219 112.121094 256.46875 C 112.945312 257.417969 113.78125 258.371094 114.621094 259.320312 C 122.582031 268.417969 130.824219 277.820312 140.832031 284.976562 C 150.949219 292.207031 163.34375 297.574219 179.863281 301.867188 C 186.925781 303.695312 196.277344 305.800781 206.050781 305.859375 C 206.203125 305.859375 206.339844 305.859375 206.488281 305.859375 C 222.671875 305.859375 240.007812 300.277344 258.015625 289.253906 C 270.855469 281.382812 282.609375 271.84375 292.933594 260.898438 C 307.054688 264.515625 320.476562 268.808594 332.863281 275.964844 L 334.042969 276.660156 C 337.246094 278.53125 340.554688 280.460938 344.550781 281.21875 C 346.082031 281.503906 347.457031 281.632812 348.695312 281.632812 C 354.308594 281.632812 357.097656 279.019531 358.480469 276.566406 C 358.863281 275.886719 359.023438 275.109375 358.949219 274.332031 C 358.191406 266.96875 360.617188 260.074219 363.183594 252.785156 C 364.507812 249.042969 365.859375 245.175781 366.847656 241.09375 C 371.449219 222.042969 366.9375 202.167969 361.386719 183.542969 Z M 308.933594 123.394531 C 311.546875 124.648438 314.257812 125.757812 316.972656 126.875 C 322.441406 129.105469 327.621094 131.289062 331.820312 134.535156 L 339.496094 178.175781 C 342.746094 196.652344 346.792969 219.65625 338.96875 238.941406 C 335.605469 247.207031 330.113281 254.71875 324.804688 261.976562 C 324.507812 262.378906 324.320312 262.824219 324.207031 263.277344 C 309.46875 256.921875 293.699219 253.207031 278.324219 249.613281 C 273.605469 248.511719 268.816406 247.359375 264.042969 246.15625 C 273.25 224.238281 282.941406 198.34375 285.871094 171.457031 C 288.675781 145.789062 284.753906 121.460938 274.796875 101.867188 C 279.707031 104.628906 284.398438 107.761719 289.265625 111.167969 C 295.464844 115.507812 301.871094 119.996094 308.933594 123.394531 Z M 259.085938 80.347656 C 261.640625 78.695312 265.410156 76.855469 268.90625 77.554688 C 271.882812 78.128906 274.714844 80.671875 276.300781 84.191406 C 277.757812 87.421875 278.09375 91.140625 277.328125 94.613281 C 276.613281 94.222656 275.945312 93.753906 275.222656 93.382812 C 268.144531 89.8125 260.613281 87.4375 252.898438 85.730469 C 254.75 83.707031 256.769531 81.851562 259.085938 80.347656 Z M 147.109375 118.910156 C 158.335938 104.78125 168.8125 96.273438 180.082031 92.125 C 192.222656 87.664062 205.824219 88.167969 219.882812 89.132812 C 235.058594 90.175781 249.820312 91.640625 263.316406 96.53125 C 263.398438 97 263.574219 97.460938 263.84375 97.890625 C 276.226562 117.203125 281.378906 143.03125 278.363281 170.636719 C 275.492188 196.929688 265.808594 222.546875 256.691406 244.148438 C 252.289062 242.941406 247.878906 241.734375 243.617188 240.269531 C 231.515625 236.097656 219.65625 230.457031 208.191406 225.007812 C 201.65625 221.898438 195.121094 218.789062 188.480469 215.90625 C 174.644531 209.898438 154.210938 202.164062 132.773438 202.164062 C 131.253906 202.164062 129.738281 202.207031 128.210938 202.289062 C 121.335938 202.652344 114.5625 203.835938 107.953125 205.144531 C 113.722656 173.699219 127.222656 143.953125 147.109375 118.910156 Z M 128.601562 209.808594 C 145.152344 208.992188 162.722656 212.949219 185.46875 222.828125 C 192.023438 225.671875 198.492188 228.746094 204.941406 231.816406 C 216.597656 237.355469 228.652344 243.085938 241.152344 247.394531 C 246.683594 249.296875 252.332031 250.929688 258.007812 252.421875 C 247.0625 264.96875 234.816406 277.8125 218.242188 281.910156 C 196.503906 287.285156 174.757812 275.796875 158.34375 262.574219 C 146.890625 253.34375 136.925781 242.4375 125.953125 232.671875 C 119.046875 226.535156 112.316406 219.121094 104.710938 213.484375 C 104.832031 213.460938 104.960938 213.421875 105.082031 213.402344 C 112.792969 211.847656 120.769531 210.222656 128.601562 209.808594 Z M 69.109375 269.585938 L 64.851562 270.929688 C 46.035156 276.914062 32.097656 276.667969 22.203125 270.207031 C 19.339844 268.339844 17.269531 266.199219 16.050781 263.84375 C 12.132812 256.292969 16.792969 246.445312 23.128906 240.035156 C 29.089844 234.019531 36.742188 229.726562 44.984375 227.363281 C 46.917969 226.964844 48.949219 226.488281 50.929688 226.042969 C 53.917969 225.539062 56.949219 225.234375 59.976562 225.234375 C 66.609375 225.234375 73.203125 226.472656 79.238281 229.0625 C 90.15625 233.726562 98.75 241.734375 107.082031 250.832031 C 97.480469 260.71875 83.070312 265.222656 69.109375 269.585938 Z M 254.0625 282.816406 C 237.097656 293.195312 221.195312 298.675781 206.089844 298.320312 C 197.144531 298.269531 188.390625 296.28125 181.757812 294.570312 C 166.167969 290.507812 154.550781 285.519531 145.222656 278.847656 C 135.921875 272.199219 127.976562 263.125 120.292969 254.355469 C 118.558594 252.363281 116.804688 250.371094 115.03125 248.382812 C 114.984375 248.324219 114.929688 248.265625 114.871094 248.210938 C 105.511719 237.765625 95.414062 227.785156 82.199219 222.125 C 80.246094 221.289062 78.203125 220.699219 76.171875 220.101562 C 82.199219 218.625 88.242188 217.191406 94.234375 215.816406 C 110.769531 224.546875 125.5 242.746094 138.929688 255.335938 C 151.703125 267.316406 165.132812 278.945312 181.628906 285.496094 C 217.421875 299.710938 243.359375 280.515625 266.171875 254.492188 C 269.667969 255.335938 273.160156 256.167969 276.613281 256.964844 C 279.210938 257.578125 281.792969 258.179688 284.363281 258.785156 C 275.238281 267.941406 265.097656 276.0625 254.0625 282.816406 Z M 359.492188 239.320312 C 358.601562 243.027344 357.300781 246.710938 356.046875 250.273438 C 353.476562 257.570312 350.835938 265.101562 351.296875 273.488281 C 349.996094 274.363281 347.472656 274.085938 345.941406 273.796875 C 343.242188 273.292969 340.628906 271.761719 337.863281 270.144531 L 336.640625 269.433594 C 334.769531 268.347656 332.847656 267.359375 330.921875 266.394531 C 336.496094 258.769531 342.269531 250.898438 345.960938 241.773438 C 354.613281 220.480469 350.359375 196.296875 346.9375 176.855469 L 342.320312 150.601562 C 342.609375 151.34375 342.894531 152.066406 343.175781 152.824219 C 347.179688 163.636719 350.878906 174.695312 354.144531 185.683594 C 359.402344 203.316406 363.683594 222.003906 359.492188 239.320312 Z M 359.492188 239.320312 " fill-opacity="1" fill-rule="nonzero"/></g><path fill="#010101" d="M 182.371094 127.324219 C 172.664062 139.710938 166.371094 153.269531 163.214844 168.460938 C 159.164062 165.101562 156.363281 160.726562 154.105469 155.945312 C 158.230469 146.113281 163.394531 136.820312 170.632812 129.085938 C 173.328125 126.527344 176.039062 123.980469 178.917969 121.566406 C 182.160156 118.84375 177.769531 113.039062 174.339844 115.640625 C 174.078125 115.839844 173.867188 116.070312 173.609375 116.277344 C 173.601562 116.261719 173.585938 116.246094 173.578125 116.230469 C 172.972656 116.738281 172.4375 117.289062 171.847656 117.800781 C 170.035156 119.316406 168.261719 120.871094 166.644531 122.527344 C 163.449219 125.5 160.359375 128.601562 157.375 131.808594 C 155.539062 127.167969 153.371094 122.230469 148.785156 120.84375 C 147.078125 120.328125 145.480469 121.21875 144.519531 122.578125 C 144.351562 122.8125 144.1875 123.046875 144.027344 123.28125 C 142.035156 126.109375 144.769531 128.773438 147.511719 128.707031 C 149.453125 130.933594 152.082031 138.828125 152.890625 140.519531 C 152.957031 140.664062 153.117188 140.738281 153.207031 140.867188 C 152.171875 142.722656 151.203125 144.625 150.269531 146.542969 C 148.6875 142.21875 147.1875 137.871094 145.351562 133.863281 C 144.210938 131.371094 139.988281 131.417969 138.832031 133.863281 C 132.636719 146.941406 126.441406 160.015625 120.25 173.09375 C 118.179688 177.464844 124.691406 181.300781 126.769531 176.90625 C 131.796875 166.28125 136.828125 155.660156 141.859375 145.03125 C 143.265625 148.6875 144.617188 152.347656 146.089844 155.902344 C 143.5 162.292969 141.195312 168.855469 139.019531 175.441406 C 137.496094 180.0625 144.785156 182.046875 146.300781 177.449219 C 147.660156 173.328125 149.082031 169.179688 150.578125 165.042969 C 153.703125 170.226562 157.761719 174.757812 163.804688 177.980469 C 165.730469 179.003906 168.964844 178.25 169.347656 175.722656 C 171.78125 159.789062 177.742188 145.394531 187.710938 132.667969 C 190.671875 128.878906 185.363281 123.507812 182.371094 127.324219 Z M 182.371094 127.324219 " fill-opacity="1" fill-rule="nonzero"/></svg>