<svg xmlns="http://www.w3.org/2000/svg" xmlns:xlink="http://www.w3.org/1999/xlink" width="500" zoomAndPan="magnify" viewBox="0 0 375 374.999991" height="500" preserveAspectRatio="xMidYMid meet" version="1.0"><defs><clipPath id="9069ed68d6"><path d="M 17.34375 0 L 357.84375 0 L 357.84375 375 L 17.34375 375 Z M 17.34375 0 " clip-rule="nonzero"/></clipPath></defs><path fill="#ff7f00" d="M 149.078125 2.144531 C 148.921875 2.136719 148.761719 2.144531 148.585938 2.15625 C 148.578125 2.15625 148.566406 2.15625 148.558594 2.15625 C 148.425781 2.15625 148.273438 2.183594 148.109375 2.214844 C 148.09375 2.21875 148.070312 2.210938 148.050781 2.214844 C 145.996094 2.546875 142.925781 4.039062 137.742188 7.121094 C 127.992188 12.917969 97.417969 23.851562 82.539062 26.867188 C 73.941406 28.609375 68.433594 30.890625 63.890625 34.578125 C 60.425781 37.394531 55.195312 45.085938 52.886719 50.761719 C 50.519531 56.582031 47.441406 67.390625 47.441406 69.878906 C 47.441406 71.253906 46.457031 73.375 44.882812 75.441406 C 42.21875 78.933594 40.703125 83.203125 40.699219 87.226562 C 40.691406 88.53125 40.21875 89.996094 39.640625 90.484375 C 37.351562 92.402344 36.109375 96.707031 35.796875 103.789062 C 35.550781 109.480469 34.867188 112.835938 32.488281 120.246094 C 25.816406 141.078125 21.191406 159.117188 20.085938 168.585938 C 19.929688 169.933594 19.679688 173.464844 19.464844 177.378906 C 19.457031 177.550781 19.441406 177.703125 19.433594 177.875 C 19.324219 179.589844 19.214844 181.292969 19.160156 182.855469 C 19.097656 184.660156 19.066406 186.070312 19.046875 187.265625 C 19 189.992188 19.082031 191.382812 19.390625 192.1875 C 19.394531 192.207031 19.398438 192.230469 19.40625 192.246094 C 19.902344 193.933594 20.953125 194.339844 22.945312 194.757812 C 24.257812 195.035156 27.179688 196.050781 29.445312 197.007812 C 33.65625 198.789062 41.402344 201.226562 47.441406 202.6875 C 49.292969 203.136719 56.03125 203.707031 62.417969 203.945312 C 73.28125 204.351562 74.164062 204.496094 75.9375 206.164062 C 76.980469 207.148438 78.957031 208.355469 80.324219 208.835938 C 81.0625 209.097656 81.582031 209.28125 81.933594 209.507812 C 81.9375 209.511719 81.941406 209.519531 81.945312 209.523438 C 82.160156 209.691406 82.320312 209.894531 82.453125 210.121094 C 82.644531 210.628906 82.546875 211.382812 82.335938 212.722656 C 82.074219 214.378906 81.15625 217.65625 80.296875 220.007812 C 79.441406 222.359375 78.425781 226.328125 78.03125 228.832031 C 77.238281 233.816406 77.753906 243.925781 79.027344 248.238281 C 79.699219 250.503906 79.578125 251.695312 78.351562 255.058594 C 74.417969 265.828125 74.59375 273.148438 78.984375 282.53125 C 81.558594 288.03125 81.667969 290.023438 79.664062 294.753906 C 77.972656 298.742188 77.699219 305.011719 79.101562 307.503906 C 79.734375 308.632812 80.175781 315.171875 80.488281 328.09375 C 80.875 344.085938 81.195312 348.148438 82.621094 354.132812 C 83.972656 359.800781 84.480469 362.234375 87.003906 363.1875 C 87.015625 363.195312 87.03125 363.199219 87.046875 363.203125 C 87.757812 363.5625 88.613281 363.703125 89.671875 363.683594 C 91.648438 363.820312 94.328125 363.699219 98.152344 363.554688 C 111.742188 363.03125 118.941406 363.933594 132.671875 367.847656 C 143.046875 370.808594 147.871094 371.839844 156.851562 373.0625 C 157.695312 373.175781 159.257812 373.292969 161.199219 373.398438 C 161.671875 373.5 162.007812 373.601562 162.0625 373.660156 C 162.308594 373.90625 167.332031 373.917969 173.820312 373.804688 C 173.875 373.808594 173.933594 373.804688 173.996094 373.804688 C 175.148438 373.824219 176.308594 373.828125 177.457031 373.835938 C 204.234375 374.023438 215.777344 371.75 241.15625 361.277344 C 260.90625 353.121094 267.726562 351.058594 279.128906 349.769531 C 282.4375 349.394531 285.484375 348.757812 285.886719 348.351562 C 289.199219 345.003906 288.34375 315.003906 284.6875 306.160156 C 283.640625 303.628906 283.703125 303.191406 285.710938 298.257812 C 289.472656 289.039062 290.53125 284.523438 290.523438 277.710938 C 290.515625 272.484375 290.195312 270.632812 288.808594 267.910156 C 286.910156 264.210938 286.929688 263.351562 289.207031 251.570312 C 290.207031 246.40625 290.546875 240.746094 290.578125 228.304688 L 290.625 211.917969 L 291.347656 211.875 L 295.21875 211.875 C 300.6875 211.875 304.660156 210.359375 308.234375 206.894531 C 310.558594 204.636719 311.792969 204.164062 319.21875 202.746094 C 334.03125 199.921875 351.886719 193.792969 354.925781 190.496094 C 355.292969 190.09375 355.570312 189.761719 355.75 189.371094 C 355.753906 189.359375 355.757812 189.351562 355.761719 189.339844 C 356.054688 188.894531 356.195312 188.445312 356.195312 187.996094 C 356.195312 187.636719 356.035156 186.757812 355.777344 185.585938 C 355.578125 184.316406 355.257812 182.660156 354.796875 180.328125 C 353.429688 173.394531 343.144531 139.097656 337.769531 123.503906 C 335.480469 116.882812 335.214844 115.339844 335.632812 111.339844 C 336.203125 105.804688 335.203125 101.652344 332.339844 97.65625 C 330.683594 95.347656 330.109375 93.503906 329.726562 89.390625 C 328.8125 79.609375 323.050781 56.757812 319.929688 50.542969 C 314.21875 39.179688 305.695312 33.949219 276.152344 23.714844 C 254.976562 16.375 246.449219 12.824219 240.621094 8.875 C 237.621094 6.84375 234.5625 4.945312 233.820312 4.671875 C 233.046875 4.382812 230.640625 4.941406 228.203125 5.96875 C 219.78125 9.519531 205.628906 11.675781 190.574219 11.710938 C 174.488281 11.746094 165.703125 9.722656 150.335938 2.449219 C 149.964844 2.273438 149.550781 2.167969 149.078125 2.144531 Z M 149.078125 2.144531 " fill-opacity="1" fill-rule="nonzero"/><path fill="#000000" d="M 146.785156 0 C 145.253906 -0.0078125 138.863281 3.378906 135.851562 5.796875 C 134.148438 7.167969 116.304688 14.015625 104.042969 18.007812 C 90.175781 22.519531 86.199219 23.621094 78.761719 25.039062 C 67.125 27.261719 60.492188 32.402344 55.125 43.34375 C 53.605469 46.445312 51.800781 51.40625 51.121094 54.378906 C 50.441406 57.347656 49.5625 60.117188 49.171875 60.519531 C 48.777344 60.921875 48.460938 62.683594 48.460938 64.445312 C 48.460938 67.519531 48.136719 68.179688 43.480469 74.527344 C 42.828125 75.421875 42.015625 78.445312 41.679688 81.265625 C 41.234375 84.980469 40.589844 86.914062 39.300781 88.296875 C 37.808594 89.894531 37.40625 91.476562 36.820312 98.140625 C 36.058594 106.742188 35.699219 108.222656 30.464844 124.980469 C 26.4375 137.878906 23.136719 150.597656 20.9375 161.621094 C 19.253906 170.039062 17.863281 182.46875 18.378906 184.503906 C 18.558594 185.210938 20.144531 186.316406 21.894531 186.957031 C 23.648438 187.601562 27.015625 188.832031 29.371094 189.695312 C 42.574219 194.527344 46.800781 195.347656 60.175781 195.65625 L 73.046875 195.957031 L 75.734375 198.660156 C 78.078125 201.023438 78.890625 201.367188 82.21875 201.367188 C 84.316406 201.367188 86.03125 201.613281 86.03125 201.933594 C 86.03125 203.492188 81.933594 218.917969 81.070312 220.625 C 79.507812 223.710938 78.949219 233.496094 79.976562 239.554688 C 81.351562 247.675781 81.175781 250.445312 78.777344 258.4375 C 76.238281 266.910156 76.484375 269.707031 80.609375 279.167969 C 83.359375 285.46875 83.523438 288.582031 81.421875 293.949219 C 79.671875 298.417969 79.457031 302.546875 80.847656 304.996094 C 81.5 306.144531 81.949219 312.6875 82.265625 325.574219 C 82.734375 344.679688 84.113281 355.515625 86.34375 357.828125 C 87.085938 358.597656 88.359375 358.667969 91.839844 358.113281 C 96.957031 357.292969 114.089844 358.179688 120.132812 359.585938 C 122.242188 360.074219 128.117188 361.636719 133.179688 363.046875 C 142.394531 365.617188 155.78125 368.464844 161.53125 369.070312 C 163.21875 369.25 172.027344 369.304688 181.09375 369.191406 C 194.445312 369.023438 199.097656 368.65625 205.617188 367.300781 C 219.25 364.464844 226.078125 362.285156 240.929688 355.984375 C 257.273438 349.054688 269.242188 345.386719 278.664062 344.417969 C 282.519531 344.019531 284.058594 343.523438 284.605469 342.5 C 285.582031 340.660156 285.542969 324.152344 284.542969 316.566406 C 284.109375 313.246094 283.023438 308.398438 282.136719 305.800781 L 280.527344 301.085938 L 283.347656 294.453125 C 288.800781 281.679688 289.597656 271.59375 285.609375 265.679688 C 284.121094 263.476562 283.785156 262.269531 284.175781 260.445312 C 288.695312 239.269531 289.410156 221.496094 286.390625 205.308594 L 285.902344 202.703125 L 291.179688 203.300781 C 300.707031 204.382812 304.769531 203.296875 309.378906 198.40625 C 311.035156 196.652344 312.539062 195.941406 315.511719 195.539062 C 324.882812 194.261719 337.207031 191.042969 347.054688 187.285156 C 356.207031 183.792969 356.042969 184.085938 353.585938 175.925781 C 352.753906 173.152344 351 167.058594 349.699219 162.394531 C 346.5625 151.136719 342.039062 136.449219 337.347656 122.332031 C 333.914062 112 333.574219 110.359375 334.023438 106.4375 C 334.667969 100.871094 333.492188 96.464844 330.699219 93.960938 C 328.683594 92.152344 328.46875 91.449219 327.996094 84.773438 C 327.511719 77.933594 324.542969 63.996094 322.898438 60.90625 C 322.484375 60.128906 322.144531 58.625 322.144531 57.558594 C 322.144531 56.496094 321.21875 53.121094 320.09375 50.066406 C 316.988281 41.640625 311.136719 35.71875 301.105469 30.839844 C 296.859375 28.773438 288.730469 25.484375 283.039062 23.523438 C 252.121094 12.851562 245.9375 10.308594 238.183594 5.128906 C 234.558594 2.707031 233.453125 2.308594 232.140625 2.941406 C 225.226562 6.28125 205.390625 9.246094 189.957031 9.246094 C 174.5 9.246094 163.660156 7.097656 152.339844 1.796875 C 150.234375 0.808594 147.726562 0.00390625 146.785156 0 Z M 145.75 3.078125 C 146.195312 3.078125 147.25 4.429688 148.085938 6.082031 C 150.847656 11.53125 159.011719 21.679688 163.878906 25.722656 C 173.417969 33.640625 184.554688 37.398438 193.121094 35.570312 C 202.371094 33.59375 210.414062 29.464844 218.515625 22.542969 C 222.523438 19.121094 230.09375 10.671875 232.523438 6.929688 L 233.765625 5.039062 L 236.941406 7.152344 C 238.6875 8.316406 240.117188 9.621094 240.117188 10.050781 C 240.117188 11.886719 235.304688 20.179688 231.339844 25.1875 C 223.21875 35.453125 212.613281 41.691406 198.71875 44.386719 C 181.867188 47.652344 166.21875 42.664062 152.828125 29.738281 C 145.652344 22.8125 138.15625 11.804688 138.15625 8.191406 C 138.15625 7.105469 144.140625 3.078125 145.75 3.078125 Z M 245.054688 12.328125 C 245.171875 12.328125 247.644531 13.324219 250.550781 14.527344 C 253.453125 15.730469 257.90625 17.433594 260.433594 18.320312 C 262.964844 19.207031 271.546875 22.199219 279.507812 24.980469 C 296.546875 30.929688 305.132812 34.949219 309.945312 39.210938 C 313.664062 42.507812 317.609375 49.171875 319.03125 54.558594 C 320.003906 58.238281 319.707031 59.042969 314.199219 67.835938 L 311.097656 72.789062 L 310.03125 70.140625 C 308.375 66.015625 306.90625 64.800781 303.621094 64.800781 C 301.269531 64.800781 300.066406 65.382812 297.621094 67.703125 C 294.097656 71.042969 293.375 73.3125 290.722656 89.488281 C 289.78125 95.214844 288.878906 100.046875 288.714844 100.222656 C 288.546875 100.398438 288.417969 95.785156 288.417969 89.960938 C 288.417969 71.734375 285.285156 54.765625 281.929688 54.765625 C 280.011719 54.765625 279.09375 70.355469 280.171875 84.476562 C 280.625 90.378906 281.117188 96.480469 281.886719 105.695312 C 283.71875 127.625 283.015625 149.886719 279.921875 168.175781 C 277.53125 182.300781 276.925781 184.445312 263.863281 224.046875 C 257.96875 241.910156 252.800781 257.597656 252.382812 258.898438 C 251.460938 261.761719 251.375 265.398438 252.234375 265.398438 C 253.8125 265.398438 258.046875 259.523438 268.367188 243.019531 L 270.050781 240.328125 L 269.535156 242.632812 C 268.691406 246.347656 265.140625 256.34375 259.8125 270.023438 C 254.101562 284.695312 250.832031 291.886719 247.253906 297.621094 C 244.457031 302.109375 244.121094 303.792969 245.894531 304.476562 C 247.980469 305.28125 250.148438 302.28125 255.484375 291.242188 C 261.53125 278.730469 265.558594 268.511719 274.1875 243.792969 C 275.597656 239.761719 276.992188 235.863281 277.292969 235.125 C 277.945312 233.503906 279.214844 234.078125 279.214844 236 C 279.214844 236.757812 280.304688 239.566406 281.636719 242.246094 C 284.261719 247.539062 284.261719 247.683594 281.546875 261.160156 C 280.195312 267.863281 264.421875 297.519531 251.863281 316.980469 C 247.597656 323.59375 247.03125 325.960938 249.707031 325.960938 C 250.769531 325.960938 252.546875 323.972656 255.558594 319.402344 C 261.773438 309.972656 272.398438 291.449219 278.652344 279.152344 C 281.617188 273.316406 284.316406 268.707031 284.636719 268.90625 C 285.832031 269.648438 286.207031 275.511719 285.34375 279.835938 C 283.535156 288.882812 278.832031 300.210938 274.691406 305.515625 C 269.042969 312.753906 262.78125 319.46875 258.765625 322.585938 C 255.734375 324.9375 254.667969 326.265625 254.835938 327.433594 C 254.960938 328.316406 255.589844 329.140625 256.222656 329.261719 C 257.976562 329.597656 266.605469 321.949219 273.449219 314.007812 L 279.566406 306.898438 L 280.453125 309.097656 C 281.867188 312.660156 283.199219 326.148438 282.921875 334.066406 L 282.671875 341.398438 L 280.363281 341.605469 C 270.261719 342.511719 255.601562 346.945312 238.964844 354.125 C 227.871094 358.914062 215.765625 362.699219 204.4375 364.90625 C 194.996094 366.746094 171.90625 367.605469 161.917969 366.496094 C 153.871094 365.605469 141.390625 362.957031 132.796875 360.3125 C 123.195312 357.355469 113.960938 355.671875 107.222656 355.65625 C 104.210938 355.652344 101.046875 355.457031 100.203125 355.226562 C 98.261719 354.699219 87.761719 334.054688 88.679688 332.5625 C 89.578125 331.097656 94.507812 331.910156 109.023438 335.925781 C 119.394531 338.792969 136.082031 343.011719 142.371094 344.339844 C 147.546875 345.4375 151.4375 346.207031 160.394531 347.894531 C 170.6875 349.835938 200.519531 352.59375 210.980469 352.578125 C 218.460938 352.566406 235.003906 350.601562 237.101562 349.472656 C 238.34375 348.804688 238.527344 348.363281 237.855469 347.6875 C 236.824219 346.648438 227.894531 346.828125 223.9375 347.96875 C 220.421875 348.984375 212.578125 348.917969 208.117188 347.835938 C 196.074219 344.910156 173.054688 336.257812 156.285156 328.355469 C 152.136719 326.398438 148.601562 324.800781 148.425781 324.800781 C 147.722656 324.800781 133.054688 316.03125 127.917969 312.535156 C 119.503906 306.804688 110.285156 296.578125 104.515625 286.601562 C 101.820312 281.9375 97.785156 274.984375 95.546875 271.152344 C 85.8125 254.453125 83 242.257812 88.882812 242.257812 C 90.546875 242.257812 92.421875 243.722656 97.527344 249.023438 C 102.933594 254.640625 105.136719 257.765625 110.46875 267.34375 C 118.644531 282.03125 125.453125 292.351562 131.953125 299.925781 C 137.40625 306.28125 140.464844 307.9375 140.464844 304.535156 C 140.464844 303.511719 139.71875 302.011719 138.824219 301.203125 C 136.839844 299.410156 130.488281 291.195312 130.488281 290.421875 C 130.488281 290.117188 132.292969 291.589844 134.507812 293.695312 C 152.792969 311.078125 183.085938 325.566406 211.367188 330.46875 C 230.242188 333.738281 231.683594 333.847656 231.683594 332.132812 C 231.683594 331.496094 231.503906 330.972656 231.285156 330.972656 C 229.867188 330.972656 218.558594 327.542969 215.652344 326.230469 C 206.742188 322.203125 199.738281 318.339844 198.335938 316.683594 C 197.492188 315.6875 194.386719 313.246094 191.4375 311.253906 C 163.460938 292.382812 130.292969 254 112.824219 220.269531 C 110.183594 215.175781 107.273438 210.257812 106.335938 209.339844 C 102.84375 205.902344 95.75 179.738281 92.257812 157.382812 C 87.390625 126.242188 86.503906 87.503906 89.730469 47.078125 C 90.207031 41.117188 90.417969 40.460938 92.167969 39.613281 C 93.222656 39.101562 102.871094 35.816406 113.621094 32.3125 C 124.371094 28.808594 134.605469 25.3125 136.359375 24.535156 C 138.109375 23.757812 140.015625 23.3125 140.585938 23.554688 C 141.152344 23.792969 143.097656 25.867188 144.914062 28.148438 C 148.933594 33.195312 156.90625 39.796875 162.953125 43.09375 C 172.890625 48.507812 185.371094 50.875 196.195312 49.382812 C 216.121094 46.636719 230.902344 36.464844 241.390625 18.304688 C 243.292969 15.015625 244.9375 12.328125 245.054688 12.328125 Z M 73.992188 49.101562 C 75.066406 48.910156 75.117188 50.265625 74.023438 53.070312 C 72.667969 56.535156 70.890625 57.25 69.085938 55.0625 C 68.199219 53.988281 68.464844 53.46875 70.992188 51.136719 C 72.339844 49.894531 73.347656 49.214844 73.992188 49.101562 Z M 66.160156 58.617188 C 66.5 58.617188 67.683594 59.410156 68.792969 60.371094 L 70.800781 62.109375 L 69.632812 67.121094 C 68.992188 69.875 68.273438 73.425781 68.023438 75.019531 C 67.773438 76.609375 67.292969 77.917969 66.972656 77.917969 C 66.253906 77.917969 61.492188 73.023438 61.492188 72.28125 C 61.492188 71.984375 61.96875 71.746094 62.558594 71.746094 C 64.015625 71.746094 64.597656 69.957031 65.113281 63.835938 C 65.355469 60.972656 65.824219 58.617188 66.160156 58.617188 Z M 321.363281 65.5625 C 322.367188 65.5625 324.453125 75.425781 325.484375 85.039062 C 326.371094 93.304688 326.621094 94.183594 328.484375 95.65625 C 331.125 97.746094 332.074219 101.359375 331.292969 106.347656 C 330.738281 109.859375 330.992188 111.28125 333.375 118.230469 C 340.339844 138.539062 349.859375 170.691406 349.125 171.394531 C 348.339844 172.136719 341.804688 174.054688 328.335938 177.503906 C 321.835938 179.167969 316.058594 180.539062 315.496094 180.539062 C 314.246094 180.539062 314.1875 176.667969 315.203125 160.730469 C 315.601562 154.4375 316.109375 132.003906 316.324219 110.886719 L 316.722656 72.492188 L 318.730469 69.027344 C 319.84375 67.125 321.027344 65.5625 321.363281 65.5625 Z M 303.515625 69.574219 C 305.480469 69.589844 306.03125 70.804688 305.9375 74.050781 C 305.871094 76.335938 305.101562 77.460938 300.929688 81.351562 L 296.007812 85.949219 L 296.496094 82.511719 C 296.765625 80.621094 297.257812 78.03125 297.605469 76.757812 C 297.949219 75.484375 298.445312 73.503906 298.699219 72.355469 C 299.0625 70.703125 299.730469 70.152344 301.917969 69.738281 C 302.53125 69.625 303.0625 69.570312 303.515625 69.574219 Z M 59.007812 77.992188 C 59.542969 77.988281 60.65625 78.839844 62.847656 80.816406 L 66.898438 84.476562 L 66.011719 87.554688 C 65.097656 90.75 65.363281 106.910156 66.808594 136.9375 C 67.195312 145 67.878906 160.378906 68.316406 171.109375 C 68.75 181.839844 69.304688 190.929688 69.542969 191.316406 C 69.78125 191.703125 69.289062 192.386719 68.464844 192.832031 C 64.789062 194.8125 42.785156 192.585938 40.671875 190.023438 C 40.175781 189.421875 39.785156 187.304688 39.800781 185.308594 C 39.816406 183.136719 39.347656 181.140625 38.648438 180.328125 C 37.652344 179.175781 37.625 178.492188 38.441406 175.703125 C 40.445312 168.863281 46.121094 162.078125 54.058594 157.027344 C 56.507812 155.46875 58.699219 153.695312 58.933594 153.085938 C 59.945312 150.425781 58.042969 147.433594 50.761719 140.296875 L 43.167969 132.863281 L 43.96875 129.890625 C 44.40625 128.25 45.769531 123.292969 46.996094 118.871094 C 48.21875 114.449219 49.226562 109.925781 49.226562 108.820312 C 49.226562 105.878906 51.25 103.445312 55.0625 101.800781 C 58.808594 100.183594 59.25 98.746094 57.21875 94.796875 C 56.136719 92.6875 56.144531 91.855469 57.203125 86.15625 C 57.851562 82.6875 58.476562 79.25 58.59375 78.515625 C 58.648438 78.183594 58.765625 77.996094 59.007812 77.992188 Z M 311.699219 80.339844 C 311.75 80.339844 311.804688 80.359375 311.847656 80.402344 C 312.5 81.058594 310.542969 181.011719 309.824219 183.746094 C 309.003906 186.863281 305.804688 189.992188 301.636719 191.746094 C 300.160156 192.367188 298.289062 192.875 297.472656 192.875 C 296.015625 192.875 295.988281 192.289062 296.496094 168.371094 C 296.9375 147.519531 297.238281 143.019531 298.535156 138.09375 C 300.867188 129.222656 301.894531 125.003906 302.953125 119.953125 C 303.484375 117.40625 304.183594 114.28125 304.519531 113.007812 C 304.851562 111.734375 305.699219 107.40625 306.394531 103.375 C 307.089844 99.34375 307.992188 94.582031 308.390625 92.800781 C 308.785156 91.023438 309.113281 88.5 309.113281 87.179688 C 309.113281 85.019531 310.925781 80.363281 311.699219 80.339844 Z M 305.449219 82.929688 L 305.019531 85.25 C 304.785156 86.523438 304.371094 89.125 304.105469 91.03125 C 303.230469 97.289062 297.859375 123.433594 297.339844 123.953125 C 297.171875 124.121094 296.832031 123.1875 296.570312 121.871094 C 296.308594 120.558594 295.75 119.695312 295.328125 119.953125 C 294.910156 120.214844 294.242188 121.542969 293.851562 122.898438 C 292.914062 126.167969 292.8125 109.945312 293.71875 102.066406 C 294.277344 97.21875 294.792969 95.878906 297.8125 91.644531 C 299.714844 88.972656 302.21875 85.921875 303.367188 84.863281 Z M 350.140625 176.160156 C 350.820312 176.109375 351.285156 176.625 351.5625 177.738281 C 351.820312 178.773438 352.230469 180.140625 352.476562 180.785156 C 352.773438 181.566406 352.171875 182.359375 350.703125 183.121094 C 347.03125 185.03125 334.535156 189.003906 325.972656 190.988281 C 316.738281 193.125 313.707031 193.335938 313.707031 191.820312 C 313.707031 191.242188 313.921875 189.214844 314.179688 187.316406 C 314.605469 184.199219 314.820312 183.894531 316.441406 184.207031 C 318.117188 184.527344 327.242188 182.84375 332.488281 181.246094 C 333.75 180.863281 337.898438 179.664062 341.691406 178.570312 C 345.484375 177.480469 349.160156 176.40625 349.847656 176.207031 C 349.953125 176.175781 350.046875 176.167969 350.140625 176.160156 Z M 76.339844 176.773438 C 76.355469 176.765625 76.367188 176.769531 76.386719 176.789062 C 76.679688 177.0625 78.132812 181.566406 79.621094 186.808594 C 81.109375 192.050781 82.515625 196.953125 82.738281 197.695312 C 83.027344 198.652344 82.707031 199.046875 81.660156 199.046875 C 78.933594 199.046875 77.457031 197.222656 77.257812 193.605469 C 77.152344 191.71875 76.796875 187.042969 76.460938 183.226562 C 76.144531 179.644531 76.101562 176.878906 76.339844 176.773438 Z M 308.757812 193.5 C 308.988281 193.46875 309.113281 193.492188 309.113281 193.589844 C 309.113281 194.828125 305.164062 199.070312 302.921875 200.238281 C 300.328125 201.585938 296.386719 201.714844 295.625 200.476562 C 295.019531 199.492188 297.285156 197.5 299.007812 197.5 C 299.613281 197.5 302.132812 196.460938 304.605469 195.195312 C 306.464844 194.246094 308.074219 193.601562 308.757812 193.5 Z M 86.738281 211.835938 C 86.925781 211.851562 87.109375 212.261719 87.390625 212.933594 C 88.621094 215.9375 91.238281 223.160156 91.777344 225.085938 C 92.046875 226.039062 92.148438 226.8125 92.015625 226.792969 C 91.878906 226.777344 90.105469 225.21875 88.070312 223.328125 L 84.359375 219.894531 L 85.484375 215.449219 C 86.136719 212.851562 86.429688 211.808594 86.738281 211.835938 Z M 99.476562 231.195312 C 99.765625 231.292969 101.128906 233.355469 102.917969 236.460938 C 113.417969 254.664062 123.6875 266.824219 138.15625 278.183594 C 146.425781 284.679688 152.722656 290.871094 152.722656 292.519531 C 152.722656 295.515625 145.785156 293.140625 136.070312 286.808594 C 128.339844 281.769531 124.589844 277.523438 117.738281 266.082031 C 114.332031 260.398438 110.09375 253.386719 108.324219 250.496094 C 105.21875 245.414062 100.5625 235.40625 99.460938 231.449219 C 99.40625 231.25 99.40625 231.171875 99.476562 231.195312 Z M 79.824219 265.011719 L 81.273438 268.488281 C 89.765625 288.910156 100.355469 306.078125 108.472656 312.59375 C 111.8125 315.273438 133.078125 326.339844 134.90625 326.347656 C 135.667969 326.351562 145.777344 330.527344 148.628906 332.011719 C 149.882812 332.667969 151.363281 333.742188 151.910156 334.40625 C 153.347656 336.152344 152.238281 335.902344 140.460938 331.953125 C 131.378906 328.910156 110.238281 319.9375 96.179688 313.144531 C 91.015625 310.648438 86.332031 308.609375 85.765625 308.609375 C 85.199219 308.609375 84.089844 306.679688 83.296875 304.328125 C 81.851562 300.054688 81.847656 300.03125 83.546875 295.253906 C 85.914062 288.621094 85.757812 284.402344 82.925781 278.320312 C 81.648438 275.570312 80.4375 271.457031 80.222656 269.171875 Z M 84.757812 312.460938 C 84.945312 312.460938 89.535156 314.644531 94.953125 317.308594 C 100.371094 319.972656 107.394531 323.425781 110.554688 324.980469 C 117.199219 328.246094 117.089844 328.289062 107.867188 325.992188 C 97.480469 323.40625 91.121094 322.328125 87.832031 322.617188 L 84.878906 322.882812 L 84.640625 317.664062 C 84.515625 314.800781 84.570312 312.460938 84.757812 312.460938 Z M 84.757812 312.460938 " fill-opacity="0.09" fill-rule="nonzero"/><g clip-path="url(#9069ed68d6)"><path fill="#000000" d="M 148.75 0.210938 C 148.589844 0.203125 148.425781 0.214844 148.253906 0.226562 C 148.242188 0.222656 148.234375 0.226562 148.222656 0.226562 C 148.089844 0.222656 147.933594 0.253906 147.773438 0.285156 C 147.753906 0.289062 147.734375 0.28125 147.714844 0.285156 C 145.636719 0.617188 142.542969 2.121094 137.3125 5.230469 C 127.480469 11.066406 96.640625 22.089844 81.636719 25.128906 C 72.964844 26.882812 67.410156 29.179688 62.828125 32.898438 C 59.335938 35.734375 54.058594 43.488281 51.730469 49.207031 C 49.339844 55.074219 46.238281 65.96875 46.238281 68.472656 C 46.238281 69.859375 45.246094 72 43.660156 74.082031 C 40.96875 77.601562 39.441406 81.902344 39.433594 85.957031 C 39.433594 87.269531 38.957031 88.75 38.371094 89.238281 C 36.0625 91.175781 34.808594 95.511719 34.496094 102.648438 C 34.242188 108.382812 33.554688 111.765625 31.160156 119.234375 C 24.429688 140.230469 19.765625 158.410156 18.644531 167.953125 C 18.488281 169.3125 18.238281 172.867188 18.019531 176.8125 C 18.011719 176.988281 18 177.140625 17.992188 177.3125 C 17.878906 179.042969 17.769531 180.757812 17.714844 182.332031 C 17.648438 184.152344 17.617188 185.570312 17.597656 186.777344 C 17.550781 189.523438 17.636719 190.929688 17.945312 191.738281 C 17.953125 191.757812 17.957031 191.777344 17.960938 191.796875 C 18.457031 193.496094 19.523438 193.90625 21.53125 194.328125 C 22.851562 194.605469 25.800781 195.628906 28.085938 196.59375 C 32.332031 198.390625 40.148438 200.847656 46.238281 202.320312 C 48.109375 202.773438 54.898438 203.34375 61.34375 203.585938 C 72.296875 203.996094 73.191406 204.140625 74.980469 205.824219 C 76.03125 206.8125 78.023438 208.03125 79.40625 208.515625 C 80.148438 208.777344 80.671875 208.960938 81.023438 209.195312 C 81.03125 209.195312 81.035156 209.203125 81.039062 209.207031 C 81.253906 209.375 81.414062 209.582031 81.546875 209.8125 C 81.746094 210.320312 81.644531 211.082031 81.433594 212.433594 C 81.167969 214.101562 80.242188 217.40625 79.378906 219.777344 C 78.511719 222.144531 77.492188 226.144531 77.089844 228.664062 C 76.292969 233.691406 76.8125 243.878906 78.097656 248.226562 C 78.769531 250.507812 78.648438 251.710938 77.410156 255.097656 C 73.449219 265.949219 73.625 273.328125 78.054688 282.785156 C 80.648438 288.328125 80.761719 290.335938 78.738281 295.101562 C 77.03125 299.121094 76.753906 305.441406 78.167969 307.953125 C 78.808594 309.089844 79.253906 315.679688 79.566406 328.703125 C 79.957031 344.820312 80.285156 348.914062 81.722656 354.945312 C 83.085938 360.660156 83.59375 363.109375 86.136719 364.074219 C 86.152344 364.078125 86.167969 364.082031 86.179688 364.085938 C 86.902344 364.449219 87.765625 364.59375 88.832031 364.574219 C 90.824219 364.710938 93.527344 364.585938 97.382812 364.441406 C 111.089844 363.914062 118.351562 364.820312 132.199219 368.765625 C 142.667969 371.75 147.53125 372.789062 156.585938 374.019531 C 157.441406 374.136719 159.015625 374.253906 160.972656 374.359375 C 161.449219 374.464844 161.785156 374.566406 161.84375 374.625 C 162.089844 374.871094 167.160156 374.882812 173.703125 374.773438 C 173.761719 374.773438 173.820312 374.769531 173.878906 374.773438 C 175.042969 374.789062 176.214844 374.792969 177.375 374.800781 C 204.375 374.992188 216.023438 372.699219 241.617188 362.144531 C 261.539062 353.925781 268.414062 351.84375 279.914062 350.546875 C 283.253906 350.167969 286.324219 349.527344 286.730469 349.117188 C 290.070312 345.746094 289.210938 315.511719 285.523438 306.597656 C 284.46875 304.046875 284.527344 303.605469 286.558594 298.636719 C 290.347656 289.34375 291.414062 284.792969 291.40625 277.925781 C 291.402344 272.660156 291.078125 270.792969 289.675781 268.050781 C 287.765625 264.324219 287.785156 263.457031 290.082031 251.582031 C 291.089844 246.378906 291.429688 240.671875 291.464844 228.136719 L 291.511719 211.621094 L 292.238281 211.578125 L 296.144531 211.578125 C 301.660156 211.578125 305.667969 210.046875 309.269531 206.558594 C 311.617188 204.285156 312.859375 203.808594 320.355469 202.378906 C 335.289062 199.53125 353.296875 193.355469 356.363281 190.03125 C 356.738281 189.625 357.011719 189.289062 357.195312 188.898438 C 357.199219 188.886719 357.207031 188.878906 357.210938 188.867188 C 357.507812 188.417969 357.648438 187.964844 357.648438 187.515625 C 357.648438 187.148438 357.484375 186.265625 357.222656 185.085938 C 357.023438 183.800781 356.699219 182.136719 356.234375 179.785156 C 354.851562 172.796875 344.484375 138.234375 339.058594 122.515625 C 336.753906 115.84375 336.484375 114.289062 336.902344 110.257812 C 337.480469 104.679688 336.46875 100.492188 333.582031 96.464844 C 331.914062 94.140625 331.332031 92.28125 330.945312 88.136719 C 330.027344 78.28125 324.21875 55.25 321.066406 48.984375 C 315.3125 37.535156 306.707031 32.265625 276.914062 21.949219 C 255.554688 14.554688 246.957031 10.972656 241.078125 6.996094 C 238.050781 4.949219 234.964844 3.035156 234.214844 2.757812 C 233.4375 2.464844 231.011719 3.027344 228.546875 4.066406 C 220.058594 7.640625 205.785156 9.816406 190.601562 9.851562 C 174.375 9.886719 165.511719 7.847656 150.015625 0.519531 C 149.636719 0.339844 149.222656 0.230469 148.746094 0.210938 Z M 147.292969 6.832031 C 147.296875 6.835938 147.300781 6.832031 147.304688 6.832031 C 147.3125 6.835938 147.316406 6.84375 147.320312 6.847656 L 150.933594 13.117188 C 155.5 21.054688 166.292969 32.121094 172.859375 35.605469 C 175.359375 36.9375 179.949219 38.617188 183.054688 39.332031 C 187.945312 40.453125 189.359375 40.492188 193.617188 39.65625 C 199.609375 38.476562 206.335938 35.507812 212.25 31.425781 C 216.625 28.402344 227.730469 17.308594 231.492188 12.207031 L 233.445312 9.570312 L 236.953125 11.824219 C 239.132812 13.214844 240.480469 14.632812 240.480469 15.53125 C 240.480469 17.609375 235.921875 25.511719 231.636719 30.851562 C 223.597656 40.878906 213.152344 47.234375 200.230469 49.957031 C 177.097656 54.832031 152.542969 42.160156 140.9375 19.359375 C 137.609375 12.8125 137.707031 12.394531 143.445312 9.054688 L 147.289062 6.832031 Z M 153.292969 10.042969 C 153.945312 10.082031 156.238281 10.769531 158.84375 11.71875 C 168.242188 15.144531 172.519531 16.082031 183.710938 16.28125 C 188.054688 16.738281 190.835938 16.738281 196.167969 16.28125 C 208.445312 16.0625 216.441406 15.070312 223.84375 12.925781 C 225.25 12.519531 226.535156 12.320312 226.699219 12.484375 C 226.863281 12.648438 224.84375 15.078125 222.214844 17.871094 C 217.367188 23.019531 217.0625 23.171875 208.359375 25.171875 C 203.761719 26.230469 184.886719 26.679688 178.570312 25.878906 C 175.488281 25.488281 170.203125 24.304688 166.8125 23.257812 C 160.667969 21.363281 160.628906 21.355469 156.71875 15.882812 C 154.558594 12.867188 152.945312 10.246094 153.117188 10.070312 C 153.140625 10.046875 153.199219 10.035156 153.292969 10.042969 Z M 134.601562 14.5 C 134.609375 14.503906 134.613281 14.515625 134.617188 14.515625 L 137.835938 20.757812 C 140.410156 25.753906 142.742188 28.730469 149.390625 35.488281 C 156.175781 42.386719 158.839844 44.53125 163.765625 47.058594 C 178.738281 54.738281 192.738281 55.890625 208.125 50.707031 C 222.105469 46 234.226562 35.152344 241.644531 20.699219 C 243.144531 17.78125 244.070312 16.726562 244.9375 17.003906 C 245.605469 17.214844 249.394531 18.667969 253.34375 20.210938 C 257.292969 21.757812 267.789062 25.546875 276.679688 28.644531 C 306.265625 38.953125 313.253906 43.875 317.601562 57.476562 L 319.070312 62.054688 C 319.082031 62.214844 319.085938 62.378906 319.085938 62.527344 C 319.085938 62.636719 319.0625 62.765625 319.027344 62.925781 L 315.691406 68.957031 C 313.742188 72.464844 311.34375 76.324219 310.359375 77.539062 C 308.621094 79.6875 308.566406 79.703125 308.539062 77.996094 C 308.507812 76.023438 306.488281 71.640625 305.203125 70.785156 C 303.878906 69.898438 299.835938 70.113281 298.839844 71.121094 C 296.9375 73.042969 297.804688 74.0625 300.890625 73.566406 C 303.371094 73.164062 303.96875 73.339844 304.664062 74.652344 C 305.90625 77 305.734375 82.425781 304.417969 82.425781 C 303.828125 82.425781 301.316406 84.6875 298.839844 87.457031 C 296.359375 90.230469 294.152344 92.210938 293.929688 91.84375 C 293.53125 91.195312 294.113281 87.726562 296.027344 79.363281 C 296.554688 77.054688 296.820312 74.894531 296.625 74.550781 C 295.769531 73.066406 293.644531 76.636719 292.75 81.054688 C 290.464844 92.339844 290.117188 94.542969 289.164062 103.691406 C 288.742188 107.738281 287.480469 138.640625 286.601562 166.421875 C 286.183594 179.652344 285.582031 192.714844 285.261719 195.445312 C 284.925781 198.285156 281.882812 208.734375 278.152344 219.875 C 274.566406 230.585938 270.53125 242.789062 269.191406 246.988281 C 263.316406 265.425781 253.050781 290.855469 248.011719 299.445312 C 246.367188 302.25 245.023438 304.753906 245.023438 305.023438 C 245.023438 305.292969 245.75 305.40625 246.640625 305.273438 C 250.234375 304.734375 260.632812 281.183594 272.207031 247.371094 C 273.144531 244.640625 275.042969 239.492188 276.433594 235.921875 C 277.820312 232.351562 280.039062 226.257812 281.355469 222.378906 C 282.675781 218.5 284.050781 215.515625 284.417969 215.742188 C 285.347656 216.324219 285.246094 237.175781 284.269531 245.046875 C 282.101562 262.582031 280.667969 267.660156 274.394531 280.046875 C 268.296875 292.082031 261.246094 304.542969 252.761719 318.269531 C 249.425781 323.660156 248.125 326.417969 248.652344 326.953125 C 249.078125 327.382812 249.78125 327.515625 250.210938 327.246094 C 252.183594 326.015625 270.304688 294.753906 278.109375 279.132812 C 282.570312 270.199219 283.140625 269.40625 284.066406 270.683594 C 285.769531 273.039062 285.667969 280.421875 283.847656 287.082031 C 281.929688 294.09375 277.480469 304.023438 274.261719 308.464844 C 272.589844 310.777344 267.515625 316.363281 262.988281 320.875 C 255.101562 328.730469 253.007812 332.257812 257.976562 329.292969 C 260.410156 327.839844 271.640625 316.378906 276.140625 310.761719 L 278.894531 307.320312 L 279.738281 309.496094 C 281.253906 313.449219 282.429688 323.953125 282.726562 332.265625 C 282.726562 332.335938 282.726562 332.402344 282.726562 332.472656 C 282.71875 333.105469 282.699219 333.738281 282.683594 334.371094 L 282.492188 341.683594 L 282.492188 341.699219 C 282.351562 342.589844 282.160156 343.199219 281.910156 343.449219 C 281.410156 343.957031 279.863281 344.363281 278.472656 344.363281 C 271.390625 344.363281 257.351562 348.644531 238.980469 356.402344 C 222.113281 363.523438 208.722656 367.160156 193.5 368.78125 C 186.90625 369.480469 171.65625 369.636719 165.660156 369.058594 C 156.015625 368.132812 143.507812 365.515625 131.53125 361.921875 C 121.878906 359.027344 108.71875 357.246094 98.140625 357.402344 C 93.640625 357.472656 89.671875 357.226562 89.328125 356.859375 C 87.871094 355.3125 86.316406 340.804688 86.019531 325.996094 C 85.769531 313.339844 85.441406 309.550781 84.332031 306.390625 C 83.679688 304.539062 83.335938 303.539062 83.339844 302.492188 C 83.347656 302.34375 83.359375 302.183594 83.371094 302.035156 C 83.371094 302 83.382812 301.964844 83.382812 301.929688 C 83.5 300.925781 83.910156 299.722656 84.636719 297.632812 C 86.984375 290.886719 86.804688 286.878906 83.878906 280.515625 C 80.582031 273.34375 80.503906 267.214844 83.585938 257.894531 L 85.789062 251.226562 L 84.535156 245.945312 C 82.679688 238.183594 82.894531 230.46875 85.160156 223.25 C 86.199219 219.941406 87.25 216.113281 87.507812 214.742188 C 88.042969 211.847656 88.96875 211.496094 89.546875 213.960938 C 90.667969 218.75 99.378906 242.703125 102.6875 250.109375 C 109.246094 264.789062 121.125 285.480469 129.183594 296.25 C 132.542969 300.738281 139.136719 307.699219 140.023438 307.699219 C 141.652344 307.699219 140.464844 305.203125 136.863281 301.0625 C 134.738281 298.625 131.546875 294.574219 129.78125 292.054688 C 121.902344 280.816406 106.277344 250.648438 100.105469 234.773438 C 97.578125 228.257812 92.722656 213.289062 88.21875 198.125 C 87.097656 194.34375 85.882812 190.386719 85.523438 189.335938 C 82.894531 181.59375 79.011719 157.917969 79.769531 154.25 C 79.996094 153.171875 79.703125 149.371094 79.128906 145.800781 C 76.367188 128.597656 75.855469 110.03125 77.6875 93.875 C 79.71875 75.957031 79.78125 72.554688 78.210938 68.308594 C 77.136719 65.398438 76.011719 63.980469 73.417969 62.246094 C 71.558594 61 69.773438 59.527344 69.441406 58.976562 C 68.554688 57.507812 65.296875 57.773438 64.445312 59.375 C 64.042969 60.136719 63.597656 62.972656 63.457031 65.675781 C 63.3125 68.375 62.871094 70.5625 62.464844 70.546875 C 61.324219 70.5 55.867188 60.945312 55.867188 58.992188 C 55.867188 56.316406 59.035156 48.921875 62.246094 44.082031 C 66.832031 37.179688 71.0625 34.488281 80.628906 32.398438 C 94.398438 29.386719 119.226562 21.410156 130.292969 16.441406 L 134.605469 14.5 Z M 168.429688 27.628906 C 168.734375 27.613281 169.328125 27.714844 170.265625 27.878906 C 171.683594 28.132812 174.027344 28.726562 175.480469 29.191406 C 179.335938 30.417969 203.097656 30.316406 206.710938 29.058594 C 208.300781 28.503906 209.777344 28.222656 209.992188 28.4375 C 210.546875 29 204.132812 32.667969 199.472656 34.460938 C 194.894531 36.21875 186.25 36.878906 181.992188 35.796875 C 178.34375 34.871094 170.71875 30.820312 168.984375 28.882812 C 168.199219 28.003906 167.917969 27.65625 168.429688 27.628906 Z M 68.246094 62.734375 C 70.132812 62.804688 74.035156 67.25 74.949219 70.546875 C 75.824219 73.71875 75.515625 82.339844 74.421875 85.222656 C 74.210938 85.777344 73.816406 86.230469 73.550781 86.222656 C 72.167969 86.179688 65.804688 81.421875 63.730469 78.878906 C 60.800781 75.289062 60.636719 73.804688 63.234375 74.460938 C 65.492188 75.035156 65.753906 74.511719 66.484375 67.914062 C 66.777344 65.25 67.417969 62.9375 67.898438 62.777344 C 68.003906 62.742188 68.121094 62.726562 68.246094 62.734375 Z M 320.09375 68.382812 C 320.363281 68.398438 320.539062 68.8125 320.792969 69.488281 C 322.203125 73.261719 324.316406 84.511719 324.828125 90.976562 C 325.300781 96.992188 325.546875 97.804688 327.492188 99.558594 C 330.167969 101.964844 330.746094 104.207031 330.21875 110.125 C 329.839844 114.332031 330.195312 115.929688 333.929688 127.035156 C 337.511719 137.683594 348.390625 173.367188 348.558594 174.988281 C 348.550781 175.03125 348.554688 175.074219 348.542969 175.121094 C 347.921875 175.808594 337.929688 179.074219 331.949219 180.519531 C 329.246094 181.175781 325.84375 182.03125 324.390625 182.417969 C 322.933594 182.808594 320.128906 183.539062 318.15625 184.039062 C 314.464844 184.976562 313.140625 187.042969 316.230469 187.042969 C 318.414062 187.042969 331.855469 183.695312 341.304688 180.800781 C 345.40625 179.542969 349.007812 178.804688 349.316406 179.152344 C 349.625 179.5 350.28125 180.992188 350.773438 182.464844 C 351.566406 184.851562 351.488281 185.269531 350.101562 186.410156 C 347.992188 188.144531 334.160156 192.722656 324.011719 195.046875 C 319.4375 196.09375 314.746094 196.957031 313.582031 196.960938 L 311.453125 196.976562 L 311.863281 190.675781 C 312.816406 175.734375 313.292969 157.363281 313.726562 118.308594 L 314.191406 76.894531 C 314.269531 76.707031 314.359375 76.515625 314.453125 76.304688 L 317.136719 72.152344 C 318.914062 69.417969 319.640625 68.359375 320.09375 68.386719 Z M 52.851562 69.445312 C 53.164062 69.445312 54.261719 71.070312 55.296875 73.066406 C 57.1875 76.6875 65.308594 85.109375 70.929688 89.285156 L 73.902344 91.507812 L 73.246094 97.851562 C 72.511719 104.851562 73.125 129.949219 74.25 138.925781 C 74.644531 142.078125 75.269531 149.128906 75.648438 154.585938 C 76.03125 160.046875 76.699219 166.578125 77.121094 169.101562 C 78.015625 174.460938 81.867188 189.65625 84.097656 196.636719 C 84.953125 199.3125 85.441406 201.855469 85.175781 202.289062 C 84.160156 203.949219 81.425781 202.96875 78.664062 199.949219 C 75.597656 196.59375 75.195312 196.492188 67.769531 197.375 C 67.378906 197.417969 66.964844 197.457031 66.558594 197.492188 L 63.195312 197.460938 C 61.472656 197.441406 60.023438 197.414062 58.691406 197.386719 C 49.753906 196.601562 38.792969 193.710938 27.707031 189.085938 C 23.980469 187.535156 23.140625 186.835938 22.945312 185.203125 C 22.800781 184.03125 23.132812 183.054688 23.746094 182.816406 C 24.316406 182.59375 28.292969 183.648438 32.585938 185.15625 C 38.148438 187.113281 40.632812 187.667969 41.210938 187.085938 C 42.683594 185.597656 39.285156 183.320312 31.582031 180.609375 C 27.785156 179.273438 24.574219 178.082031 24.035156 177.8125 C 23.980469 177.722656 23.929688 177.628906 23.890625 177.53125 C 23.871094 175.601562 26.492188 161.191406 28.160156 154.234375 C 30.238281 145.550781 36.234375 124.914062 37.964844 120.488281 C 39.632812 116.207031 41.6875 104.820312 41.691406 99.851562 C 41.695312 97.171875 42.167969 95.722656 43.570312 94.039062 C 46.0625 91.046875 46.996094 88.371094 46.996094 84.207031 C 46.996094 81.359375 47.453125 80.199219 49.632812 77.628906 C 51.503906 75.417969 52.28125 73.769531 52.28125 71.976562 C 52.28125 70.582031 52.539062 69.445312 52.851562 69.445312 Z M 310.984375 83.207031 C 311.039062 83.210938 311.078125 83.226562 311.117188 83.265625 C 311.675781 83.828125 310.199219 181.066406 309.574219 185.125 C 308.875 189.640625 307.261719 191.90625 302.753906 194.664062 C 299.636719 196.574219 297.554688 197.230469 293.664062 197.546875 L 288.625 197.960938 L 289.132812 194.988281 C 290.171875 188.957031 291.101562 160.777344 291.058594 136.644531 C 291.011719 113.023438 291.691406 102.492188 293.476562 99.085938 C 294.851562 96.457031 303.277344 86.234375 304.066406 86.234375 C 304.613281 86.234375 304.714844 87.582031 304.386719 90.253906 C 302.941406 102.019531 297.363281 128.96875 295.339844 133.96875 C 294.832031 135.226562 293.785156 138.75 293.011719 141.796875 C 291.875 146.253906 291.777344 147.523438 292.542969 148.289062 C 293.304688 149.046875 293.691406 148.980469 294.464844 147.917969 C 295.265625 146.828125 298.363281 134.984375 302.492188 117.171875 C 303.675781 112.070312 305.285156 103.023438 306.238281 96.171875 C 306.730469 92.601562 307.277344 88.988281 307.445312 88.148438 C 307.804688 86.375 310.203125 83.113281 310.984375 83.203125 Z M 307.796875 195.445312 C 310.554688 195.445312 305.207031 202.632812 301.179688 204.332031 C 298.796875 205.339844 296.078125 205.53125 293.023438 204.878906 C 292.191406 204.699219 290.742188 204.386719 289.804688 204.1875 C 286.867188 203.554688 287.742188 201.550781 290.957031 201.550781 C 294.109375 201.550781 300.375 199.445312 304.445312 197.019531 C 305.902344 196.152344 307.402344 195.445312 307.796875 195.445312 Z M 106.910156 213.871094 C 105.285156 213.785156 105.847656 215.902344 109.050781 222.378906 C 126.523438 257.691406 159.113281 295.890625 190.222656 317.5 C 195.484375 321.15625 199.792969 321.886719 197.578125 318.75 C 197.273438 318.320312 193.527344 315.464844 189.257812 312.40625 C 179.023438 305.074219 173.761719 300.628906 163.867188 290.933594 C 144.734375 272.1875 125.4375 246.359375 113.378906 223.335938 C 110.449219 217.746094 108.082031 214.074219 107.273438 213.914062 C 107.144531 213.890625 107.019531 213.878906 106.910156 213.871094 Z M 87.8125 312.144531 C 87.242188 312.191406 87.054688 312.519531 87.054688 313.085938 C 87.054688 313.949219 98.960938 320.046875 111.484375 325.59375 C 116.542969 327.835938 123.066406 330.816406 125.976562 332.203125 C 128.886719 333.589844 134.839844 336 139.207031 337.578125 C 147.277344 340.488281 151.675781 341.03125 151.675781 339.105469 C 151.675781 338.902344 151.308594 338.613281 150.683594 338.253906 C 150.675781 338.242188 150.664062 338.230469 150.65625 338.222656 C 150.382812 337.996094 150.015625 337.804688 149.636719 337.695312 C 149.621094 337.6875 149.605469 337.683594 149.59375 337.679688 C 147.980469 336.917969 145.488281 335.960938 142.222656 334.851562 C 131.445312 331.199219 113.691406 323.714844 98.664062 316.484375 C 92.085938 313.320312 89.058594 312.039062 87.8125 312.144531 Z M 87.8125 312.144531 " fill-opacity="1" fill-rule="nonzero"/></g></svg>