<svg xmlns="http://www.w3.org/2000/svg" xmlns:xlink="http://www.w3.org/1999/xlink" width="500" zoomAndPan="magnify" viewBox="0 0 375 374.999991" height="500" preserveAspectRatio="xMidYMid meet" version="1.0"><defs><clipPath id="b16a7cc1bf"><path d="M 52.410156 146 L 290 146 L 290 316 L 52.410156 316 Z M 52.410156 146 " clip-rule="nonzero"/></clipPath><clipPath id="1b9e2bfa05"><path d="M 52.410156 253 L 290 253 L 290 316 L 52.410156 316 Z M 52.410156 253 " clip-rule="nonzero"/></clipPath><clipPath id="fa773e1c71"><path d="M 52.410156 249 L 67 249 L 67 276 L 52.410156 276 Z M 52.410156 249 " clip-rule="nonzero"/></clipPath><clipPath id="3c9734a4ca"><path d="M 84 204 L 322.410156 204 L 322.410156 374 L 84 374 Z M 84 204 " clip-rule="nonzero"/></clipPath><clipPath id="90f2f733b3"><path d="M 84 311 L 322.410156 311 L 322.410156 374 L 84 374 Z M 84 311 " clip-rule="nonzero"/></clipPath><clipPath id="b92bb2f67c"><path d="M 308 307 L 322.410156 307 L 322.410156 334 L 308 334 Z M 308 307 " clip-rule="nonzero"/></clipPath><clipPath id="a2ab3fd296"><path d="M 126 4.078125 L 245.757812 4.078125 L 245.757812 201 L 126 201 Z M 126 4.078125 " clip-rule="nonzero"/></clipPath></defs><g clip-path="url(#b16a7cc1bf)"><path fill="#dbcbc9" d="M 53.910156 253.5 C 53.910156 253.5 53.804688 242.863281 56.78125 217.96875 L 59.761719 198.5 L 61.675781 196.582031 C 61.675781 196.582031 61.460938 178.710938 64.335938 176.796875 C 64.335938 176.796875 64.910156 168.734375 77.980469 168.207031 C 91.046875 167.683594 96.828125 166.632812 96.828125 166.632812 C 96.828125 166.632812 98.886719 160.585938 124.398438 155.328125 L 145.46875 147.109375 C 145.46875 147.109375 150.191406 144.664062 151.332031 148.085938 C 152.472656 151.507812 154.753906 153.628906 154.753906 153.628906 C 154.753906 153.628906 159.152344 154.117188 159.152344 160.960938 C 159.152344 160.960938 163.363281 180.9375 160.929688 187.078125 C 158.496094 193.222656 157.195312 193.710938 157.195312 193.710938 L 172.832031 204.789062 L 177.882812 215.21875 L 188.46875 221.835938 L 193.03125 224.546875 L 196.703125 228.464844 L 200.195312 231.011719 L 210.949219 234.773438 C 210.949219 234.773438 228.214844 234.121094 223.816406 246.015625 C 223.816406 246.015625 266.980469 257.746094 277.566406 265.730469 C 277.566406 265.730469 280.5 268.011719 283.105469 276.320312 C 283.105469 276.320312 288.304688 278.910156 289.695312 287.226562 C 289.695312 287.226562 292.992188 296.058594 274.804688 302.761719 C 256.621094 309.464844 223.972656 316.804688 196 315.632812 C 168.027344 314.464844 162.285156 314.785156 128.890625 305.527344 C 95.5 296.269531 61.464844 287.226562 61.464844 287.226562 C 61.464844 287.226562 52.742188 283.71875 52.636719 268.183594 C 52.527344 252.652344 53.910156 253.5 53.910156 253.5 Z M 53.910156 253.5 " fill-opacity="1" fill-rule="nonzero"/></g><g clip-path="url(#1b9e2bfa05)"><path fill="#e4c620" d="M 52.632812 268.183594 C 52.527344 252.652344 53.910156 253.5 53.910156 253.5 C 53.910156 253.5 53.910156 253.496094 53.910156 253.492188 C 67.683594 262.046875 97.699219 277.980469 145.472656 289.726562 C 215.871094 307.035156 255 290.386719 266.589844 287.171875 C 279.410156 283.613281 282.347656 278.527344 282.722656 275.164062 C 282.851562 275.535156 282.976562 275.917969 283.101562 276.316406 C 283.101562 276.316406 288.300781 278.90625 289.691406 287.222656 C 289.691406 287.222656 292.988281 296.054688 274.804688 302.757812 C 256.617188 309.460938 223.96875 316.800781 195.996094 315.628906 C 168.027344 314.457031 162.285156 314.78125 128.890625 305.523438 C 95.496094 296.265625 61.460938 287.222656 61.460938 287.222656 C 61.460938 287.222656 52.742188 283.714844 52.632812 268.183594 Z M 52.632812 268.183594 " fill-opacity="1" fill-rule="nonzero"/></g><path fill="#f20000" d="M 169.433594 308.125 C 180.476562 309.101562 187.21875 309.21875 193.054688 309.109375 C 216.515625 308.671875 220.308594 309.832031 262.96875 299.882812 C 275.0625 297.0625 284.144531 291.191406 289.636719 286.90625 C 289.652344 287.015625 289.675781 287.117188 289.695312 287.226562 C 289.695312 287.226562 292.992188 296.058594 274.804688 302.757812 C 256.621094 309.460938 223.972656 316.800781 196 315.632812 C 168.03125 314.460938 162.285156 314.78125 128.890625 305.523438 C 95.5 296.269531 61.464844 287.226562 61.464844 287.226562 C 61.464844 287.226562 57.226562 285.511719 54.625 279.214844 C 96.207031 292.707031 150.046875 306.410156 169.433594 308.125 Z M 169.433594 308.125 " fill-opacity="1" fill-rule="nonzero"/><path fill="#f20000" d="M 159.5625 170.605469 C 159.089844 178.257812 160.789062 182.699219 160.789062 182.699219 L 159.375 181.945312 C 159.375 181.945312 158.808594 176.839844 157.675781 168.996094 C 156.976562 164.175781 155.53125 157.6875 154.519531 153.390625 C 154.664062 153.542969 154.753906 153.625 154.753906 153.625 C 154.753906 153.625 156.972656 153.875 158.257812 156.472656 C 159.082031 161.554688 159.773438 167.144531 159.5625 170.605469 Z M 159.5625 170.605469 " fill-opacity="1" fill-rule="nonzero"/><path fill="#f20000" d="M 115.3125 173.074219 L 125.714844 188.472656 L 124.699219 193.90625 C 124.597656 188.648438 120.421875 184.070312 112.089844 174.449219 C 103.757812 164.828125 93.347656 171.175781 77.976562 176.632812 C 70.371094 179.332031 66.070312 178.824219 63.660156 177.621094 C 63.863281 177.242188 64.085938 176.960938 64.332031 176.796875 C 64.332031 176.796875 64.910156 168.734375 77.976562 168.210938 C 82.710938 168.019531 86.484375 167.761719 89.378906 167.507812 C 91.839844 167.273438 91.839844 167.273438 96.828125 166.632812 C 111.246094 164.78125 115.3125 173.074219 115.3125 173.074219 Z M 115.3125 173.074219 " fill-opacity="1" fill-rule="nonzero"/><path fill="#f20000" d="M 144.582031 153.394531 C 144.582031 153.394531 153.144531 157.941406 154.519531 177.128906 L 156.089844 181.148438 L 128.839844 188.824219 C 128.839844 188.824219 122.289062 163.765625 118.4375 162.78125 C 114.585938 161.796875 144.582031 153.394531 144.582031 153.394531 Z M 144.582031 153.394531 " fill-opacity="1" fill-rule="nonzero"/><path fill="#f20000" d="M 56.78125 217.96875 L 57.445312 213.628906 C 61.011719 219.984375 66.609375 227.691406 74.898438 233.609375 C 91.933594 245.773438 119.960938 261.714844 114.304688 231.007812 C 114.304688 231.007812 126.347656 238.71875 127.554688 250.941406 C 128.757812 263.160156 118.605469 266.605469 112.238281 265.226562 C 105.871094 263.851562 60.484375 241.960938 56.332031 221.835938 C 56.472656 220.585938 56.625 219.300781 56.78125 217.96875 Z M 56.78125 217.96875 " fill-opacity="1" fill-rule="nonzero"/><path fill="#231f20" d="M 151.792969 149.378906 L 148.804688 150.339844 L 148.53125 149.484375 L 151.519531 148.523438 Z M 145.816406 151.304688 L 142.828125 152.265625 L 142.550781 151.410156 L 145.539062 150.449219 Z M 139.835938 153.226562 L 136.847656 154.191406 L 136.574219 153.335938 L 139.5625 152.375 Z M 133.859375 155.152344 L 131.042969 156.0625 L 130.902344 155.632812 L 131.054688 156.054688 L 130.886719 156.117188 L 130.582031 155.273438 L 130.757812 155.207031 L 133.582031 154.300781 Z M 127.933594 157.183594 L 124.976562 158.25 L 124.671875 157.40625 L 127.628906 156.339844 Z M 122.023438 159.316406 L 119.070312 160.382812 L 118.765625 159.539062 L 121.71875 158.472656 Z M 116.117188 161.453125 L 113.164062 162.519531 L 112.859375 161.675781 L 115.8125 160.605469 Z M 110.210938 163.585938 L 107.253906 164.652344 L 106.949219 163.808594 L 109.90625 162.742188 Z M 110.210938 163.585938 " fill-opacity="1" fill-rule="nonzero"/><path stroke-linecap="butt" transform="matrix(0.206783, 0, 0, 0.206855, -19.37152, 72.461539)" fill="none" stroke-linejoin="miter" d="M 1486.783042 1012.974029 C 1486.783042 1012.974029 1486.02742 1015.202344 1482.419325 1019.149106 " stroke="#231f20" stroke-width="4.339" stroke-opacity="1" stroke-miterlimit="10"/><path fill="#231f20" d="M 285.039062 285.691406 C 284.246094 286.257812 283.355469 286.828125 282.355469 287.402344 L 281.910156 286.625 C 282.882812 286.066406 283.75 285.511719 284.515625 284.964844 Z M 279.546875 288.890625 C 278.640625 289.335938 277.675781 289.777344 276.65625 290.21875 L 276.300781 289.398438 C 277.308594 288.960938 278.257812 288.523438 279.148438 288.085938 Z M 273.726562 291.421875 L 272.933594 291.730469 C 272.257812 291.984375 271.527344 292.246094 270.746094 292.515625 L 270.457031 291.664062 C 271.226562 291.402344 271.945312 291.144531 272.609375 290.890625 L 273.402344 290.585938 Z M 267.722656 293.492188 C 266.75 293.789062 265.738281 294.085938 264.683594 294.378906 L 264.441406 293.515625 C 265.488281 293.222656 266.496094 292.925781 267.460938 292.632812 Z M 261.632812 295.199219 L 258.570312 295.964844 L 258.355469 295.09375 L 261.414062 294.332031 Z M 255.484375 296.679688 L 252.398438 297.347656 L 252.210938 296.46875 L 255.292969 295.804688 Z M 249.292969 297.972656 L 246.214844 298.550781 L 246.050781 297.667969 L 249.128906 297.089844 Z M 243.121094 299.089844 L 239.949219 299.601562 L 239.804688 298.714844 L 242.976562 298.203125 Z M 236.871094 300.058594 L 233.714844 300.492188 L 233.59375 299.601562 L 236.75 299.171875 Z M 230.582031 300.878906 L 227.460938 301.230469 L 227.359375 300.339844 L 230.480469 299.988281 Z M 224.257812 301.550781 L 221.160156 301.828125 L 221.082031 300.933594 L 224.179688 300.660156 Z M 217.996094 302.070312 L 214.824219 302.273438 L 214.765625 301.378906 L 217.941406 301.175781 Z M 211.691406 302.441406 L 208.527344 302.570312 L 208.488281 301.671875 L 211.652344 301.542969 Z M 205.347656 302.660156 L 202.214844 302.710938 L 202.199219 301.8125 L 205.332031 301.761719 Z M 199.035156 302.722656 L 195.871094 302.695312 L 195.878906 301.796875 L 199.042969 301.824219 Z M 192.722656 302.625 L 189.558594 302.515625 L 189.589844 301.621094 L 192.753906 301.730469 Z M 186.382812 302.363281 L 183.25 302.171875 L 183.304688 301.277344 L 186.4375 301.46875 Z M 180.085938 301.933594 L 176.929688 301.652344 L 177.007812 300.757812 L 180.167969 301.039062 Z M 173.792969 301.328125 L 170.660156 300.957031 L 170.765625 300.066406 L 173.898438 300.4375 Z M 167.5 300.539062 L 164.394531 300.078125 L 164.527344 299.191406 L 167.632812 299.652344 Z M 161.269531 299.566406 L 158.152344 299.003906 L 158.3125 298.121094 L 161.429688 298.683594 Z M 155.046875 298.394531 L 151.964844 297.734375 L 152.152344 296.859375 L 155.234375 297.515625 Z M 148.871094 297.019531 L 147.179688 296.605469 L 145.789062 296.257812 L 146.007812 295.386719 L 147.394531 295.734375 L 149.085938 296.148438 Z M 142.71875 295.464844 L 139.679688 294.664062 L 139.910156 293.792969 L 142.949219 294.597656 Z M 136.621094 293.828125 L 133.578125 292.976562 L 133.820312 292.113281 L 136.863281 292.964844 Z M 130.558594 292.113281 L 127.507812 291.214844 L 127.761719 290.355469 L 130.8125 291.25 Z M 124.492188 290.308594 L 121.476562 289.378906 L 121.738281 288.519531 L 124.753906 289.449219 Z M 118.449219 288.425781 L 115.472656 287.464844 L 115.75 286.613281 L 118.722656 287.570312 Z M 112.441406 286.46875 L 109.460938 285.46875 L 109.746094 284.617188 L 112.726562 285.617188 Z M 106.46875 284.445312 L 103.480469 283.402344 L 103.773438 282.554688 L 106.761719 283.597656 Z M 100.527344 282.351562 L 97.53125 281.265625 L 97.835938 280.421875 L 100.832031 281.507812 Z M 94.601562 280.183594 L 91.609375 279.058594 L 91.925781 278.21875 L 94.917969 279.34375 Z M 88.6875 277.941406 L 85.714844 276.78125 L 86.039062 275.945312 L 89.015625 277.105469 Z M 82.808594 275.632812 L 79.84375 274.4375 L 80.179688 273.605469 L 83.144531 274.800781 Z M 76.972656 273.257812 L 74.007812 272.023438 L 74.351562 271.195312 L 77.316406 272.429688 Z M 71.113281 270.792969 L 68.226562 269.546875 L 68.582031 268.722656 L 71.46875 269.96875 Z M 65.300781 268.261719 L 62.421875 266.96875 L 62.789062 266.148438 L 65.667969 267.441406 Z M 59.554688 265.65625 L 56.679688 264.3125 L 57.0625 263.5 L 59.933594 264.84375 Z M 59.554688 265.65625 " fill-opacity="1" fill-rule="nonzero"/><g clip-path="url(#fa773e1c71)"><path stroke-linecap="butt" transform="matrix(0.206783, 0, 0, 0.206855, -19.37152, 72.461539)" fill="none" stroke-linejoin="miter" d="M 355.276694 919.063766 C 350.799633 916.892103 348.476094 915.70241 348.476094 915.70241 " stroke="#231f20" stroke-width="4.339" stroke-opacity="1" stroke-miterlimit="10"/></g><path fill="#231f20" d="M 272.523438 261.621094 C 272.703125 261.875 272.804688 262.214844 272.832031 262.636719 C 272.878906 263.417969 272.59375 264.222656 271.976562 265.054688 L 271.257812 264.515625 C 271.746094 263.863281 271.972656 263.253906 271.9375 262.691406 C 271.921875 262.441406 271.871094 262.253906 271.789062 262.136719 Z M 269.546875 267.265625 C 268.761719 267.804688 267.84375 268.339844 266.792969 268.867188 L 266.390625 268.0625 C 267.40625 267.554688 268.289062 267.042969 269.039062 266.527344 Z M 263.890625 270.171875 C 262.972656 270.542969 261.988281 270.910156 260.941406 271.273438 L 260.644531 270.425781 C 261.679688 270.066406 262.648438 269.707031 263.550781 269.339844 Z M 257.925781 272.253906 C 256.957031 272.546875 255.945312 272.835938 254.890625 273.125 L 254.652344 272.257812 C 255.703125 271.972656 256.703125 271.683594 257.664062 271.394531 Z M 251.789062 273.871094 C 250.753906 274.085938 249.710938 274.261719 248.664062 274.40625 L 248.542969 273.519531 C 249.570312 273.378906 250.59375 273.203125 251.605469 272.992188 Z M 245.511719 274.738281 C 244.457031 274.8125 243.402344 274.851562 242.34375 274.859375 L 242.339844 273.960938 C 243.378906 273.957031 244.414062 273.914062 245.449219 273.839844 Z M 239.214844 274.800781 L 236.058594 274.726562 L 236.078125 273.828125 L 239.234375 273.902344 Z M 232.980469 274.6875 L 229.796875 274.679688 L 229.800781 273.78125 L 232.984375 273.789062 Z M 226.679688 274.707031 L 223.519531 274.78125 L 223.5 273.882812 L 226.660156 273.8125 Z M 220.386719 274.898438 C 219.3125 274.949219 218.261719 275.007812 217.242188 275.070312 L 217.183594 274.175781 C 218.210938 274.109375 219.265625 274.050781 220.347656 274 Z M 214.125 275.308594 C 213.039062 275.402344 211.992188 275.507812 210.980469 275.621094 L 210.878906 274.730469 C 211.898438 274.613281 212.953125 274.507812 214.046875 274.414062 Z M 207.914062 276.023438 C 206.816406 276.183594 205.773438 276.359375 204.78125 276.550781 L 204.609375 275.671875 C 205.613281 275.476562 206.671875 275.296875 207.785156 275.132812 Z M 201.785156 277.214844 C 200.710938 277.488281 199.71875 277.78125 198.8125 278.097656 L 198.519531 277.25 C 199.449219 276.925781 200.464844 276.625 201.5625 276.347656 Z M 195.871094 279.132812 C 194.851562 279.472656 193.84375 279.789062 192.851562 280.078125 L 192.601562 279.214844 C 193.582031 278.929688 194.578125 278.621094 195.585938 278.28125 Z M 189.789062 280.894531 C 188.667969 281.164062 187.613281 281.382812 186.632812 281.550781 L 186.480469 280.667969 C 187.445312 280.503906 188.476562 280.289062 189.582031 280.023438 Z M 183.507812 281.917969 C 182.191406 281.984375 181.101562 281.90625 180.238281 281.683594 L 180.46875 280.8125 C 181.238281 281.015625 182.238281 281.085938 183.460938 281.019531 Z M 177.789062 279.296875 C 177.667969 278.402344 177.941406 277.304688 178.605469 276.003906 L 179.402344 276.414062 C 178.824219 277.546875 178.582031 278.46875 178.679688 279.179688 Z M 180.320312 273.304688 C 180.886719 272.53125 181.550781 271.710938 182.308594 270.832031 L 182.988281 271.421875 C 182.242188 272.277344 181.59375 273.085938 181.039062 273.835938 Z M 180.320312 273.304688 " fill-opacity="1" fill-rule="nonzero"/><path fill="#231f20" d="M 154.933594 290.972656 C 155.414062 290.386719 156.097656 289.605469 156.976562 288.625 L 157.644531 289.226562 C 156.773438 290.195312 156.101562 290.964844 155.628906 291.542969 Z M 159.136719 286.289062 C 159.851562 285.535156 160.578125 284.78125 161.320312 284.035156 L 161.957031 284.667969 C 161.21875 285.410156 160.496094 286.15625 159.785156 286.90625 Z M 163.566406 281.820312 C 164.324219 281.085938 165.089844 280.367188 165.863281 279.65625 L 166.46875 280.316406 C 165.703125 281.023438 164.945312 281.738281 164.1875 282.46875 Z M 168.207031 277.546875 C 169.007812 276.847656 169.804688 276.160156 170.605469 275.492188 L 171.183594 276.183594 C 170.386719 276.847656 169.59375 277.527344 168.800781 278.222656 Z M 173.058594 273.5 C 173.894531 272.839844 174.726562 272.199219 175.5625 271.578125 L 176.097656 272.300781 C 175.269531 272.914062 174.445312 273.550781 173.613281 274.207031 Z M 178.101562 269.746094 C 178.984375 269.128906 179.859375 268.535156 180.734375 267.96875 L 181.222656 268.71875 C 180.359375 269.285156 179.488281 269.871094 178.613281 270.480469 Z M 183.421875 266.289062 C 184.339844 265.738281 185.253906 265.214844 186.164062 264.722656 L 186.59375 265.507812 C 185.695312 266 184.789062 266.515625 183.882812 267.0625 Z M 188.972656 263.253906 C 189.953125 262.730469 190.847656 262.210938 191.648438 261.695312 L 192.136719 262.449219 C 191.3125 262.980469 190.398438 263.511719 189.390625 264.046875 Z M 194.113281 259.863281 C 194.976562 259.105469 195.636719 258.355469 196.09375 257.617188 L 196.855469 258.085938 C 196.355469 258.902344 195.636719 259.722656 194.703125 260.539062 Z M 196.820312 254.90625 C 196.738281 254.039062 196.34375 253.183594 195.628906 252.347656 L 196.3125 251.765625 C 197.148438 252.746094 197.617188 253.765625 197.714844 254.824219 Z M 193.3125 250.398438 C 192.441406 249.84375 191.628906 249.417969 190.863281 249.125 L 190.851562 249.117188 L 190.601562 249.003906 L 190.980469 248.1875 L 191.214844 248.300781 L 191.027344 248.707031 L 191.1875 248.289062 C 192.007812 248.605469 192.875 249.054688 193.792969 249.644531 Z M 187.78125 247.644531 C 186.832031 247.175781 185.894531 246.707031 184.96875 246.234375 L 185.375 245.4375 C 186.296875 245.90625 187.230469 246.375 188.175781 246.839844 Z M 182.199219 244.789062 C 181.214844 244.265625 180.277344 243.753906 179.386719 243.253906 L 179.828125 242.46875 C 180.710938 242.96875 181.644531 243.476562 182.621094 244 Z M 176.660156 241.667969 C 175.675781 241.074219 174.78125 240.511719 173.980469 239.972656 L 174.476562 239.226562 C 175.269531 239.757812 176.152344 240.3125 177.121094 240.898438 Z M 171.410156 238.105469 C 170.316406 237.222656 169.550781 236.4375 169.117188 235.757812 L 169.875 235.277344 C 170.257812 235.875 170.953125 236.585938 171.972656 237.40625 Z M 167.789062 232.996094 C 167.148438 232.203125 166.367188 231.660156 165.445312 231.375 L 165.710938 230.515625 C 166.804688 230.859375 167.730469 231.496094 168.488281 232.429688 Z M 162.695312 231.519531 C 161.894531 231.882812 161.191406 232.519531 160.585938 233.433594 L 159.839844 232.933594 C 160.539062 231.882812 161.367188 231.136719 162.324219 230.703125 Z M 159.347656 236.15625 C 159.265625 236.433594 159.183594 236.71875 159.109375 237.015625 C 158.933594 237.71875 158.746094 238.441406 158.539062 239.191406 L 157.675781 238.953125 C 157.878906 238.210938 158.066406 237.492188 158.238281 236.796875 C 158.316406 236.484375 158.402344 236.183594 158.492188 235.890625 Z M 157.671875 242.207031 C 157.371094 243.203125 157.058594 244.207031 156.726562 245.21875 L 155.875 244.941406 C 156.203125 243.933594 156.515625 242.9375 156.8125 241.945312 Z M 155.710938 248.207031 C 155.363281 249.199219 155.003906 250.1875 154.632812 251.171875 L 153.792969 250.855469 C 154.164062 249.875 154.519531 248.894531 154.867188 247.910156 Z M 153.511719 254.054688 C 153.117188 255.039062 152.710938 256.019531 152.296875 256.988281 L 151.472656 256.636719 C 151.882812 255.671875 152.285156 254.699219 152.679688 253.71875 Z M 151.023438 259.875 C 150.589844 260.835938 150.144531 261.78125 149.691406 262.722656 L 148.882812 262.332031 C 149.332031 261.398438 149.773438 260.457031 150.207031 259.503906 Z M 148.265625 265.589844 C 147.78125 266.53125 147.289062 267.460938 146.789062 268.378906 L 146.003906 267.953125 C 146.5 267.039062 146.988281 266.117188 147.464844 265.179688 Z M 145.25 271.125 C 144.71875 272.039062 144.183594 272.945312 143.636719 273.832031 L 142.871094 273.363281 C 143.414062 272.480469 143.949219 271.585938 144.472656 270.675781 Z M 141.945312 276.5 C 141.363281 277.386719 140.773438 278.261719 140.175781 279.117188 L 139.441406 278.605469 C 140.035156 277.753906 140.617188 276.886719 141.195312 276.007812 Z M 138.335938 281.675781 C 137.703125 282.527344 137.0625 283.359375 136.410156 284.175781 L 135.710938 283.617188 C 136.351562 282.808594 136.988281 281.980469 137.617188 281.140625 Z M 138.335938 281.675781 " fill-opacity="1" fill-rule="nonzero"/><path fill="#231f20" d="M 59.53125 198.113281 L 62.238281 196.519531 L 62.695312 197.292969 L 59.988281 198.886719 Z M 64.945312 194.925781 L 67.652344 193.332031 L 68.109375 194.105469 L 65.402344 195.699219 Z M 70.359375 191.738281 L 73.066406 190.144531 L 73.519531 190.917969 L 70.8125 192.511719 Z M 75.773438 188.550781 L 78.480469 186.957031 L 78.933594 187.730469 L 76.226562 189.324219 Z M 81.183594 185.367188 L 83.890625 183.773438 L 84.347656 184.546875 L 81.640625 186.140625 Z M 86.597656 182.179688 L 89.304688 180.585938 L 89.761719 181.359375 L 87.054688 182.953125 Z M 92.011719 178.992188 L 93.1875 178.300781 L 93.414062 178.6875 L 93.164062 178.3125 C 93.550781 178.054688 94.070312 177.753906 94.71875 177.402344 L 95.144531 178.195312 C 94.519531 178.53125 94.027344 178.820312 93.664062 179.0625 L 93.652344 179.066406 L 92.464844 179.765625 Z M 97.609375 176.050781 C 98.636719 175.636719 99.644531 175.304688 100.640625 175.046875 L 100.863281 175.917969 C 99.90625 176.164062 98.933594 176.484375 97.945312 176.882812 Z M 103.828125 174.496094 C 104.960938 174.40625 106.042969 174.441406 107.066406 174.597656 L 106.929688 175.484375 C 105.976562 175.335938 104.964844 175.308594 103.898438 175.394531 Z M 110.191406 175.546875 C 111.164062 176.011719 112.058594 176.617188 112.875 177.371094 L 112.265625 178.03125 C 111.515625 177.339844 110.695312 176.78125 109.804688 176.355469 Z M 114.972656 179.878906 L 114.976562 179.886719 C 115.414062 180.558594 115.992188 181.433594 116.710938 182.515625 L 115.964844 183.015625 C 115.242188 181.929688 114.664062 181.050781 114.226562 180.378906 L 114.21875 180.371094 Z M 118.488281 185.199219 C 119.160156 186.242188 119.695312 187.128906 120.089844 187.851562 L 119.304688 188.28125 C 118.917969 187.578125 118.394531 186.710938 117.734375 185.6875 Z M 121.339844 190.832031 C 121.648438 192.058594 121.597656 193.179688 121.183594 194.195312 L 120.351562 193.859375 C 120.691406 193.023438 120.730469 192.089844 120.46875 191.050781 Z M 119.175781 196.820312 C 118.476562 197.433594 117.59375 198.054688 116.523438 198.6875 L 116.066406 197.917969 C 117.085938 197.3125 117.925781 196.71875 118.585938 196.144531 Z M 113.761719 200.167969 C 113.257812 200.410156 112.726562 200.664062 112.164062 200.917969 L 110.894531 201.5 L 110.523438 200.6875 L 111.792969 200.101562 C 112.347656 199.847656 112.871094 199.601562 113.367188 199.359375 Z M 108.066406 202.851562 C 107.105469 203.320312 106.167969 203.792969 105.257812 204.261719 L 104.84375 203.464844 C 105.761719 202.992188 106.703125 202.519531 107.671875 202.042969 Z M 102.488281 205.742188 C 101.550781 206.257812 100.640625 206.777344 99.761719 207.296875 L 99.304688 206.523438 C 100.191406 206 101.109375 205.476562 102.058594 204.953125 Z M 97.097656 208.933594 C 96.1875 209.511719 95.316406 210.09375 94.480469 210.675781 L 93.96875 209.941406 C 94.8125 209.351562 95.695312 208.761719 96.613281 208.175781 Z M 91.980469 212.515625 C 91.128906 213.171875 90.332031 213.832031 89.578125 214.488281 L 88.988281 213.8125 C 89.753906 213.144531 90.566406 212.476562 91.429688 211.804688 Z M 87.320312 216.617188 C 86.566406 217.386719 85.875 218.160156 85.253906 218.929688 L 84.554688 218.367188 C 85.195312 217.574219 85.90625 216.78125 86.679688 215.988281 Z M 83.460938 221.445312 C 82.902344 222.355469 82.433594 223.261719 82.058594 224.171875 L 81.230469 223.828125 C 81.621094 222.875 82.113281 221.925781 82.699219 220.976562 Z M 81.183594 227.082031 C 81.039062 227.84375 80.960938 228.605469 80.945312 229.363281 L 80.050781 229.347656 C 80.0625 228.539062 80.148438 227.726562 80.300781 226.914062 Z M 81.183594 227.082031 " fill-opacity="1" fill-rule="nonzero"/><path fill="#231f20" d="M 155.667969 230.894531 C 155.394531 230.164062 154.988281 229.226562 154.449219 228.085938 L 155.261719 227.703125 C 155.808594 228.867188 156.226562 229.824219 156.507812 230.578125 Z M 153.027344 225.285156 C 152.527344 224.359375 152.003906 223.460938 151.46875 222.59375 L 152.230469 222.121094 C 152.777344 223.003906 153.304688 223.917969 153.816406 224.859375 Z M 149.738281 219.992188 C 149.117188 219.121094 148.484375 218.296875 147.835938 217.523438 L 148.527344 216.949219 C 149.1875 217.738281 149.835938 218.578125 150.46875 219.46875 Z M 145.746094 215.234375 C 144.988281 214.480469 144.21875 213.792969 143.4375 213.179688 L 143.996094 212.472656 C 144.800781 213.113281 145.597656 213.820312 146.378906 214.597656 Z M 140.898438 211.441406 C 139.988281 210.910156 139.066406 210.472656 138.136719 210.128906 L 138.449219 209.285156 C 139.425781 209.648438 140.394531 210.109375 141.351562 210.664062 Z M 135.191406 209.359375 C 134.183594 209.203125 133.167969 209.152344 132.148438 209.207031 L 132.097656 208.308594 C 133.183594 208.25 134.261719 208.304688 135.328125 208.472656 Z M 129 208.480469 C 127.933594 208.160156 126.914062 207.796875 125.945312 207.398438 L 126.285156 206.570312 C 127.230469 206.957031 128.21875 207.308594 129.261719 207.621094 Z M 123.0625 206.007812 C 122.050781 205.433594 121.164062 204.820312 120.398438 204.171875 L 120.980469 203.488281 C 121.703125 204.101562 122.542969 204.683594 123.503906 205.226562 Z M 118.238281 201.730469 C 118.027344 201.394531 117.839844 201.046875 117.683594 200.695312 L 118.503906 200.328125 C 118.644531 200.644531 118.808594 200.949219 119 201.253906 Z M 118.238281 201.730469 " fill-opacity="1" fill-rule="nonzero"/><path fill="#231f20" d="M 106.363281 207.445312 C 106.527344 208.171875 106.964844 209.050781 107.671875 210.074219 L 106.933594 210.585938 C 106.160156 209.464844 105.679688 208.484375 105.488281 207.644531 Z M 109.675781 212.371094 C 110.394531 213.042969 111.199219 213.664062 112.085938 214.238281 L 111.597656 214.992188 C 110.667969 214.390625 109.824219 213.734375 109.0625 213.03125 Z M 114.777344 215.714844 C 115.679688 216.132812 116.636719 216.507812 117.648438 216.839844 L 117.367188 217.695312 C 116.324219 217.347656 115.335938 216.960938 114.402344 216.53125 Z M 120.640625 217.671875 C 121.617188 217.894531 122.636719 218.085938 123.691406 218.246094 L 123.558594 219.132812 C 122.480469 218.972656 121.4375 218.777344 120.4375 218.546875 Z M 126.769531 218.605469 L 127.710938 218.679688 L 127.738281 218.683594 C 128.308594 218.796875 129.046875 219.023438 129.949219 219.371094 L 129.628906 220.210938 C 128.773438 219.882812 128.085938 219.667969 127.566406 219.5625 L 127.652344 219.125 L 127.617188 219.570312 L 126.699219 219.5 Z M 132.847656 220.714844 C 133.777344 221.21875 134.679688 221.78125 135.558594 222.402344 L 135.039062 223.136719 C 134.191406 222.53125 133.316406 221.988281 132.421875 221.5 Z M 138.054688 224.394531 C 138.84375 225.097656 139.59375 225.851562 140.3125 226.648438 L 139.644531 227.246094 C 138.949219 226.476562 138.21875 225.746094 137.457031 225.0625 Z M 142.324219 229.132812 C 142.9375 229.976562 143.515625 230.863281 144.0625 231.785156 L 143.289062 232.238281 C 142.757812 231.34375 142.195312 230.484375 141.597656 229.660156 Z M 145.550781 234.585938 C 145.808594 235.128906 146.054688 235.683594 146.292969 236.246094 L 145.878906 236.421875 L 146.175781 236.085938 L 147.203125 236.992188 L 146.609375 237.664062 L 145.503906 236.6875 L 145.464844 236.59375 C 145.234375 236.042969 144.992188 235.503906 144.738281 234.972656 Z M 149.554688 239.070312 L 151.910156 241.148438 L 151.316406 241.820312 L 148.960938 239.742188 Z M 149.554688 239.070312 " fill-opacity="1" fill-rule="nonzero"/><path fill="#231f20" d="M 58.445312 209.402344 C 58.839844 210.082031 59.375 210.953125 60.058594 212.023438 L 59.304688 212.507812 C 58.613281 211.425781 58.070312 210.539062 57.671875 209.851562 Z M 61.792969 214.65625 C 62.378906 215.515625 62.96875 216.359375 63.5625 217.179688 L 62.835938 217.707031 C 62.238281 216.878906 61.640625 216.027344 61.050781 215.160156 Z M 65.46875 219.722656 C 66.128906 220.574219 66.785156 221.382812 67.429688 222.152344 L 66.746094 222.730469 C 66.089844 221.953125 65.429688 221.132812 64.761719 220.273438 Z M 69.511719 224.496094 C 70.261719 225.296875 70.996094 226.035156 71.714844 226.703125 L 71.101562 227.359375 C 70.367188 226.675781 69.621094 225.925781 68.859375 225.113281 Z M 74.074219 228.714844 C 74.957031 229.390625 75.808594 229.957031 76.632812 230.410156 L 76.203125 231.195312 C 75.339844 230.722656 74.445312 230.132812 73.527344 229.425781 Z M 79.433594 231.542969 C 79.601562 231.582031 79.765625 231.617188 79.929688 231.644531 C 80.640625 231.773438 81.464844 231.816406 82.390625 231.777344 L 82.429688 232.671875 C 81.4375 232.714844 80.550781 232.667969 79.769531 232.527344 C 79.589844 232.496094 79.40625 232.457031 79.222656 232.414062 Z M 85.441406 231.410156 C 86.386719 231.238281 87.398438 231.007812 88.480469 230.71875 L 88.710938 231.585938 C 87.605469 231.882812 86.570312 232.117188 85.605469 232.292969 Z M 91.476562 229.832031 C 92.421875 229.523438 93.40625 229.183594 94.433594 228.804688 L 94.742188 229.648438 C 93.707031 230.027344 92.710938 230.375 91.753906 230.683594 Z M 97.367188 227.671875 C 98.304688 227.296875 99.265625 226.894531 100.253906 226.46875 L 100.609375 227.292969 C 99.613281 227.722656 98.644531 228.125 97.703125 228.507812 Z M 103.117188 225.199219 C 104.046875 224.773438 104.992188 224.332031 105.953125 223.875 L 106.339844 224.683594 C 105.375 225.144531 104.425781 225.589844 103.488281 226.015625 Z M 108.78125 222.492188 C 109.734375 222.019531 110.671875 221.539062 111.597656 221.058594 L 112.011719 221.855469 C 111.082031 222.339844 110.136719 222.820312 109.183594 223.296875 Z M 114.367188 219.585938 L 114.53125 219.492188 L 114.964844 220.28125 L 114.800781 220.371094 Z M 114.367188 219.585938 " fill-opacity="1" fill-rule="nonzero"/><path fill="#231f20" d="M 127.742188 222.273438 C 127.039062 222.421875 126.042969 222.667969 124.753906 223.015625 L 124.523438 222.148438 C 125.824219 221.796875 126.835938 221.546875 127.558594 221.394531 Z M 121.753906 223.867188 C 120.769531 224.160156 119.769531 224.46875 118.757812 224.796875 L 118.480469 223.945312 C 119.5 223.613281 120.507812 223.300781 121.496094 223.007812 Z M 115.777344 225.796875 C 114.800781 226.136719 113.816406 226.488281 112.828125 226.851562 L 112.519531 226.011719 C 113.511719 225.644531 114.5 225.289062 115.484375 224.949219 Z M 109.90625 227.964844 C 108.9375 228.34375 107.96875 228.730469 107.003906 229.128906 L 106.660156 228.300781 C 107.632812 227.898438 108.605469 227.507812 109.578125 227.128906 Z M 104.113281 230.351562 C 103.152344 230.769531 102.191406 231.195312 101.234375 231.628906 L 100.863281 230.8125 C 101.824219 230.375 102.789062 229.945312 103.757812 229.527344 Z M 98.398438 232.953125 C 97.460938 233.398438 96.523438 233.855469 95.59375 234.320312 L 95.195312 233.515625 C 96.128906 233.050781 97.070312 232.589844 98.011719 232.140625 Z M 92.792969 235.746094 C 91.867188 236.230469 90.941406 236.722656 90.023438 237.222656 L 89.59375 236.433594 C 90.519531 235.929688 91.445312 235.4375 92.378906 234.949219 Z M 87.300781 238.734375 L 85.179688 239.957031 L 84.734375 239.179688 L 86.851562 237.957031 Z M 87.300781 238.734375 " fill-opacity="1" fill-rule="nonzero"/><path fill="#231f20" d="M 56.160156 226.632812 C 56.582031 227.304688 57.144531 228.175781 57.855469 229.234375 L 57.109375 229.734375 C 56.394531 228.664062 55.824219 227.789062 55.398438 227.105469 Z M 59.625 231.8125 C 60.234375 232.683594 60.847656 233.53125 61.453125 234.355469 L 60.734375 234.886719 C 60.121094 234.058594 59.507812 233.207031 58.890625 232.328125 Z M 63.34375 236.84375 C 64.015625 237.707031 64.679688 238.523438 65.328125 239.296875 L 64.640625 239.875 C 63.984375 239.09375 63.316406 238.265625 62.636719 237.394531 Z M 67.390625 241.65625 C 68.140625 242.476562 68.863281 243.21875 69.5625 243.890625 L 68.941406 244.539062 C 68.230469 243.855469 67.492188 243.097656 66.726562 242.265625 Z M 71.894531 245.925781 C 72.167969 246.140625 72.4375 246.339844 72.703125 246.523438 C 73.257812 246.910156 73.808594 247.367188 74.363281 247.894531 L 73.742188 248.542969 C 73.222656 248.050781 72.707031 247.621094 72.1875 247.257812 C 71.914062 247.066406 71.628906 246.855469 71.34375 246.632812 Z M 76.496094 250.289062 C 77.105469 251.074219 77.714844 251.945312 78.316406 252.898438 L 77.558594 253.378906 C 76.96875 252.449219 76.378906 251.601562 75.789062 250.839844 Z M 79.917969 255.644531 C 80.402344 256.546875 80.882812 257.496094 81.359375 258.492188 L 80.546875 258.878906 C 80.078125 257.894531 79.605469 256.957031 79.128906 256.074219 Z M 82.664062 261.414062 C 83.0625 262.355469 83.449219 263.320312 83.824219 264.300781 L 82.988281 264.621094 C 82.617188 263.648438 82.234375 262.695312 81.839844 261.765625 Z M 84.890625 267.265625 C 85.105469 267.902344 85.273438 268.410156 85.386719 268.789062 L 84.527344 269.050781 C 84.414062 268.679688 84.253906 268.179688 84.042969 267.554688 Z M 84.890625 267.265625 " fill-opacity="1" fill-rule="nonzero"/><path fill="#231f20" d="M 115.332031 194.320312 C 115.332031 194.320312 125.191406 187.199219 124.34375 184.539062 C 123.496094 181.878906 121.011719 178.6875 119.863281 178.6875 C 119.863281 178.6875 120.5625 180.984375 118.964844 182.132812 C 117.371094 183.28125 108.953125 189.089844 110.546875 192.917969 C 112.144531 196.746094 113.890625 195.410156 115.332031 194.320312 Z M 115.332031 194.320312 " fill-opacity="1" fill-rule="nonzero"/><path fill="#231f20" d="M 106.601562 184.507812 C 104.898438 188.441406 98.453125 204.078125 89.363281 234.871094 L 85.730469 241.414062 L 80.160156 259.585938 L 77.980469 258.375 C 77.980469 258.375 83.660156 241.699219 82.6875 234.546875 C 81.71875 227.390625 98.570312 178.972656 103.171875 178.691406 C 105.472656 178.550781 106.441406 179.75 106.835938 180.988281 C 107.203125 182.140625 107.082031 183.394531 106.601562 184.507812 Z M 106.601562 184.507812 " fill-opacity="1" fill-rule="nonzero"/><path fill="#e79301" d="M 124.699219 193.90625 L 156.089844 195.464844 L 157.496094 193.921875 L 172.832031 204.789062 L 177.882812 215.214844 L 188.46875 221.832031 L 193.03125 224.546875 L 196.703125 228.460938 L 200.199219 231.007812 L 210.949219 234.769531 C 210.949219 234.769531 228.214844 234.117188 223.816406 246.011719 C 221.652344 247.296875 209.128906 240.15625 206.390625 239.953125 C 188.625 238.636719 198.898438 253.703125 198.898438 253.703125 C 198.898438 253.703125 195.253906 247.621094 186.953125 243.792969 C 182.199219 241.601562 160.792969 225.011719 160.792969 225.011719 L 147.292969 207.542969 L 124.347656 198.980469 Z M 124.699219 193.90625 " fill-opacity="1" fill-rule="nonzero"/><path fill="#231f20" d="M 128.09375 208.515625 C 123.703125 215.191406 128.09375 215.011719 128.09375 215.011719 C 128.09375 215.011719 130.195312 214.1875 135.226562 209.519531 C 140.257812 204.855469 146.296875 211.625 146.296875 211.625 C 146.296875 211.625 140.992188 212.355469 140.898438 219.035156 C 140.808594 225.714844 144.925781 223.246094 144.925781 223.246094 C 145.746094 220.683594 151.144531 217.390625 151.144531 217.390625 L 154.984375 222.972656 L 158.003906 222.972656 L 152.332031 228.277344 C 152.332031 228.277344 147.210938 236.421875 153.15625 236.242188 C 159.101562 236.058594 157.453125 231.023438 160.75 229.378906 C 164.042969 227.730469 168.15625 230.476562 168.15625 230.476562 C 168.15625 230.476562 163.769531 233.039062 163.402344 238.527344 C 163.035156 244.019531 168.800781 243.195312 168.800781 241.640625 C 168.800781 240.085938 173.28125 235.875 173.28125 235.875 L 176.667969 239.441406 C 171.359375 244.109375 172.003906 246.578125 172.003906 246.578125 C 171.089844 254.8125 177.855469 251.976562 177.855469 250.605469 C 177.855469 249.230469 182.246094 243.925781 182.246094 243.925781 L 188.648438 246.855469 C 188.648438 246.855469 183.164062 252.070312 185.355469 255.265625 C 187.550781 258.464844 190.839844 255.265625 190.839844 255.265625 C 192.429688 249.964844 208.730469 240.019531 208.730469 240.019531 L 216.914062 234.777344 C 213.53125 233.039062 209.964844 232.945312 209.964844 232.945312 L 203.285156 237.246094 L 198.988281 237.335938 C 193.589844 236.515625 192.308594 238.984375 192.308594 238.984375 L 185.449219 241.363281 C 185.449219 241.363281 190.296875 235.324219 192.949219 233.949219 C 195.601562 232.578125 204.933594 232.121094 204.933594 232.121094 L 196.699219 228.460938 C 197.15625 224.707031 195.328125 224.984375 191.578125 221.78125 C 187.828125 218.578125 185.175781 219.3125 185.175781 219.3125 C 185.175781 219.3125 185.175781 219.3125 181.699219 216.382812 C 178.222656 213.453125 174.835938 214.1875 174.835938 214.1875 L 170.71875 210.617188 L 173.375 209.335938 L 176.667969 212.722656 C 176.667969 212.722656 177.945312 212.449219 179.503906 210.621094 C 181.058594 208.789062 179.320312 207.324219 176.300781 204.121094 C 173.28125 200.921875 170.539062 202.84375 170.539062 202.84375 L 165.78125 204.398438 L 163.402344 200.511719 L 166.148438 199.457031 L 159.652344 193.601562 C 163.3125 187.925781 159.378906 184.542969 159.378906 184.542969 C 159.742188 189.390625 154.347656 191.679688 154.347656 191.679688 L 125.714844 188.476562 L 124.34375 195.796875 L 142.636719 198.175781 C 142.640625 198.171875 132.484375 201.832031 128.09375 208.515625 Z M 178.648438 232.085938 C 178.648438 232.085938 183.285156 227.699219 183.5 227.554688 C 183.710938 227.414062 186.261719 226.210938 185.554688 225.644531 C 184.84375 225.078125 184.417969 224.300781 190.683594 223.695312 C 190.683594 223.695312 193.058594 225.113281 195.25 228.121094 Z M 166.125 224.546875 L 170.015625 219.589844 C 170.015625 219.589844 170.015625 219.589844 174.972656 219.199219 C 179.925781 218.8125 183.996094 220.015625 183.996094 220.015625 C 168.847656 222.953125 166.125 224.546875 166.125 224.546875 Z M 147.289062 204.070312 C 147.289062 204.070312 154.910156 200.554688 155.46875 199.355469 C 156.023438 198.15625 161.421875 199.957031 160.734375 202.957031 C 160.050781 205.957031 158.164062 206.339844 158.164062 206.339844 C 158.164062 206.339844 163.429688 206.855469 164.886719 214.734375 C 164.886719 214.734375 156.75 214.734375 155.550781 216.109375 C 155.550781 216.109375 153.878906 209.554688 151.484375 209.253906 C 151.484375 209.253906 151.3125 202.785156 147.289062 204.070312 Z M 147.289062 204.070312 " fill-opacity="1" fill-rule="nonzero"/><g clip-path="url(#3c9734a4ca)"><path fill="#dbcbc9" d="M 320.914062 311.601562 C 320.914062 311.601562 321.019531 300.964844 318.039062 276.070312 L 315.0625 256.597656 L 313.148438 254.683594 C 313.148438 254.683594 313.363281 236.8125 310.488281 234.894531 C 310.488281 234.894531 309.914062 226.835938 296.84375 226.308594 C 283.777344 225.785156 277.996094 224.734375 277.996094 224.734375 C 277.996094 224.734375 275.9375 218.6875 250.425781 213.429688 L 229.355469 205.210938 C 229.355469 205.210938 224.632812 202.765625 223.492188 206.1875 C 222.351562 209.609375 220.070312 211.730469 220.070312 211.730469 C 220.070312 211.730469 215.671875 212.214844 215.671875 219.0625 C 215.671875 219.0625 211.457031 239.039062 213.890625 245.179688 C 216.328125 251.324219 217.628906 251.8125 217.628906 251.8125 L 201.992188 262.890625 L 196.941406 273.316406 L 186.355469 279.933594 L 181.792969 282.648438 L 178.121094 286.5625 L 174.625 289.109375 L 163.875 292.871094 C 163.875 292.871094 146.609375 292.21875 151.007812 304.113281 C 151.007812 304.113281 107.84375 315.84375 97.257812 323.828125 C 97.257812 323.828125 94.324219 326.109375 91.71875 334.421875 C 91.71875 334.421875 86.519531 337.011719 85.128906 345.328125 C 85.128906 345.328125 81.832031 354.160156 100.015625 360.859375 C 118.203125 367.5625 150.851562 374.902344 178.824219 373.734375 C 206.792969 372.5625 212.539062 372.882812 245.929688 363.625 C 279.324219 354.371094 313.355469 345.328125 313.355469 345.328125 C 313.355469 345.328125 322.078125 341.816406 322.183594 326.285156 C 322.292969 310.753906 320.914062 311.601562 320.914062 311.601562 Z M 320.914062 311.601562 " fill-opacity="1" fill-rule="nonzero"/></g><g clip-path="url(#90f2f733b3)"><path fill="#e4c620" d="M 322.1875 326.285156 C 322.292969 310.753906 320.914062 311.601562 320.914062 311.601562 C 320.914062 311.601562 320.914062 311.597656 320.914062 311.59375 C 307.140625 320.148438 277.125 336.082031 229.347656 347.828125 C 158.953125 365.136719 119.824219 348.488281 108.230469 345.273438 C 95.410156 341.714844 92.476562 336.628906 92.097656 333.265625 C 91.972656 333.636719 91.847656 334.019531 91.722656 334.417969 C 91.722656 334.417969 86.523438 337.007812 85.128906 345.324219 C 85.128906 345.324219 81.835938 354.15625 100.019531 360.859375 C 118.207031 367.558594 150.855469 374.902344 178.824219 373.730469 C 206.796875 372.558594 212.539062 372.878906 245.933594 363.625 C 279.328125 354.367188 313.363281 345.324219 313.363281 345.324219 C 313.363281 345.324219 322.082031 341.816406 322.1875 326.285156 Z M 322.1875 326.285156 " fill-opacity="1" fill-rule="nonzero"/></g><path fill="#f20000" d="M 205.390625 366.226562 C 194.34375 367.203125 187.605469 367.320312 181.769531 367.210938 C 158.308594 366.773438 154.515625 367.933594 111.855469 357.984375 C 99.761719 355.164062 90.679688 349.292969 85.1875 345.007812 C 85.167969 345.117188 85.148438 345.21875 85.128906 345.328125 C 85.128906 345.328125 81.832031 354.160156 100.015625 360.859375 C 118.203125 367.5625 150.851562 374.902344 178.824219 373.734375 C 206.792969 372.5625 212.539062 372.882812 245.929688 363.625 C 279.324219 354.371094 313.359375 345.328125 313.359375 345.328125 C 313.359375 345.328125 317.597656 343.613281 320.199219 337.316406 C 278.617188 350.808594 224.773438 364.511719 205.390625 366.226562 Z M 205.390625 366.226562 " fill-opacity="1" fill-rule="nonzero"/><path fill="#f20000" d="M 215.261719 228.707031 C 215.734375 236.359375 214.03125 240.800781 214.03125 240.800781 L 215.449219 240.042969 C 215.449219 240.042969 216.015625 234.941406 217.148438 227.097656 C 217.847656 222.277344 219.292969 215.785156 220.300781 211.492188 C 220.15625 211.644531 220.070312 211.722656 220.070312 211.722656 C 220.070312 211.722656 217.851562 211.976562 216.566406 214.574219 C 215.742188 219.65625 215.046875 225.246094 215.261719 228.707031 Z M 215.261719 228.707031 " fill-opacity="1" fill-rule="nonzero"/><path fill="#f20000" d="M 259.511719 231.175781 L 249.109375 246.574219 L 250.125 252.007812 C 250.222656 246.75 254.402344 242.171875 262.734375 232.550781 C 271.0625 222.925781 281.476562 229.277344 296.84375 234.734375 C 304.449219 237.433594 308.753906 236.925781 311.164062 235.722656 C 310.960938 235.34375 310.738281 235.0625 310.492188 234.898438 C 310.492188 234.898438 309.914062 226.835938 296.84375 226.3125 C 292.113281 226.121094 288.339844 225.863281 285.445312 225.609375 C 282.984375 225.375 282.984375 225.375 277.996094 224.734375 C 263.578125 222.882812 259.511719 231.175781 259.511719 231.175781 Z M 259.511719 231.175781 " fill-opacity="1" fill-rule="nonzero"/><path fill="#f20000" d="M 230.242188 211.492188 C 230.242188 211.492188 221.679688 216.042969 220.304688 235.230469 L 218.734375 239.246094 L 245.984375 246.921875 C 245.984375 246.921875 252.535156 221.863281 256.386719 220.878906 C 260.238281 219.898438 230.242188 211.492188 230.242188 211.492188 Z M 230.242188 211.492188 " fill-opacity="1" fill-rule="nonzero"/><path fill="#f20000" d="M 318.039062 276.070312 L 317.378906 271.730469 C 313.8125 278.085938 308.210938 285.792969 299.925781 291.710938 C 282.890625 303.875 254.863281 319.816406 260.519531 289.109375 C 260.519531 289.109375 248.476562 296.816406 247.269531 309.042969 C 246.0625 321.261719 256.21875 324.707031 262.582031 323.328125 C 268.949219 321.949219 314.335938 300.0625 318.488281 279.9375 C 318.347656 278.683594 318.199219 277.402344 318.039062 276.070312 Z M 318.039062 276.070312 " fill-opacity="1" fill-rule="nonzero"/><path fill="#231f20" d="M 223.304688 206.625 L 226.292969 207.585938 L 226.019531 208.441406 L 223.027344 207.480469 Z M 229.28125 208.550781 L 232.273438 209.511719 L 231.996094 210.367188 L 229.007812 209.402344 Z M 235.261719 210.476562 L 238.25 211.4375 L 237.976562 212.292969 L 234.988281 211.328125 Z M 241.238281 212.402344 L 244.0625 213.308594 L 244.242188 213.375 L 243.9375 214.21875 L 243.765625 214.15625 L 243.917969 213.734375 L 243.78125 214.164062 L 240.964844 213.253906 Z M 247.195312 214.441406 L 250.148438 215.507812 L 249.84375 216.351562 L 246.890625 215.285156 Z M 253.105469 216.574219 L 256.058594 217.640625 L 255.753906 218.484375 L 252.800781 217.417969 Z M 259.011719 218.707031 L 261.964844 219.773438 L 261.660156 220.621094 L 258.707031 219.550781 Z M 264.917969 220.84375 L 267.871094 221.910156 L 267.566406 222.753906 L 264.613281 221.6875 Z M 264.917969 220.84375 " fill-opacity="1" fill-rule="nonzero"/><path stroke-linecap="butt" transform="matrix(0.206783, 0, 0, 0.206855, -19.37152, 72.461539)" fill="none" stroke-linejoin="miter" d="M 513.220608 1293.855036 C 513.220608 1293.855036 513.97623 1296.083351 517.584326 1300.011228 " stroke="#231f20" stroke-width="4.339" stroke-opacity="1" stroke-miterlimit="10"/><path fill="#231f20" d="M 90.308594 343.0625 C 91.074219 343.613281 91.941406 344.167969 92.914062 344.726562 L 92.464844 345.503906 C 91.46875 344.929688 90.574219 344.359375 89.785156 343.792969 Z M 95.671875 346.1875 C 96.566406 346.625 97.515625 347.0625 98.523438 347.5 L 98.167969 348.320312 C 97.148438 347.878906 96.183594 347.4375 95.277344 346.992188 Z M 101.417969 348.6875 L 102.210938 348.992188 C 102.878906 349.246094 103.59375 349.503906 104.367188 349.765625 L 104.078125 350.617188 C 103.296875 350.347656 102.566406 350.085938 101.890625 349.828125 L 101.097656 349.523438 Z M 107.363281 350.734375 C 108.328125 351.027344 109.332031 351.324219 110.382812 351.617188 L 110.140625 352.480469 C 109.085938 352.1875 108.070312 351.890625 107.101562 351.59375 Z M 113.410156 352.429688 L 116.46875 353.195312 L 116.25 354.066406 L 113.191406 353.300781 Z M 119.527344 353.90625 L 122.613281 354.570312 L 122.425781 355.449219 L 119.339844 354.78125 Z M 125.695312 355.191406 L 128.773438 355.769531 L 128.609375 356.652344 L 125.53125 356.074219 Z M 131.84375 356.304688 L 135.015625 356.816406 L 134.875 357.703125 L 131.703125 357.191406 Z M 138.074219 357.273438 L 141.230469 357.703125 L 141.109375 358.589844 L 137.953125 358.160156 Z M 144.339844 358.089844 L 147.464844 358.441406 L 147.363281 359.332031 L 144.242188 358.980469 Z M 150.644531 358.761719 L 153.742188 359.035156 L 153.664062 359.929688 L 150.566406 359.652344 Z M 156.882812 359.273438 L 160.058594 359.480469 L 160 360.375 L 156.824219 360.171875 Z M 163.167969 359.644531 L 166.332031 359.773438 L 166.296875 360.671875 L 163.132812 360.542969 Z M 169.492188 359.863281 L 172.625 359.914062 L 172.609375 360.8125 L 169.476562 360.761719 Z M 175.78125 359.925781 L 178.945312 359.898438 L 178.953125 360.796875 L 175.789062 360.824219 Z M 182.070312 359.832031 L 185.234375 359.71875 L 185.265625 360.617188 L 182.101562 360.726562 Z M 188.382812 359.570312 L 191.515625 359.378906 L 191.574219 360.273438 L 188.4375 360.464844 Z M 194.65625 359.140625 L 197.8125 358.859375 L 197.894531 359.753906 L 194.734375 360.035156 Z M 200.925781 358.539062 L 204.058594 358.167969 L 204.164062 359.058594 L 201.03125 359.429688 Z M 207.191406 357.753906 L 210.296875 357.292969 L 210.429688 358.179688 L 207.324219 358.640625 Z M 213.394531 356.785156 L 216.511719 356.222656 L 216.671875 357.105469 L 213.554688 357.667969 Z M 219.589844 355.617188 L 222.667969 354.960938 L 222.855469 355.835938 L 219.777344 356.496094 Z M 225.738281 354.25 L 227.429688 353.835938 L 228.816406 353.488281 L 229.035156 354.359375 L 227.644531 354.707031 L 225.949219 355.121094 Z M 231.875 352.699219 L 234.914062 351.894531 L 235.140625 352.765625 L 232.105469 353.566406 Z M 237.960938 351.066406 L 241.003906 350.214844 L 241.246094 351.078125 L 238.203125 351.929688 Z M 244.011719 349.351562 L 247.0625 348.457031 L 247.3125 349.316406 L 244.261719 350.214844 Z M 250.070312 347.550781 L 253.082031 346.621094 L 253.347656 347.480469 L 250.332031 348.40625 Z M 256.097656 345.671875 L 259.074219 344.714844 L 259.351562 345.566406 L 256.375 346.527344 Z M 262.097656 343.71875 L 265.078125 342.71875 L 265.363281 343.570312 L 262.382812 344.570312 Z M 268.058594 341.699219 L 271.046875 340.65625 L 271.34375 341.503906 L 268.355469 342.546875 Z M 273.992188 339.609375 L 276.988281 338.519531 L 277.292969 339.367188 L 274.296875 340.453125 Z M 279.90625 337.445312 L 282.898438 336.320312 L 283.214844 337.160156 L 280.222656 338.285156 Z M 285.808594 335.207031 L 288.785156 334.046875 L 289.109375 334.882812 L 286.132812 336.042969 Z M 291.679688 332.902344 L 294.644531 331.707031 L 294.976562 332.539062 L 292.011719 333.734375 Z M 297.507812 330.53125 L 300.46875 329.296875 L 300.816406 330.125 L 297.851562 331.359375 Z M 303.355469 328.070312 L 306.238281 326.824219 L 306.59375 327.648438 L 303.710938 328.894531 Z M 309.15625 325.542969 L 312.035156 324.25 L 312.402344 325.070312 L 309.523438 326.363281 Z M 314.890625 322.945312 L 317.761719 321.601562 L 318.140625 322.414062 L 315.269531 323.757812 Z M 314.890625 322.945312 " fill-opacity="1" fill-rule="nonzero"/><g clip-path="url(#b92bb2f67c)"><path stroke-linecap="butt" transform="matrix(0.206783, 0, 0, 0.206855, -19.37152, 72.461539)" fill="none" stroke-linejoin="miter" d="M 1644.726957 1199.944773 C 1649.204018 1197.754226 1651.527556 1196.583416 1651.527556 1196.583416 " stroke="#231f20" stroke-width="4.339" stroke-opacity="1" stroke-miterlimit="10"/></g><path fill="#231f20" d="M 103.035156 320.238281 C 102.953125 320.355469 102.902344 320.539062 102.886719 320.792969 C 102.851562 321.355469 103.078125 321.964844 103.566406 322.617188 L 102.847656 323.15625 C 102.230469 322.324219 101.941406 321.519531 101.992188 320.738281 C 102.015625 320.316406 102.121094 319.976562 102.300781 319.722656 Z M 105.785156 324.628906 C 106.535156 325.144531 107.417969 325.65625 108.433594 326.164062 L 108.03125 326.96875 C 106.976562 326.441406 106.058594 325.90625 105.277344 325.367188 Z M 111.273438 327.441406 C 112.171875 327.808594 113.140625 328.167969 114.175781 328.527344 L 113.882812 329.375 C 112.832031 329.011719 111.851562 328.644531 110.933594 328.273438 Z M 117.160156 329.496094 C 118.121094 329.789062 119.121094 330.074219 120.167969 330.359375 L 119.933594 331.226562 C 118.878906 330.9375 117.867188 330.648438 116.898438 330.355469 Z M 123.214844 331.09375 C 124.230469 331.304688 125.25 331.476562 126.28125 331.621094 L 126.160156 332.507812 C 125.109375 332.363281 124.070312 332.1875 123.035156 331.972656 Z M 129.375 331.941406 C 130.410156 332.015625 131.445312 332.058594 132.484375 332.0625 L 132.480469 332.960938 C 131.417969 332.953125 130.363281 332.914062 129.3125 332.839844 Z M 135.589844 332.003906 L 138.746094 331.929688 L 138.765625 332.828125 L 135.609375 332.902344 Z M 141.839844 331.890625 L 145.023438 331.882812 L 145.023438 332.78125 L 141.84375 332.789062 Z M 148.164062 331.910156 L 151.324219 331.984375 L 151.304688 332.882812 L 148.144531 332.808594 Z M 154.476562 332.101562 C 155.558594 332.152344 156.609375 332.210938 157.636719 332.277344 L 157.582031 333.171875 C 156.558594 333.105469 155.511719 333.050781 154.433594 333 Z M 160.777344 332.515625 C 161.867188 332.609375 162.925781 332.714844 163.941406 332.832031 L 163.839844 333.722656 C 162.832031 333.609375 161.78125 333.503906 160.699219 333.410156 Z M 167.039062 333.234375 C 168.152344 333.398438 169.207031 333.578125 170.210938 333.773438 L 170.042969 334.652344 C 169.050781 334.460938 168.007812 334.285156 166.910156 334.125 Z M 173.261719 334.449219 C 174.359375 334.726562 175.375 335.027344 176.304688 335.351562 L 176.011719 336.199219 C 175.105469 335.882812 174.113281 335.589844 173.039062 335.316406 Z M 179.238281 336.382812 C 180.246094 336.71875 181.242188 337.03125 182.222656 337.316406 L 181.972656 338.179688 C 180.980469 337.890625 179.972656 337.574219 178.953125 337.234375 Z M 185.242188 338.125 C 186.347656 338.390625 187.378906 338.605469 188.34375 338.769531 L 188.191406 339.652344 C 187.207031 339.484375 186.15625 339.265625 185.03125 338.996094 Z M 191.363281 339.121094 C 192.585938 339.1875 193.582031 339.117188 194.355469 338.914062 L 194.582031 339.785156 C 193.722656 340.007812 192.632812 340.085938 191.316406 340.019531 Z M 196.144531 337.28125 C 196.242188 336.570312 196 335.648438 195.421875 334.515625 L 196.21875 334.105469 C 196.882812 335.40625 197.15625 336.503906 197.035156 337.398438 Z M 193.78125 331.9375 C 193.226562 331.183594 192.578125 330.378906 191.835938 329.523438 L 192.515625 328.933594 C 193.273438 329.808594 193.9375 330.632812 194.503906 331.402344 Z M 193.78125 331.9375 " fill-opacity="1" fill-rule="nonzero"/><path fill="#231f20" d="M 219.195312 349.644531 C 218.722656 349.066406 218.050781 348.296875 217.179688 347.328125 L 217.847656 346.726562 C 218.726562 347.707031 219.40625 348.488281 219.886719 349.074219 Z M 215.035156 345.007812 C 214.324219 344.257812 213.601562 343.511719 212.867188 342.769531 L 213.503906 342.136719 C 214.246094 342.882812 214.972656 343.632812 215.6875 344.390625 Z M 210.636719 340.566406 C 209.878906 339.839844 209.121094 339.125 208.355469 338.417969 L 208.960938 337.757812 C 209.734375 338.46875 210.5 339.1875 211.257812 339.921875 Z M 206.023438 336.324219 C 205.230469 335.628906 204.4375 334.949219 203.640625 334.285156 L 204.214844 333.59375 C 205.019531 334.265625 205.816406 334.949219 206.613281 335.648438 Z M 201.207031 332.308594 C 200.378906 331.652344 199.550781 331.015625 198.726562 330.402344 L 199.261719 329.679688 C 200.09375 330.300781 200.929688 330.941406 201.765625 331.601562 Z M 196.207031 328.582031 C 195.335938 327.972656 194.464844 327.386719 193.597656 326.820312 L 194.089844 326.070312 C 194.964844 326.636719 195.839844 327.230469 196.722656 327.847656 Z M 190.941406 325.164062 C 190.03125 324.617188 189.128906 324.101562 188.230469 323.609375 L 188.660156 322.820312 C 189.570312 323.316406 190.484375 323.839844 191.402344 324.390625 Z M 185.429688 322.148438 C 184.425781 321.613281 183.511719 321.082031 182.6875 320.550781 L 183.175781 319.796875 C 183.976562 320.3125 184.867188 320.832031 185.851562 321.355469 Z M 180.121094 318.640625 C 179.1875 317.820312 178.46875 317.003906 177.964844 316.1875 L 178.730469 315.71875 C 179.1875 316.457031 179.847656 317.207031 180.710938 317.964844 Z M 177.109375 312.925781 C 177.207031 311.867188 177.675781 310.847656 178.511719 309.867188 L 179.191406 310.449219 C 178.480469 311.285156 178.082031 312.140625 178 313.007812 Z M 181.027344 307.746094 C 181.945312 307.15625 182.816406 306.703125 183.632812 306.386719 L 183.796875 306.808594 L 183.605469 306.402344 L 183.84375 306.289062 L 184.222656 307.101562 L 183.972656 307.21875 L 183.957031 307.226562 C 183.195312 307.519531 182.378906 307.945312 181.511719 308.5 Z M 186.644531 304.941406 C 187.589844 304.476562 188.523438 304.007812 189.445312 303.539062 L 189.851562 304.335938 C 188.925781 304.808594 187.988281 305.28125 187.042969 305.746094 Z M 192.199219 302.101562 C 193.179688 301.578125 194.109375 301.070312 194.996094 300.570312 L 195.433594 301.355469 C 194.546875 301.855469 193.609375 302.367188 192.621094 302.890625 Z M 197.699219 299 C 198.671875 298.414062 199.554688 297.855469 200.34375 297.328125 L 200.84375 298.074219 C 200.039062 298.613281 199.144531 299.175781 198.164062 299.769531 Z M 202.847656 295.507812 C 203.867188 294.6875 204.566406 293.976562 204.945312 293.378906 L 205.703125 293.859375 C 205.269531 294.539062 204.507812 295.320312 203.414062 296.207031 Z M 206.335938 290.53125 C 207.089844 289.597656 208.015625 288.960938 209.109375 288.617188 L 209.378906 289.476562 C 208.457031 289.761719 207.675781 290.304688 207.03125 291.097656 Z M 212.496094 288.804688 C 213.453125 289.238281 214.28125 289.984375 214.980469 291.039062 L 214.234375 291.535156 C 213.628906 290.621094 212.925781 289.984375 212.125 289.621094 Z M 216.328125 293.992188 C 216.417969 294.285156 216.503906 294.585938 216.582031 294.898438 C 216.753906 295.59375 216.945312 296.3125 217.148438 297.054688 L 216.28125 297.292969 C 216.078125 296.542969 215.886719 295.816406 215.710938 295.113281 C 215.636719 294.820312 215.558594 294.535156 215.472656 294.257812 Z M 218.007812 300.050781 C 218.304688 301.039062 218.621094 302.039062 218.949219 303.042969 L 218.09375 303.320312 C 217.765625 302.308594 217.449219 301.304688 217.148438 300.308594 Z M 219.957031 306.011719 C 220.300781 306.996094 220.660156 307.976562 221.027344 308.957031 L 220.1875 309.273438 C 219.816406 308.289062 219.457031 307.300781 219.109375 306.3125 Z M 222.140625 311.824219 C 222.535156 312.800781 222.9375 313.773438 223.351562 314.738281 L 222.523438 315.089844 C 222.109375 314.121094 221.707031 313.144531 221.308594 312.15625 Z M 224.613281 317.605469 C 225.046875 318.558594 225.488281 319.5 225.9375 320.433594 L 225.128906 320.824219 C 224.675781 319.886719 224.234375 318.9375 223.796875 317.976562 Z M 227.355469 323.28125 C 227.832031 324.214844 228.320312 325.140625 228.820312 326.054688 L 228.03125 326.484375 C 227.53125 325.5625 227.039062 324.632812 226.558594 323.691406 Z M 230.347656 328.777344 C 230.875 329.6875 231.410156 330.582031 231.949219 331.464844 L 231.1875 331.933594 C 230.640625 331.046875 230.101562 330.144531 229.570312 329.226562 Z M 233.628906 334.109375 C 234.203125 334.992188 234.789062 335.855469 235.382812 336.707031 L 234.644531 337.21875 C 234.046875 336.363281 233.457031 335.488281 232.875 334.601562 Z M 237.207031 339.242188 C 237.835938 340.085938 238.46875 340.910156 239.113281 341.71875 L 238.410156 342.277344 C 237.761719 341.460938 237.121094 340.628906 236.488281 339.777344 Z M 237.207031 339.242188 " fill-opacity="1" fill-rule="nonzero"/><path fill="#231f20" d="M 314.835938 256.984375 L 312.128906 255.394531 L 312.585938 254.621094 L 315.289062 256.210938 Z M 309.421875 253.800781 L 306.714844 252.207031 L 307.171875 251.433594 L 309.878906 253.027344 Z M 304.007812 250.613281 L 301.304688 249.019531 L 301.757812 248.246094 L 304.464844 249.839844 Z M 298.597656 247.425781 L 295.890625 245.832031 L 296.34375 245.058594 L 299.050781 246.652344 Z M 293.183594 244.242188 L 290.476562 242.648438 L 290.929688 241.875 L 293.636719 243.46875 Z M 287.769531 241.054688 L 285.0625 239.460938 L 285.519531 238.6875 L 288.226562 240.28125 Z M 282.355469 237.867188 L 281.171875 237.167969 L 281.160156 237.164062 C 280.796875 236.921875 280.304688 236.632812 279.679688 236.296875 L 280.105469 235.503906 C 280.753906 235.855469 281.273438 236.15625 281.65625 236.414062 L 281.410156 236.789062 L 281.636719 236.402344 L 282.8125 237.09375 Z M 276.878906 234.984375 C 275.886719 234.585938 274.914062 234.265625 273.960938 234.015625 L 274.183594 233.148438 C 275.175781 233.402344 276.1875 233.738281 277.214844 234.152344 Z M 270.921875 233.492188 C 269.859375 233.410156 268.847656 233.4375 267.894531 233.585938 L 267.757812 232.699219 C 268.78125 232.542969 269.859375 232.507812 270.996094 232.597656 Z M 265.019531 234.457031 C 264.128906 234.882812 263.304688 235.441406 262.554688 236.132812 L 261.949219 235.472656 C 262.765625 234.71875 263.660156 234.109375 264.632812 233.648438 Z M 260.601562 238.472656 C 260.601562 238.472656 260.601562 238.476562 260.597656 238.480469 C 260.160156 239.152344 259.578125 240.03125 258.855469 241.117188 L 258.109375 240.617188 C 258.832031 239.539062 259.410156 238.664062 259.847656 237.992188 C 259.847656 237.984375 259.851562 237.984375 259.851562 237.980469 Z M 257.089844 243.789062 C 256.425781 244.8125 255.902344 245.679688 255.519531 246.382812 L 254.730469 245.953125 C 255.128906 245.230469 255.660156 244.34375 256.335938 243.300781 Z M 254.355469 249.152344 C 254.09375 250.1875 254.132812 251.125 254.472656 251.960938 L 253.640625 252.296875 C 253.226562 251.28125 253.175781 250.160156 253.484375 248.933594 Z M 256.238281 254.246094 C 256.898438 254.820312 257.734375 255.410156 258.757812 256.019531 L 258.296875 256.789062 C 257.230469 256.15625 256.347656 255.535156 255.648438 254.921875 Z M 261.457031 257.460938 C 261.949219 257.703125 262.476562 257.949219 263.03125 258.203125 L 264.300781 258.789062 L 263.925781 259.601562 L 262.660156 259.019531 C 262.097656 258.765625 261.5625 258.511719 261.0625 258.269531 Z M 267.152344 260.144531 C 268.117188 260.617188 269.0625 261.09375 269.976562 261.566406 L 269.566406 262.363281 C 268.65625 261.894531 267.71875 261.421875 266.757812 260.953125 Z M 272.765625 263.054688 C 273.714844 263.578125 274.632812 264.101562 275.519531 264.625 L 275.0625 265.398438 C 274.183594 264.878906 273.273438 264.359375 272.332031 263.84375 Z M 278.210938 266.277344 C 279.128906 266.863281 280.011719 267.453125 280.855469 268.042969 L 280.339844 268.777344 C 279.507812 268.195312 278.636719 267.613281 277.726562 267.035156 Z M 283.394531 269.90625 C 284.257812 270.578125 285.070312 271.246094 285.835938 271.914062 L 285.246094 272.589844 C 284.492188 271.933594 283.695312 271.273438 282.84375 270.617188 Z M 288.144531 274.089844 C 288.917969 274.882812 289.628906 275.675781 290.269531 276.46875 L 289.570312 277.03125 C 288.945312 276.261719 288.257812 275.488281 287.503906 274.71875 Z M 292.125 279.078125 C 292.710938 280.027344 293.199219 280.976562 293.59375 281.929688 L 292.761719 282.273438 C 292.390625 281.363281 291.921875 280.457031 291.359375 279.546875 Z M 294.523438 285.015625 C 294.675781 285.828125 294.761719 286.640625 294.773438 287.449219 L 293.875 287.464844 C 293.863281 286.707031 293.785156 285.945312 293.640625 285.183594 Z M 294.523438 285.015625 " fill-opacity="1" fill-rule="nonzero"/><path fill="#231f20" d="M 218.316406 288.679688 C 218.597656 287.921875 219.011719 286.964844 219.5625 285.804688 L 220.375 286.1875 C 219.835938 287.324219 219.429688 288.261719 219.15625 288.992188 Z M 221.007812 282.957031 C 221.515625 282.015625 222.046875 281.101562 222.59375 280.21875 L 223.355469 280.691406 C 222.816406 281.5625 222.296875 282.457031 221.792969 283.386719 Z M 224.355469 277.566406 C 224.988281 276.679688 225.636719 275.839844 226.296875 275.046875 L 226.988281 275.621094 C 226.339844 276.394531 225.707031 277.21875 225.085938 278.089844 Z M 228.445312 272.699219 C 229.226562 271.917969 230.023438 271.210938 230.828125 270.574219 L 231.386719 271.277344 C 230.605469 271.894531 229.835938 272.578125 229.078125 273.335938 Z M 233.472656 268.761719 C 234.429688 268.207031 235.398438 267.746094 236.375 267.386719 L 236.6875 268.226562 C 235.757812 268.570312 234.835938 269.007812 233.921875 269.539062 Z M 239.496094 266.570312 C 240.5625 266.40625 241.640625 266.351562 242.726562 266.410156 L 242.675781 267.304688 C 241.652344 267.25 240.640625 267.300781 239.632812 267.457031 Z M 245.5625 265.71875 C 246.601562 265.40625 247.59375 265.054688 248.539062 264.667969 L 248.878906 265.5 C 247.910156 265.898438 246.890625 266.257812 245.820312 266.578125 Z M 251.316406 263.328125 C 252.28125 262.78125 253.121094 262.199219 253.839844 261.585938 L 254.421875 262.269531 C 253.660156 262.921875 252.773438 263.535156 251.761719 264.109375 Z M 255.824219 259.351562 C 256.015625 259.050781 256.179688 258.742188 256.320312 258.429688 L 257.140625 258.796875 C 256.980469 259.148438 256.796875 259.492188 256.585938 259.832031 Z M 255.824219 259.351562 " fill-opacity="1" fill-rule="nonzero"/><path fill="#231f20" d="M 269.335938 265.742188 C 269.144531 266.582031 268.664062 267.5625 267.890625 268.683594 L 267.152344 268.175781 C 267.859375 267.148438 268.296875 266.273438 268.460938 265.542969 Z M 265.761719 271.128906 C 265 271.835938 264.15625 272.488281 263.222656 273.09375 L 262.738281 272.339844 C 263.625 271.765625 264.429688 271.140625 265.148438 270.472656 Z M 260.421875 274.628906 C 259.488281 275.058594 258.5 275.449219 257.457031 275.792969 L 257.175781 274.941406 C 258.1875 274.605469 259.144531 274.230469 260.042969 273.8125 Z M 254.386719 276.644531 C 253.386719 276.875 252.34375 277.070312 251.265625 277.234375 L 251.132812 276.34375 C 252.1875 276.1875 253.207031 275.996094 254.183594 275.769531 Z M 248.121094 277.601562 L 247.207031 277.671875 L 247.171875 277.222656 L 247.257812 277.664062 C 246.738281 277.765625 246.050781 277.980469 245.195312 278.308594 L 244.875 277.46875 C 245.777344 277.125 246.515625 276.894531 247.085938 276.78125 L 247.109375 276.777344 L 248.054688 276.703125 Z M 242.402344 279.601562 C 241.507812 280.089844 240.632812 280.632812 239.785156 281.234375 L 239.265625 280.503906 C 240.144531 279.878906 241.046875 279.316406 241.972656 278.8125 Z M 237.367188 283.164062 C 236.601562 283.847656 235.875 284.574219 235.179688 285.347656 L 234.511719 284.746094 C 235.230469 283.949219 235.980469 283.199219 236.769531 282.496094 Z M 233.226562 287.761719 C 232.628906 288.582031 232.066406 289.441406 231.535156 290.339844 L 230.761719 289.882812 C 231.304688 288.960938 231.886719 288.078125 232.5 287.230469 Z M 230.082031 293.074219 C 229.832031 293.601562 229.589844 294.140625 229.359375 294.695312 L 229.320312 294.789062 L 228.214844 295.761719 L 227.621094 295.089844 L 228.648438 294.183594 L 228.945312 294.519531 L 228.53125 294.347656 C 228.769531 293.78125 229.015625 293.230469 229.273438 292.6875 Z M 225.859375 297.839844 L 223.503906 299.917969 L 222.914062 299.246094 L 225.265625 297.167969 Z M 225.859375 297.839844 " fill-opacity="1" fill-rule="nonzero"/><path fill="#231f20" d="M 317.152344 267.953125 C 316.753906 268.640625 316.210938 269.527344 315.519531 270.609375 L 314.765625 270.125 C 315.449219 269.054688 315.984375 268.179688 316.375 267.503906 Z M 313.773438 273.261719 C 313.183594 274.128906 312.585938 274.980469 311.988281 275.808594 L 311.261719 275.28125 C 311.855469 274.460938 312.445312 273.617188 313.03125 272.753906 Z M 310.0625 278.375 C 309.394531 279.234375 308.734375 280.054688 308.078125 280.832031 L 307.390625 280.25 C 308.039062 279.484375 308.695312 278.675781 309.355469 277.824219 Z M 305.964844 283.210938 C 305.203125 284.027344 304.453125 284.777344 303.71875 285.460938 L 303.109375 284.804688 C 303.828125 284.136719 304.5625 283.398438 305.308594 282.597656 Z M 301.296875 287.527344 C 300.375 288.234375 299.484375 288.824219 298.621094 289.296875 L 298.1875 288.511719 C 299.011719 288.058594 299.867188 287.492188 300.75 286.816406 Z M 295.601562 290.515625 C 295.417969 290.558594 295.234375 290.597656 295.054688 290.628906 C 294.273438 290.769531 293.386719 290.816406 292.394531 290.773438 L 292.433594 289.878906 C 293.359375 289.917969 294.179688 289.875 294.894531 289.746094 C 295.058594 289.71875 295.222656 289.683594 295.390625 289.640625 Z M 289.21875 290.394531 C 288.253906 290.21875 287.214844 289.980469 286.113281 289.6875 L 286.34375 288.820312 C 287.425781 289.109375 288.4375 289.339844 289.378906 289.511719 Z M 283.070312 288.785156 C 282.113281 288.476562 281.117188 288.128906 280.082031 287.75 L 280.390625 286.90625 C 281.414062 287.28125 282.402344 287.625 283.347656 287.929688 Z M 277.121094 286.609375 C 276.179688 286.226562 275.210938 285.824219 274.214844 285.394531 L 274.570312 284.570312 C 275.558594 284.996094 276.519531 285.398438 277.457031 285.773438 Z M 271.335938 284.117188 C 270.398438 283.691406 269.445312 283.246094 268.484375 282.785156 L 268.871094 281.976562 C 269.828125 282.433594 270.773438 282.875 271.707031 283.300781 Z M 265.640625 281.398438 C 264.6875 280.921875 263.742188 280.441406 262.8125 279.957031 L 263.226562 279.160156 C 264.152344 279.640625 265.089844 280.121094 266.042969 280.59375 Z M 260.023438 278.472656 L 259.859375 278.382812 L 260.292969 277.59375 L 260.457031 277.6875 Z M 260.023438 278.472656 " fill-opacity="1" fill-rule="nonzero"/><path fill="#231f20" d="M 247.265625 279.496094 C 247.988281 279.648438 249 279.898438 250.300781 280.25 L 250.070312 281.113281 C 248.78125 280.769531 247.785156 280.523438 247.078125 280.375 Z M 253.328125 281.109375 C 254.316406 281.402344 255.320312 281.714844 256.34375 282.046875 L 256.066406 282.898438 C 255.050781 282.570312 254.054688 282.261719 253.070312 281.96875 Z M 259.339844 283.050781 C 260.324219 283.390625 261.3125 283.746094 262.304688 284.113281 L 261.992188 284.953125 C 261.003906 284.589844 260.023438 284.238281 259.046875 283.898438 Z M 265.242188 285.230469 C 266.214844 285.609375 267.1875 286 268.164062 286.402344 L 267.820312 287.230469 C 266.851562 286.832031 265.882812 286.441406 264.917969 286.066406 Z M 271.066406 287.628906 C 272.035156 288.046875 273 288.476562 273.960938 288.914062 L 273.589844 289.730469 C 272.632812 289.296875 271.671875 288.871094 270.710938 288.453125 Z M 276.808594 290.242188 C 277.753906 290.691406 278.691406 291.148438 279.628906 291.617188 L 279.230469 292.421875 C 278.296875 291.957031 277.363281 291.5 276.425781 291.050781 Z M 282.445312 293.050781 C 283.378906 293.539062 284.304688 294.035156 285.230469 294.535156 L 284.800781 295.324219 C 283.882812 294.824219 282.957031 294.332031 282.027344 293.847656 Z M 287.972656 296.058594 L 290.089844 297.28125 L 289.640625 298.058594 L 287.523438 296.835938 Z M 287.972656 296.058594 " fill-opacity="1" fill-rule="nonzero"/><path fill="#231f20" d="M 319.425781 285.203125 C 319 285.890625 318.429688 286.765625 317.710938 287.832031 L 316.96875 287.335938 C 317.675781 286.273438 318.242188 285.40625 318.664062 284.730469 Z M 315.933594 290.429688 C 315.316406 291.304688 314.703125 292.160156 314.089844 292.988281 L 313.367188 292.453125 C 313.976562 291.632812 314.585938 290.785156 315.199219 289.914062 Z M 312.1875 295.496094 C 311.507812 296.367188 310.839844 297.191406 310.183594 297.972656 L 309.496094 297.398438 C 310.144531 296.625 310.808594 295.804688 311.480469 294.941406 Z M 308.09375 300.363281 C 307.332031 301.195312 306.59375 301.953125 305.882812 302.636719 L 305.261719 301.988281 C 305.960938 301.320312 306.683594 300.574219 307.433594 299.757812 Z M 303.480469 304.730469 C 303.195312 304.957031 302.910156 305.164062 302.632812 305.359375 C 302.117188 305.71875 301.601562 306.148438 301.082031 306.644531 L 300.460938 305.996094 C 301.015625 305.46875 301.566406 305.011719 302.121094 304.625 C 302.382812 304.4375 302.65625 304.238281 302.929688 304.023438 Z M 299.035156 308.9375 C 298.445312 309.703125 297.855469 310.550781 297.265625 311.480469 L 296.507812 311 C 297.109375 310.046875 297.71875 309.175781 298.328125 308.386719 Z M 295.695312 314.171875 C 295.21875 315.058594 294.742188 315.992188 294.277344 316.976562 L 293.464844 316.59375 C 293.941406 315.59375 294.421875 314.644531 294.90625 313.746094 Z M 292.984375 319.863281 C 292.589844 320.792969 292.207031 321.746094 291.835938 322.722656 L 291 322.402344 C 291.375 321.417969 291.757812 320.453125 292.15625 319.511719 Z M 290.78125 325.652344 C 290.570312 326.28125 290.40625 326.777344 290.296875 327.148438 L 289.4375 326.890625 C 289.550781 326.511719 289.714844 326.003906 289.933594 325.367188 Z M 290.78125 325.652344 " fill-opacity="1" fill-rule="nonzero"/><path fill="#231f20" d="M 259.492188 252.421875 C 259.492188 252.421875 249.632812 245.300781 250.480469 242.640625 C 251.328125 239.980469 253.808594 236.785156 254.960938 236.785156 C 254.960938 236.785156 254.261719 239.085938 255.855469 240.234375 C 257.453125 241.382812 265.871094 247.191406 264.277344 251.019531 C 262.679688 254.847656 260.933594 253.511719 259.492188 252.421875 Z M 259.492188 252.421875 " fill-opacity="1" fill-rule="nonzero"/><path fill="#231f20" d="M 268.222656 242.605469 C 269.925781 246.542969 276.371094 262.179688 285.460938 292.96875 L 289.09375 299.511719 L 294.664062 317.6875 L 296.84375 316.472656 C 296.84375 316.472656 291.164062 299.800781 292.136719 292.644531 C 293.105469 285.492188 276.253906 237.070312 271.652344 236.789062 C 269.347656 236.648438 268.382812 237.851562 267.988281 239.085938 C 267.621094 240.242188 267.742188 241.496094 268.222656 242.605469 Z M 268.222656 242.605469 " fill-opacity="1" fill-rule="nonzero"/><path fill="#e79301" d="M 250.125 252.003906 L 218.734375 253.566406 L 217.328125 252.023438 L 201.988281 262.886719 L 196.941406 273.316406 L 186.355469 279.933594 L 181.792969 282.648438 L 178.121094 286.5625 L 174.625 289.109375 L 163.875 292.871094 C 163.875 292.871094 146.609375 292.21875 151.007812 304.113281 C 153.175781 305.398438 165.695312 298.257812 168.433594 298.054688 C 186.199219 296.738281 175.925781 311.804688 175.925781 311.804688 C 175.925781 311.804688 179.574219 305.722656 187.871094 301.894531 C 192.625 299.703125 214.03125 283.113281 214.03125 283.113281 L 227.53125 265.644531 L 250.476562 257.082031 Z M 250.125 252.003906 " fill-opacity="1" fill-rule="nonzero"/><path fill="#231f20" d="M 232.183594 256.273438 L 250.480469 253.894531 L 249.105469 246.574219 L 220.476562 249.777344 C 220.476562 249.777344 215.078125 247.488281 215.445312 242.640625 C 215.445312 242.640625 211.511719 246.027344 215.171875 251.699219 L 208.675781 257.554688 L 211.417969 258.613281 L 209.042969 262.496094 L 204.285156 260.941406 C 204.285156 260.941406 201.542969 259.019531 198.523438 262.222656 C 195.503906 265.425781 193.765625 266.886719 195.320312 268.71875 C 196.875 270.550781 198.15625 270.824219 198.15625 270.824219 L 201.449219 267.4375 L 204.101562 268.71875 L 199.984375 272.285156 C 199.984375 272.285156 196.601562 271.554688 193.125 274.480469 C 189.648438 277.410156 189.648438 277.410156 189.648438 277.410156 C 189.648438 277.410156 186.996094 276.679688 183.246094 279.882812 C 179.492188 283.082031 177.667969 282.808594 178.121094 286.558594 L 169.890625 290.21875 C 169.890625 290.21875 179.222656 290.675781 181.875 292.050781 C 184.527344 293.421875 189.375 299.460938 189.375 299.460938 L 182.511719 297.082031 C 182.511719 297.082031 181.234375 294.613281 175.835938 295.4375 L 171.535156 295.34375 L 164.859375 291.042969 C 164.859375 291.042969 161.292969 291.136719 157.90625 292.875 L 166.09375 298.121094 C 166.09375 298.121094 182.394531 308.0625 183.984375 313.367188 C 183.984375 313.367188 187.269531 316.566406 189.46875 313.367188 C 191.664062 310.167969 186.171875 304.953125 186.171875 304.953125 L 192.578125 302.023438 C 192.578125 302.023438 196.96875 307.332031 196.96875 308.703125 C 196.96875 310.074219 203.738281 312.914062 202.820312 304.679688 C 202.820312 304.679688 203.460938 302.207031 198.15625 297.542969 L 201.542969 293.972656 C 201.542969 293.972656 206.023438 298.183594 206.023438 299.738281 C 206.023438 301.292969 211.789062 302.117188 211.421875 296.628906 C 211.054688 291.136719 206.664062 288.574219 206.664062 288.574219 C 206.664062 288.574219 210.78125 285.828125 214.074219 287.476562 C 217.367188 289.125 215.71875 294.15625 221.667969 294.339844 C 227.613281 294.523438 222.492188 286.378906 222.492188 286.378906 L 216.820312 281.070312 L 219.835938 281.070312 L 223.679688 275.488281 C 223.679688 275.488281 229.078125 278.785156 229.898438 281.34375 C 229.898438 281.34375 234.015625 283.816406 233.921875 277.136719 C 233.832031 270.457031 228.527344 269.722656 228.527344 269.722656 C 228.527344 269.722656 234.566406 262.953125 239.59375 267.621094 C 244.625 272.289062 246.730469 273.109375 246.730469 273.109375 C 246.730469 273.109375 251.121094 273.292969 246.730469 266.613281 C 242.335938 259.933594 232.183594 256.273438 232.183594 256.273438 Z M 179.574219 286.222656 C 181.769531 283.214844 184.140625 281.796875 184.140625 281.796875 C 190.402344 282.402344 189.980469 283.179688 189.273438 283.746094 C 188.566406 284.3125 191.113281 285.515625 191.324219 285.65625 C 191.539062 285.796875 196.175781 290.1875 196.175781 290.1875 Z M 190.828125 278.113281 C 190.828125 278.113281 194.898438 276.910156 199.851562 277.300781 C 204.804688 277.6875 204.804688 277.6875 204.804688 277.6875 L 208.699219 282.644531 C 208.699219 282.648438 205.976562 281.054688 190.828125 278.113281 Z M 223.339844 267.351562 C 220.941406 267.652344 219.269531 274.203125 219.269531 274.203125 C 218.070312 272.832031 209.933594 272.832031 209.933594 272.832031 C 211.390625 264.953125 216.65625 264.4375 216.65625 264.4375 C 216.65625 264.4375 214.773438 264.050781 214.085938 261.054688 C 213.402344 258.054688 218.796875 256.257812 219.351562 257.453125 C 219.910156 258.652344 227.53125 262.164062 227.53125 262.164062 C 223.511719 260.882812 223.339844 267.351562 223.339844 267.351562 Z M 223.339844 267.351562 " fill-opacity="1" fill-rule="nonzero"/><g clip-path="url(#a2ab3fd296)"><path fill="#000000" d="M 228.699219 109.847656 C 227.1875 110.496094 226.136719 109.445312 224.875 109.191406 C 224.96875 110.300781 225.917969 110.539062 226.308594 111.199219 C 226.554688 111.617188 227.164062 112.023438 226.726562 112.527344 C 226.242188 113.085938 225.652344 112.789062 225.179688 112.347656 C 224.214844 111.441406 223.230469 110.546875 222.042969 109.921875 C 221.71875 109.75 221.410156 109.542969 220.777344 110.019531 C 222.75 112.511719 223.121094 115.921875 226.589844 117.660156 C 231.226562 119.972656 234.859375 123.761719 238.453125 127.496094 C 239.882812 128.96875 241.402344 130.386719 242.792969 131.902344 C 245.53125 134.878906 245.742188 136.859375 244.003906 140.507812 C 239.617188 149.734375 235.839844 159.25 230.617188 168.078125 C 229.949219 169.203125 229.566406 170.5 229.097656 171.738281 C 228.949219 172.144531 228.441406 172.898438 229.328125 172.925781 C 231.585938 172.988281 230.589844 174.355469 230.394531 175.371094 C 230.265625 175.871094 230.070312 176.347656 229.8125 176.796875 C 227.703125 181.035156 228.308594 185.339844 229.601562 189.609375 C 230.257812 191.785156 231.222656 193.871094 232 196.015625 C 232.511719 197.425781 232.941406 198.960938 231.625 200.125 C 230.3125 201.289062 228.796875 200.703125 227.46875 200.058594 C 224 198.375 221.941406 195.183594 219.832031 192.230469 C 218.09375 189.765625 216.183594 187.441406 214.101562 185.261719 C 212.78125 183.867188 211.59375 182.371094 210.535156 180.773438 C 208.957031 178.425781 209.359375 177.195312 211.902344 175.839844 C 212.277344 175.605469 212.675781 175.417969 213.09375 175.269531 C 219.617188 173.46875 222.082031 168.351562 223.535156 162.464844 C 224.535156 158.460938 225.308594 154.417969 225.851562 150.328125 C 226.242188 147.320312 227.132812 144.4375 228.800781 141.847656 C 229.144531 141.320312 229.679688 140.78125 229.082031 140.074219 C 228.441406 139.316406 227.792969 139.65625 227.113281 140.019531 C 225.882812 140.6875 224.636719 141.324219 223.402344 141.980469 C 220.535156 143.496094 218.894531 143.417969 216.578125 141.3125 C 213.839844 138.816406 210.605469 137.003906 207.671875 134.789062 C 206.5 133.902344 205.921875 134.238281 205.355469 135.421875 C 204.210938 137.832031 203.269531 140.246094 203.433594 143.027344 C 203.589844 145.625 202.839844 146.648438 200.195312 147.1875 C 198.367188 147.554688 197.4375 148.59375 196.613281 150.078125 C 195.085938 152.816406 194.023438 155.875 191.292969 157.832031 C 189.605469 159.046875 187.921875 159.46875 185.902344 158.820312 C 183.855469 158.164062 181.867188 157.371094 180.089844 156.183594 C 174.386719 152.398438 168.316406 149.171875 162.714844 145.210938 C 159.765625 143.125 156.632812 141.324219 153.214844 140.082031 C 152.828125 139.945312 152.386719 139.566406 151.996094 139.988281 C 151.601562 140.40625 152.085938 140.757812 152.253906 141.132812 C 152.671875 142.117188 151.257812 144.414062 150.144531 144.414062 C 149.253906 144.414062 149.492188 143.796875 149.847656 143.378906 C 150.203125 142.957031 150.742188 142.585938 150.058594 142.15625 C 147.886719 140.765625 146.21875 138.855469 143.351562 138.234375 C 138.398438 137.171875 133.617188 137.320312 128.734375 138.195312 C 127.792969 138.363281 126.710938 138 126.230469 137.113281 C 125.753906 136.230469 126.148438 135.183594 126.84375 134.476562 C 128.339844 132.953125 129.910156 131.457031 131.882812 130.566406 C 134.621094 129.328125 137.386719 128.089844 140.3125 127.316406 C 142.050781 126.878906 143.617188 126.09375 145.007812 124.957031 C 146.492188 123.707031 148.164062 122.792969 150.023438 122.222656 C 152.652344 121.445312 154.160156 122.410156 154.660156 125.082031 C 154.679688 125.152344 154.6875 125.222656 154.691406 125.292969 C 154.386719 131.539062 157.957031 134.457031 163.511719 136.027344 C 166.925781 136.988281 170.328125 137.882812 173.839844 138.371094 C 176.292969 138.714844 178.617188 139.394531 180.632812 140.8125 C 181.976562 141.757812 182.367188 141.144531 182.753906 139.960938 C 183.222656 138.523438 183.226562 137.050781 183.164062 135.582031 C 182.953125 130.707031 183.726562 125.914062 184.398438 121.117188 C 184.503906 120.375 184.371094 119.675781 184.003906 119.023438 C 181.578125 114.304688 182.621094 108.1875 186.585938 104.742188 C 188.429688 103.140625 188.714844 101.027344 188.421875 98.996094 C 188.082031 96.617188 189.148438 94.613281 189.476562 92.429688 C 189.609375 91.527344 189.6875 90.792969 189.265625 89.90625 C 185.417969 81.589844 180.863281 73.546875 179.148438 64.394531 C 178.925781 63.199219 178.257812 62.558594 177.320312 61.851562 C 172.332031 58.09375 167.089844 54.671875 162.550781 50.328125 C 160.160156 48.035156 157.457031 46.085938 154.648438 44.316406 C 150.460938 41.671875 147.332031 38.191406 145.949219 33.332031 C 145.828125 32.910156 145.726562 32.441406 145.472656 32.101562 C 140.636719 25.597656 143.90625 18.859375 145.421875 12.457031 C 146.042969 9.855469 149.15625 7.691406 151.804688 6.035156 C 154.296875 4.472656 157.070312 4.121094 159.898438 4.5625 C 165.394531 5.425781 169.6875 10.453125 169.804688 15.984375 C 169.925781 21.8125 165.980469 26.738281 160.125 28.039062 C 158.515625 28.40625 156.90625 28.386719 155.304688 27.980469 C 154.671875 27.820312 154.042969 27.558594 153.410156 27.421875 C 152.316406 27.191406 150.710938 27 150.300781 27.71875 C 149.699219 28.789062 151.339844 29.164062 152.019531 29.820312 C 154.757812 32.484375 157.945312 34.675781 160.105469 37.925781 C 161.007812 39.289062 162.566406 39.765625 163.996094 40.324219 C 167.789062 41.796875 171.539062 43.269531 174.722656 45.914062 C 175.558594 46.570312 176.503906 46.933594 177.566406 47 C 179.929688 47.21875 182.207031 47.792969 184.394531 48.714844 C 184.847656 48.90625 185.355469 49.34375 185.835938 48.992188 C 186.429688 48.542969 186.046875 47.890625 185.917969 47.347656 C 185.53125 45.683594 184.75 44.175781 183.921875 42.703125 C 181.957031 39.214844 181.621094 35.648438 183.871094 32.261719 C 186.070312 28.957031 189.519531 28.472656 193.261719 28.597656 C 197.816406 28.757812 200.90625 30.675781 202.019531 35.152344 C 202.460938 36.941406 202.132812 38.972656 204.25 39.964844 C 204.429688 40.125 204.5 40.320312 204.460938 40.558594 C 203.546875 43.101562 204.101562 45.816406 203.480469 48.390625 C 203.199219 49.535156 202.082031 49.746094 201.046875 49.996094 C 200.273438 50.183594 199.148438 49.972656 199.058594 51.28125 C 198.984375 52.421875 199.042969 53.417969 200.277344 54.085938 C 203.675781 55.929688 206.5 58.570312 209.339844 61.117188 C 212.761719 64.191406 213.683594 68.484375 213.457031 72.835938 C 213.105469 79.464844 213.109375 86.09375 213.140625 92.722656 C 213.171875 94.121094 213.128906 95.519531 213.015625 96.917969 C 212.6875 100.101562 213.4375 101.828125 216.480469 102.933594 C 220.261719 104.308594 223.664062 106.320312 227.09375 108.328125 C 227.71875 108.691406 228.421875 108.933594 228.699219 109.847656 Z M 228.699219 109.847656 " fill-opacity="1" fill-rule="nonzero"/></g></svg>